{
.appVersion = "3205";
.formatVersion = 3;
DisplayStrings = (
"/ampersand.ss01",
"Vwv/v.ss02 lazy",
GRAND,
"apparently,
uneasy settling 

messy!",
"/N_N.ss02",
A
);
axes = (
{
name = Weight;
tag = wght;
}
);
classes = (
{
automatic = 1;

glyphs = (
{
glyphname = A;
kernLeft = A;
kernRight = A;
lastChange = "2023-07-07 17:57:08 +0000";
layers = (
{
anchors = (
{
name = bottom;
pos = (584,0);
},
{
name = ogonek;
pos = (1177,7);
},
{
name = top;
pos = (670,1327);
}
);
layerId = "B5042207-EFBA-41B6-8DFD-104A953B46A6";
shapes = (
{
closed = 1;
nodes = (
(450,57,o),
(471,178,o),
(497,291,c),
(535,299,o),
(639,306,o),
(745,308,c),
(745,190,o),
(746,80,o),
(752,-15,c),
(879,-15,o),
(1097,-4,o),
(1177,7,c),
(1116,783,o),
(1058,1089,o),
(1006,1323,c),
(924,1333,o),
(845,1338,o),
(763,1338,cs),
(635,1338,o),
(499,1327,o),
(328,1306,c),
(223,940,o),
(64,271,o),
(17,-2,c),
(123,-7,o),
(367,-15,o),
(442,-15,c)
);
},
{
closed = 1;
nodes = (
(553,691,o),
(591,911,o),
(608,995,c),
(625,997,o),
(702,1002,o),
(727,1002,c),
(727,976,o),
(735,692,o),
(737,651,c),
(698,651,o),
(574,643,o),
(547,639,c)
);
}
);
width = 1212;
},
{
anchors = (
{
name = bottom;
pos = (553,0);
},
{
name = ogonek;
pos = (898,-5);
},
{
name = top;
pos = (566,1323);
}
);
layerId = "B5195C1E-69AB-4BC6-9855-DF55601A0735";
shapes = (
{
closed = 1;
nodes = (
(201,91,o),
(243,318,o),
(286,525,c),
(324,533,o),
(667,562,o),
(773,562,c),
(784,467,o),
(806,80,o),
(811,-15,c),
(840,-15,o),
(871,-12,o),
(898,-5,c),
(857,621,o),
(811,1089,o),
(760,1323,c),
(728,1327,o),
(683,1329,o),
(648,1329,cs),
(532,1329,o),
(414,1311,o),
(386,1304,c),
(306,996,o),
(130,165,o),
(100,-7,c),
(117,-12,o),
(148,-15,o),
(185,-15,c)
);
},
{
closed = 1;
nodes = (
(371,941,o),
(431,1173,o),
(447,1231,c),
(489,1237,o),
(641,1250,o),
(700,1250,c),
(729,1096,o),
(760,745,o),
(768,638,c),
(620,632,o),
(399,612,o),
(300,591,c)
);
}
);
width = 998;
}
);
unicode = 65;
},
{
glyphname = A.ss02;
kernLeft = A;
kernRight = A;
lastChange = "2023-07-10 13:11:11 +0000";
layers = (
{
anchors = (
{
name = bottom;
pos = (577,0);
},
{
name = ogonek;
pos = (1170,7);
},
{
name = top;
pos = (663,1327);
}
);
layerId = "B5042207-EFBA-41B6-8DFD-104A953B46A6";
shapes = (
{
closed = 1;
nodes = (
(444,44,o),
(473,180,o),
(490,246,c),
(563,251,o),
(677,256,o),
(769,257,c),
(790,181,o),
(810,50,o),
(815,-5,c),
(892,-1,o),
(1180,56,o),
(1220,77,c),
(1164,455,o),
(873,1163,o),
(680,1338,c),
(493,1193,o),
(168,591,o),
(30,118,c),
(92,90,o),
(360,5,o),
(435,-15,c)
);
},
{
closed = 1;
nodes = (
(572,580,o),
(625,701,o),
(649,758,c),
(666,728,o),
(713,562,o),
(727,499,c),
(671,498,o),
(599,496,o),
(546,493,c)
);
}
);
width = 1250;
},
{
anchors = (
{
name = bottom;
pos = (553,0);
},
{
name = ogonek;
pos = (898,-5);
},
{
name = top;
pos = (566,1323);
}
);
layerId = "B5195C1E-69AB-4BC6-9855-DF55601A0735";
shapes = (
{
closed = 1;
nodes = (
(141,64,o),
(211,331,o),
(284,542,c),
(374,558,o),
(663,582,o),
(758,582,c),
(796,459,o),
(894,60,o),
(901,5,c),
(919,9,o),
(964,25,o),
(988,33,c),
(950,280,o),
(731,1025,o),
(558,1349,c),
(368,1018,o),
(182,559,o),
(40,33,c),
(54,23,o),
(110,6,o),
(125,5,c)
);
},
{
closed = 1;
nodes = (
(380,788,o),
(506,1087,o),
(552,1184,c),
(610,1057,o),
(708,781,o),
(743,653,c),
(625,650,o),
(400,631,o),
(312,613,c)
);
}
);
width = 998;
}
);
},
{
glyphname = Aogonek;
lastChange = "2020-07-16 19:50:16 +0000";
layers = (
{
layerId = "B5195C1E-69AB-4BC6-9855-DF55601A0735";
shapes = (
{
closed = 1;
nodes = (
(946,-408,o),
(897,-428,o),
(803,-428,cs),
(713,-428,o),
(656,-397,o),
(656,-295,cs),
(656,-182,o),
(786,-48,o),
(898,-5,c),
(833,40,l),
(694,-19,o),
(570,-159,o),
(570,-302,cs),
(570,-431,o),
(650,-508,o),
(787,-508,cs),
(891,-508,o),
(963,-486,o),
(1019,-462,c),
(1019,-375,l)
);
},
{
ref = A;
}
);
width = 998;
},
{
layerId = "B5042207-EFBA-41B6-8DFD-104A953B46A6";
shapes = (
{
closed = 1;
nodes = (
(1052,-275,o),
(1007,-284,o),
(964,-284,cs),
(911,-284,o),
(857,-260,o),
(857,-188,cs),
(857,-108,o),
(932,-24,o),
(977,7,c),
(841,65,l),
(776,46,o),
(594,-105,o),
(594,-277,cs),
(594,-444,o),
(738,-529,o),
(896,-529,cs),
(1000,-529,o),
(1062,-516,o),
(1091,-504,c),
(1091,-247,l)
);
},
{
ref = A;
}
);
width = 1212;
}
);
unicode = 260;
},
{
glyphname = AE;
kernLeft = A;
kernRight = E;
lastChange = "2020-07-16 19:49:22 +0000";
layers = (
{
anchors = (
{
name = bottom;
pos = (876,0);
},
{
name = top;
pos = (987,1291);
}
);
layerId = "B5042207-EFBA-41B6-8DFD-104A953B46A6";
shapes = (
{
closed = 1;
nodes = (
(1632,-10,o),
(1659,235,o),
(1659,368,c),
(1610,372,o),
(1530,378,o),
(1448,378,cs),
(1368,378,o),
(1289,378,o),
(1209,378,c),
(1209,400,o),
(1212,478,o),
(1214,505,c),
(1249,505,o),
(1540,491,o),
(1584,488,c),
(1591,828,l),
(1504,826,o),
(1302,823,o),
(1223,823,c),
(1223,842,o),
(1223,929,o),
(1226,946,c),
(1649,977,l),
(1659,1091,o),
(1667,1194,o),
(1667,1298,c),
(1596,1298,o),
(723,1232,o),
(577,1216,c),
(389,874,o),
(76,251,o),
(-33,-4,c),
(69,-9,o),
(316,-16,o),
(389,-16,c),
(414,51,o),
(463,164,o),
(515,269,c),
(554,277,o),
(757,283,o),
(861,285,c),
(861,175,o),
(858,73,o),
(852,-16,c),
(1038,-16,o),
(1410,-33,o),
(1620,-47,c)
);
},
{
closed = 1;
nodes = (
(663,642,o),
(742,847,o),
(778,926,c),
(795,928,o),
(852,932,o),
(877,932,c),
(871,908,o),
(855,654,o),
(855,605,c),
(816,605,o),
(673,598,o),
(645,594,c)
);
}
);
width = 1762;
},
{
anchors = (
{
name = bottom;
pos = (775,0);
},
{
name = top;
pos = (870,1291);
}
);
layerId = "B5195C1E-69AB-4BC6-9855-DF55601A0735";
shapes = (
{
closed = 1;
nodes = (
(1483,-5,o),
(1489,25,o),
(1491,53,c),
(1415,59,o),
(1229,66,o),
(1070,66,cs),
(1017,66,o),
(930,65,o),
(890,63,c),
(890,267,o),
(890,472,o),
(890,676,c),
(976,679,o),
(1395,680,o),
(1445,680,c),
(1437,758,l),
(1345,758,o),
(965,746,o),
(892,743,c),
(892,828,o),
(895,1095,o),
(900,1183,c),
(1491,1230,l),
(1494,1257,o),
(1495,1270,o),
(1495,1304,c),
(1469,1304,o),
(524,1218,o),
(505,1214,c),
(390,927,o),
(120,152,o),
(70,-9,c),
(86,-13,o),
(116,-16,o),
(152,-16,c),
(180,83,o),
(248,295,o),
(315,488,c),
(353,495,o),
(698,522,o),
(804,522,c),
(804,352,o),
(808,167,o),
(814,-12,c),
(1017,-12,o),
(1341,-18,o),
(1478,-23,c)
);
},
{
closed = 1;
nodes = (
(447,875,o),
(533,1092,o),
(556,1146,c),
(598,1151,o),
(748,1164,o),
(806,1164,c),
(806,867,o),
(806,738,o),
(800,593,c),
(654,587,o),
(436,569,o),
(336,549,c)
);
}
);
width = 1614;
}
);
metricLeft = "=A-30";
metricRight = E;
unicode = 198;
},
{
glyphname = B;
kernLeft = H;
kernRight = B;
lastChange = "2020-06-10 19:16:00 +0000";
layers = (
{
anchors = (
{
name = bottom;
pos = (587,0);
},
{
name = top;
pos = (587,1291);
}
);
layerId = "B5042207-EFBA-41B6-8DFD-104A953B46A6";
shapes = (
{
closed = 1;
nodes = (
(146,10,o),
(257,2,o),
(372,2,cs),
(822,2,o),
(1106,77,o),
(1106,444,cs),
(1106,608,o),
(994,721,o),
(812,736,cs),
(800,737,o),
(793,737,o),
(786,737,c),
(877,752,o),
(1020,834,o),
(1020,1000,cs),
(1020,1222,o),
(848,1306,o),
(602,1306,cs),
(441,1306,o),
(233,1293,o),
(106,1285,c),
(106,1256,o),
(75,209,o),
(75,27,c)
);
},
{
closed = 1;
nodes = (
(475,543,l),
(520,548,o),
(552,550,o),
(586,550,cs),
(725,550,o),
(737,507,o),
(737,466,cs),
(737,400,o),
(621,372,o),
(537,372,cs),
(516,372,o),
(497,372,o),
(484,373,c)
);
},
{
closed = 1;
nodes = (
(463,1012,l),
(504,1017,o),
(557,1023,o),
(590,1023,cs),
(644,1023,o),
(689,990,o),
(689,945,cs),
(689,881,o),
(604,857,o),
(525,857,cs),
(508,857,o),
(490,857,o),
(470,857,c)
);
}
);
width = 1174;
},
{
anchors = (
{
name = bottom;
pos = (587,0);
},
{
name = top;
pos = (587,1291);
}
);
layerId = "B5195C1E-69AB-4BC6-9855-DF55601A0735";
shapes = (
{
closed = 1;
nodes = (
(244,6,o),
(296,4,o),
(350,4,cs),
(702,4,o),
(1031,64,o),
(1031,386,cs),
(1031,556,o),
(876,666,o),
(710,666,cs),
(702,666,o),
(695,666,o),
(689,665,c),
(805,695,o),
(902,871,o),
(902,1010,cs),
(902,1217,o),
(750,1306,o),
(550,1306,cs),
(390,1306,o),
(269,1293,o),
(207,1285,c),
(207,1256,o),
(198,193,o),
(198,12,c)
);
},
{
closed = 1;
nodes = (
(294,610,l),
(338,615,o),
(501,617,o),
(535,617,cs),
(735,617,o),
(954,579,o),
(954,383,cs),
(954,117,o),
(657,80,o),
(331,80,cs),
(310,80,o),
(294,80,o),
(287,80,c)
);
},
{
closed = 1;
nodes = (
(291,1221,l),
(336,1228,o),
(435,1241,o),
(532,1241,cs),
(711,1241,o),
(820,1185,o),
(820,1003,cs),
(820,895,o),
(768,783,o),
(691,737,cs),
(617,692,o),
(515,682,o),
(292,680,c)
);
}
);
width = 1174;
}
);
unicode = 66;
},
{
glyphname = C;
kernLeft = O;
kernRight = C;
lastChange = "2020-07-03 19:50:48 +0000";
layers = (
{
anchors = (
{
name = bottom;
pos = (569,0);
},
{
name = top;
pos = (569,1291);
}
);
layerId = "B5042207-EFBA-41B6-8DFD-104A953B46A6";
shapes = (
{
closed = 1;
nodes = (
(1063,308,o),
(930,434,o),
(839,499,c),
(768,426,o),
(689,390,o),
(620,390,cs),
(483,390,o),
(454,534,o),
(454,695,cs),
(454,836,o),
(501,982,o),
(628,982,cs),
(733,982,o),
(797,855,o),
(803,834,c),
(885,885,o),
(1032,995,o),
(1101,1070,c),
(997,1246,o),
(814,1326,o),
(612,1326,cs),
(238,1326,o),
(25,1049,o),
(25,659,cs),
(25,256,o),
(233,-14,o),
(627,-14,cs),
(841,-14,o),
(1017,103,o),
(1118,215,c)
);
}
);
width = 1137;
},
{
anchors = (
{
name = bottom;
pos = (569,0);
},
{
name = top;
pos = (539,1301);
}
);
layerId = "B5195C1E-69AB-4BC6-9855-DF55601A0735";
shapes = (
{
closed = 1;
nodes = (
(1026,299,o),
(986,332,o),
(973,338,c),
(906,241,o),
(778,72,o),
(552,72,cs),
(359,72,o),
(158,323,o),
(158,662,cs),
(158,1103,o),
(375,1241,o),
(547,1241,cs),
(824,1241,o),
(900,1090,o),
(926,1038,c),
(943,1049,o),
(983,1079,o),
(993,1093,c),
(922,1230,o),
(750,1326,o),
(566,1326,cs),
(237,1326,o),
(65,1034,o),
(65,676,cs),
(65,313,o),
(253,-7,o),
(554,-7,cs),
(781,-7,o),
(933,127,o),
(1034,289,c)
);
}
);
width = 1137;
}
);
unicode = 67;
},
{
glyphname = Ccedilla;
lastChange = "2020-07-08 20:01:06 +0000";
layers = (
{
layerId = "B5195C1E-69AB-4BC6-9855-DF55601A0735";
shapes = (
{
closed = 1;
nodes = (
(785,-462,o),
(898,-396,o),
(898,-255,cs),
(898,-144,o),
(823,-87,o),
(718,-87,cs),
(670,-87,o),
(607,-106,o),
(590,-119,c),
(611,39,l),
(539,43,l),
(503,-212,l),
(544,-194,o),
(642,-159,o),
(700,-159,cs),
(782,-159,o),
(809,-198,o),
(809,-267,cs),
(809,-359,o),
(718,-392,o),
(570,-392,cs),
(519,-392,o),
(443,-374,o),
(404,-364,c),
(386,-437,l),
(406,-444,o),
(471,-462,o),
(575,-462,cs)
);
},
{
ref = C;
}
);
width = 1137;
},
{
layerId = "B5042207-EFBA-41B6-8DFD-104A953B46A6";
shapes = (
{
closed = 1;
nodes = (
(770,-527,o),
(988,-443,o),
(988,-258,cs),
(988,-125,o),
(913,-67,o),
(807,-67,cs),
(737,-67,o),
(681,-95,o),
(657,-129,c),
(681,19,l),
(462,7,l),
(406,-247,l),
(441,-234,o),
(524,-219,o),
(601,-219,cs),
(668,-219,o),
(722,-230,o),
(722,-266,cs),
(722,-306,o),
(657,-327,o),
(539,-327,cs),
(506,-327,o),
(422,-315,o),
(393,-302,c),
(329,-505,l),
(349,-510,o),
(431,-527,o),
(536,-527,cs)
);
},
{
ref = C;
}
);
width = 1137;
}
);
unicode = 199;
},
{
glyphname = D;
kernLeft = H;
kernRight = O;
lastChange = "2020-07-16 20:03:15 +0000";
layers = (
{
anchors = (
{
name = bottom;
pos = (599,0);
},
{
name = center;
pos = (304,646);
},
{
name = top;
pos = (533,1291);
}
);
layerId = "B5042207-EFBA-41B6-8DFD-104A953B46A6";
shapes = (
{
closed = 1;
nodes = (
(832,-34,o),
(1147,56,o),
(1147,636,cs),
(1147,1143,o),
(956,1325,o),
(451,1325,cs),
(304,1325,o),
(127,1309,o),
(32,1299,c),
(42,1152,o),
(111,178,o),
(137,-34,c)
);
},
{
closed = 1;
nodes = (
(502,554,o),
(485,813,o),
(474,978,c),
(487,979,o),
(513,979,o),
(533,979,cs),
(684,979,o),
(739,774,o),
(739,602,cs),
(739,463,o),
(690,381,o),
(512,381,c)
);
}
);
width = 1198;
},
{
anchors = (
{
name = bottom;
pos = (599,0);
},
{
name = center;
pos = (360,646);
},
{
name = top;
pos = (502,1291);
}
);
layerId = "B5195C1E-69AB-4BC6-9855-DF55601A0735";
shapes = (
{
closed = 1;
nodes = (
(775,-8,o),
(971,192,o),
(971,642,cs),
(971,1017,o),
(850,1325,o),
(393,1325,cs),
(319,1325,o),
(173,1308,o),
(137,1299,c),
(138,1268,o),
(231,219,o),
(258,-27,c)
);
},
{
closed = 1;
nodes = (
(288,427,o),
(255,867,o),
(229,1251,c),
(273,1254,o),
(315,1256,o),
(354,1256,cs),
(767,1256,o),
(897,1039,o),
(897,658,cs),
(897,268,o),
(747,86,o),
(329,53,c)
);
}
);
width = 1198;
}
);
unicode = 68;
},
{
glyphname = Eth;
kernLeft = H;
kernRight = O;
lastChange = "2020-06-18 20:02:25 +0000";
layers = (
{
layerId = "B5042207-EFBA-41B6-8DFD-104A953B46A6";
shapes = (
{
closed = 1;
nodes = (
(610,644,o),
(602,736,o),
(599,768,c),
(479,768,o),
(139,740,o),
(3,710,c),
(3,648,o),
(8,589,o),
(16,525,c),
(198,543,o),
(506,553,o),
(610,553,c)
);
},
{
ref = D;
}
);
width = 1198;
},
{
layerId = "B5195C1E-69AB-4BC6-9855-DF55601A0735";
shapes = (
{
closed = 1;
nodes = (
(579,663,o),
(577,698,o),
(576,707,c),
(457,707,o),
(122,670,o),
(66,655,c),
(62,644,o),
(60,610,o),
(60,592,c),
(203,611,o),
(437,632,o),
(579,632,c)
);
},
{
ref = D;
}
);
width = 1198;
}
);
unicode = 208;
},
{
glyphname = E;
kernLeft = H;
kernRight = E;
lastChange = "2023-07-07 16:44:06 +0000";
layers = (
{
anchors = (
{
name = bottom;
pos = (499,0);
},
{
name = ogonek;
pos = (693,0);
},
{
name = top;
pos = (499,1321);
},
{
name = topleft;
pos = (40,1291);
}
);
layerId = "B5042207-EFBA-41B6-8DFD-104A953B46A6";
shapes = (
{
closed = 1;
nodes = (
(827,22,o),
(854,267,o),
(854,400,c),
(805,404,o),
(725,410,o),
(643,410,cs),
(555,410,o),
(464,410,o),
(454,410,c),
(454,432,o),
(457,530,o),
(459,557,c),
(494,557,o),
(665,543,o),
(709,540,c),
(716,860,l),
(629,858,o),
(547,855,o),
(468,855,c),
(468,874,o),
(468,961,o),
(471,978,c),
(844,1009,l),
(854,1123,o),
(862,1226,o),
(862,1330,c),
(807,1330,o),
(471,1328,o),
(82,1251,c),
(77,1153,o),
(69,945,o),
(69,670,cs),
(69,483,o),
(73,266,o),
(82,31,c),
(204,23,o),
(327,15,o),
(449,8,cs),
(571,1,o),
(693,-7,o),
(815,-15,c)
);
}
);
width = 957;
},
{
anchors = (
{
name = bottom;
pos = (479,0);
},
{
name = ogonek;
pos = (688,1);
},
{
name = top;
pos = (479,1311);
},
{
name = topleft;
pos = (20,1291);
}
);
layerId = "B5195C1E-69AB-4BC6-9855-DF55601A0735";
shapes = (
{
closed = 1;
nodes = (
(826,9,o),
(832,39,o),
(834,67,c),
(758,73,o),
(572,80,o),
(413,80,cs),
(360,80,o),
(273,79,o),
(233,77,c),
(233,223,o),
(233,636,o),
(233,690,c),
(319,693,o),
(658,694,o),
(708,694,c),
(700,772,l),
(608,772,o),
(308,760,o),
(235,757,c),
(235,842,o),
(238,1109,o),
(243,1197,c),
(834,1244,l),
(837,1271,o),
(838,1284,o),
(838,1318,c),
(783,1318,o),
(496,1299,o),
(157,1251,c),
(151,1179,o),
(147,946,o),
(147,580,cs),
(147,398,o),
(150,197,o),
(157,2,c),
(220,4,o),
(302,5,o),
(365,5,cs),
(525,5,o),
(664,0,o),
(821,-9,c)
);
}
);
width = 957;
}
);
unicode = 69;
},
{
glyphname = Ecedillabreve;
lastChange = "2020-07-08 20:01:16 +0000";
layers = (
{
layerId = "B5195C1E-69AB-4BC6-9855-DF55601A0735";
shapes = (
{
closed = 1;
nodes = (
(695,-462,o),
(808,-396,o),
(808,-255,cs),
(808,-144,o),
(733,-87,o),
(628,-87,cs),
(580,-87,o),
(517,-106,o),
(500,-119,c),
(521,39,l),
(449,43,l),
(413,-212,l),
(454,-194,o),
(552,-159,o),
(610,-159,cs),
(692,-159,o),
(719,-198,o),
(719,-267,cs),
(719,-359,o),
(628,-392,o),
(480,-392,cs),
(429,-392,o),
(353,-374,o),
(314,-364,c),
(296,-437,l),
(316,-444,o),
(381,-462,o),
(485,-462,cs)
);
},
{
ref = E;
},
{
pos = (71,20);
ref = brevecomb.case;
}
);
width = 957;
},
{
layerId = "B5042207-EFBA-41B6-8DFD-104A953B46A6";
shapes = (
{
closed = 1;
nodes = (
(700,-517,o),
(918,-433,o),
(918,-248,cs),
(918,-115,o),
(843,-57,o),
(737,-57,cs),
(667,-57,o),
(611,-85,o),
(587,-119,c),
(621,49,l),
(402,37,l),
(336,-237,l),
(371,-224,o),
(454,-209,o),
(531,-209,cs),
(598,-209,o),
(652,-220,o),
(652,-256,cs),
(652,-296,o),
(587,-317,o),
(469,-317,cs),
(436,-317,o),
(352,-305,o),
(323,-292,c),
(259,-495,l),
(279,-500,o),
(361,-517,o),
(466,-517,cs)
);
},
{
ref = E;
},
{
pos = (87,30);
ref = brevecomb.case;
}
);
width = 957;
}
);
unicode = 7708;
},
{
glyphname = Eogonek;
lastChange = "2020-07-16 20:00:25 +0000";
layers = (
{
layerId = "B5195C1E-69AB-4BC6-9855-DF55601A0735";
shapes = (
{
closed = 1;
nodes = (
(869,-412,o),
(820,-432,o),
(726,-432,cs),
(636,-432,o),
(579,-401,o),
(579,-299,cs),
(579,-186,o),
(709,-52,o),
(821,-9,c),
(756,36,l),
(617,-23,o),
(493,-163,o),
(493,-306,cs),
(493,-435,o),
(573,-512,o),
(710,-512,cs),
(814,-512,o),
(886,-490,o),
(942,-466,c),
(942,-379,l)
);
},
{
ref = E;
}
);
width = 957;
},
{
layerId = "B5042207-EFBA-41B6-8DFD-104A953B46A6";
shapes = (
{
closed = 1;
nodes = (
(890,-297,o),
(845,-306,o),
(802,-306,cs),
(749,-306,o),
(695,-282,o),
(695,-210,cs),
(695,-130,o),
(770,-46,o),
(815,-15,c),
(679,43,l),
(614,24,o),
(432,-127,o),
(432,-299,cs),
(432,-466,o),
(576,-551,o),
(734,-551,cs),
(838,-551,o),
(900,-538,o),
(929,-526,c),
(929,-269,l)
);
},
{
ref = E;
}
);
width = 957;
}
);
unicode = 280;
},
{
glyphname = Schwa;
kernLeft = O;
kernRight = O;
lastChange = "2020-06-17 20:23:41 +0000";
layers = (
{
layerId = "B5195C1E-69AB-4BC6-9855-DF55601A0735";
shapes = (
{
closed = 1;
nodes = (
(147,987,o),
(202,950,o),
(211,944,c),
(221,962,o),
(383,1241,o),
(709,1241,cs),
(935,1241,o),
(1102,1091,o),
(1156,881,cs),
(1169,830,o),
(1180,754,o),
(1180,712,c),
(992,705,o),
(785,696,o),
(587,687,cs),
(404,679,o),
(204,673,o),
(180,673,c),
(180,623,o),
(182,578,o),
(188,532,cs),
(231,204,o),
(385,-23,o),
(691,-23,cs),
(1036,-23,o),
(1274,238,o),
(1274,622,cs),
(1274,1033,o),
(1101,1316,o),
(716,1316,cs),
(373,1316,o),
(184,1076,o),
(137,999,c)
);
},
{
closed = 1;
nodes = (
(1185,281,o),
(983,57,o),
(701,57,cs),
(449,57,o),
(334,248,o),
(296,444,cs),
(287,488,o),
(280,551,o),
(280,586,c),
(320,590,o),
(410,596,o),
(552,603,cs),
(782,614,o),
(1029,623,o),
(1185,628,c)
);
}
);
width = 1456;
},
{
layerId = "B5042207-EFBA-41B6-8DFD-104A953B46A6";
shapes = (
{
closed = 1;
nodes = (
(101,1037,o),
(260,915,o),
(282,899,c),
(394,991,o),
(544,1009,o),
(607,1009,cs),
(705,1009,o),
(800,969,o),
(844,897,cs),
(886,829,o),
(891,776,o),
(891,720,c),
(829,714,o),
(626,700,o),
(497,692,cs),
(383,685,o),
(100,665,o),
(58,662,c),
(46,599,o),
(41,544,o),
(41,477,cs),
(41,143,o),
(323,-26,o),
(601,-26,cs),
(991,-26,o),
(1250,276,o),
(1250,725,cs),
(1250,1121,o),
(928,1329,o),
(639,1329,cs),
(415,1329,o),
(161,1248,o),
(41,1120,c)
);
},
{
closed = 1;
nodes = (
(886,355,o),
(742,278,o),
(618,278,cs),
(532,278,o),
(468,325,o),
(447,387,cs),
(443,399,o),
(440,412,o),
(440,424,c),
(459,424,o),
(568,431,o),
(625,435,cs),
(728,443,o),
(839,456,o),
(886,462,c)
);
}
);
width = 1309;
}
);
metricLeft = O;
metricRight = O;
unicode = 399;
},
{
glyphname = F;
kernLeft = H;
kernRight = F;
lastChange = "2020-06-10 19:18:57 +0000";
layers = (
{
anchors = (
{
name = bottom;
pos = (475,0);
},
{
name = top;
pos = (475,1291);
}
);
layerId = "B5042207-EFBA-41B6-8DFD-104A953B46A6";
shapes = (
{
closed = 1;
nodes = (
(525,161,o),
(509,355,o),
(491,517,c),
(593,517,o),
(714,506,o),
(785,498,c),
(794,619,o),
(794,722,o),
(794,819,c),
(729,831,o),
(551,848,o),
(461,848,c),
(458,885,o),
(453,932,o),
(449,962,c),
(607,962,o),
(815,945,o),
(893,942,c),
(893,1030,o),
(887,1162,o),
(878,1280,c),
(796,1299,o),
(660,1314,o),
(497,1314,cs),
(362,1314,o),
(212,1312,o),
(68,1301,c),
(85,875,o),
(99,448,o),
(109,17,c),
(535,0,l)
);
}
);
width = 949;
},
{
anchors = (
{
name = bottom;
pos = (475,0);
},
{
name = top;
pos = (475,1291);
}
);
layerId = "B5195C1E-69AB-4BC6-9855-DF55601A0735";
shapes = (
{
closed = 1;
nodes = (
(294,200,o),
(282,482,o),
(271,658,c),
(403,658,o),
(624,648,o),
(756,634,c),
(757,645,o),
(760,679,o),
(760,701,c),
(743,703,o),
(551,725,o),
(270,725,c),
(264,880,o),
(254,1116,o),
(244,1221,c),
(555,1221,o),
(727,1205,o),
(802,1195,c),
(802,1215,o),
(801,1257,o),
(797,1280,c),
(687,1292,o),
(607,1299,o),
(490,1303,cs),
(405,1306,o),
(301,1307,o),
(152,1307,c),
(174,922,o),
(202,421,o),
(202,-12,c),
(294,-26,l)
);
}
);
width = 949;
}
);
unicode = 70;
},
{
glyphname = G;
kernLeft = O;
kernRight = G;
lastChange = "2020-06-10 19:34:16 +0000";
layers = (
{
anchors = (
{
name = bottom;
pos = (638,0);
},
{
name = top;
pos = (638,1291);
}
);
layerId = "B5042207-EFBA-41B6-8DFD-104A953B46A6";
shapes = (
{
closed = 1;
nodes = (
(1018,-48,o),
(1192,209,o),
(1192,488,cs),
(1192,537,o),
(1187,608,o),
(1172,652,c),
(1036,691,o),
(774,726,o),
(639,726,c),
(630,662,o),
(624,514,o),
(624,447,c),
(668,447,o),
(781,434,o),
(817,423,c),
(819,415,o),
(820,408,o),
(820,394,cs),
(820,341,o),
(748,299,o),
(682,299,cs),
(530,299,o),
(458,440,o),
(458,613,cs),
(458,773,o),
(507,954,o),
(647,954,cs),
(746,954,o),
(802,884,o),
(824,855,c),
(942,927,o),
(1095,1063,o),
(1140,1115,c),
(1029,1270,o),
(821,1338,o),
(639,1338,cs),
(270,1338,o),
(62,1051,o),
(62,646,cs),
(62,210,o),
(298,-48,o),
(677,-48,cs)
);
}
);
width = 1275;
},
{
anchors = (
{
name = bottom;
pos = (678,0);
},
{
name = top;
pos = (678,1291);
}
);
layerId = "B5195C1E-69AB-4BC6-9855-DF55601A0735";
shapes = (
{
closed = 1;
nodes = (
(1050,-48,o),
(1179,158,o),
(1179,483,cs),
(1179,540,o),
(1175,599,o),
(1168,662,c),
(985,698,o),
(701,723,o),
(543,733,c),
(543,710,o),
(546,672,o),
(548,654,c),
(684,646,o),
(1022,601,o),
(1096,588,c),
(1098,559,o),
(1099,520,o),
(1099,491,cs),
(1099,255,o),
(1023,36,o),
(715,36,cs),
(346,36,o),
(174,266,o),
(174,673,cs),
(174,1111,o),
(448,1258,o),
(627,1258,cs),
(790,1258,o),
(897,1236,o),
(1014,1050,c),
(1031,1062,o),
(1059,1094,o),
(1068,1110,c),
(1025,1194,o),
(903,1338,o),
(645,1338,cs),
(281,1338,o),
(84,1051,o),
(84,646,cs),
(84,214,o),
(286,-48,o),
(717,-48,cs)
);
}
);
width = 1275;
}
);
unicode = 71;
},
{
glyphname = H;
kernLeft = H;
kernRight = H;
lastChange = "2020-06-10 19:22:11 +0000";
layers = (
{
anchors = (
{
name = bottom;
pos = (547,0);
},
{
name = center;
pos = (526,1063);
},
{
name = top;
pos = (547,1291);
},
{
name = topleft;
pos = (20,1291);
}
);
layerId = "B5042207-EFBA-41B6-8DFD-104A953B46A6";
shapes = (
{
closed = 1;
nodes = (
(169,5,o),
(403,12,o),
(482,22,c),
(481,88,o),
(472,358,o),
(468,468,c),
(526,468,o),
(559,468,o),
(627,470,c),
(627,311,o),
(627,195,o),
(627,2,c),
(770,2,o),
(933,7,o),
(986,12,c),
(988,129,o),
(994,386,o),
(1004,640,cs),
(1016,939,o),
(1033,1234,o),
(1043,1299,c),
(996,1304,o),
(898,1307,o),
(795,1307,cs),
(742,1307,o),
(681,1306,o),
(641,1304,c),
(636,1172,o),
(632,875,o),
(629,812,c),
(577,812,o),
(526,810,o),
(453,802,c),
(450,852,o),
(446,973,o),
(446,1060,cs),
(446,1133,o),
(445,1229,o),
(445,1297,c),
(347,1297,o),
(82,1285,o),
(56,1282,c),
(52,1228,o),
(50,1148,o),
(50,1052,cs),
(50,700,o),
(73,147,o),
(91,5,c)
);
}
);
width = 1094;
},
{
anchors = (
{
name = bottom;
pos = (547,0);
},
{
name = center;
pos = (517,1063);
},
{
name = top;
pos = (547,1291);
},
{
name = topleft;
pos = (20,1291);
}
);
layerId = "B5195C1E-69AB-4BC6-9855-DF55601A0735";
shapes = (
{
closed = 1;
nodes = (
(227,-2,o),
(275,2,o),
(287,4,c),
(285,25,o),
(260,395,o),
(248,641,c),
(321,641,o),
(700,651,o),
(770,653,c),
(770,535,o),
(773,154,o),
(773,-2,c),
(793,-2,o),
(832,-1,o),
(855,2,c),
(851,53,o),
(850,134,o),
(850,232,cs),
(850,572,o),
(870,1116,o),
(896,1299,c),
(880,1303,o),
(844,1305,o),
(820,1305,cs),
(811,1305,o),
(804,1305,o),
(800,1304,c),
(786,1142,o),
(777,889,o),
(772,745,c),
(687,742,o),
(318,726,o),
(244,718,c),
(243,740,o),
(240,870,o),
(240,1013,cs),
(240,1109,o),
(243,1211,o),
(251,1289,c),
(226,1289,o),
(180,1285,o),
(156,1282,c),
(152,1239,o),
(151,1171,o),
(151,1088,cs),
(151,747,o),
(176,149,o),
(190,-2,c)
);
}
);
width = 1094;
}
);
unicode = 72;
},
{
glyphname = Hbar;
kernLeft = H;
kernRight = H;
lastChange = "2020-07-16 19:48:45 +0000";
layers = (
{
layerId = "B5042207-EFBA-41B6-8DFD-104A953B46A6";
shapes = (
{
closed = 1;
nodes = (
(1095,1023,o),
(1083,1144,o),
(1078,1178,c),
(885,1178,o),
(144,1169,o),
(-23,1126,c),
(-23,1062,o),
(-14,984,o),
(-2,909,c),
(299,923,o),
(929,929,o),
(1095,929,c)
);
},
{
ref = H;
}
);
width = 1094;
},
{
layerId = "B5195C1E-69AB-4BC6-9855-DF55601A0735";
shapes = (
{
closed = 1;
nodes = (
(1007,1023,o),
(1006,1051,o),
(1003,1058,c),
(810,1058,o),
(109,1045,o),
(17,1037,c),
(10,1028,o),
(6,1001,o),
(6,987,c),
(238,992,o),
(777,999,o),
(1007,999,c)
);
},
{
ref = H;
}
);
width = 1094;
}
);
unicode = 294;
},
{
glyphname = I;
lastChange = "2020-06-18 18:46:33 +0000";
layers = (
{
anchors = (
{
name = bottom;
pos = (302,0);
},
{
name = ogonek;
pos = (315,0);
},
{
name = top;
pos = (302,1291);
},
{
name = topleft;
pos = (78,1291);
}
);
layerId = "B5195C1E-69AB-4BC6-9855-DF55601A0735";
shapes = (
{
closed = 1;
nodes = (
(315,46,o),
(315,472,o),
(315,583,cs),
(315,755,o),
(309,1043,o),
(303,1320,c),
(280,1320,o),
(242,1319,o),
(229,1317,c),
(227,1049,o),
(227,815,o),
(227,649,cs),
(227,463,o),
(230,165,o),
(235,4,c),
(247,2,o),
(303,0,o),
(315,0,c)
);
}
);
width = 550;
},
{
anchors = (
{
name = bottom;
pos = (296,0);
},
{
name = ogonek;
pos = (471,-24);
},
{
name = top;
pos = (296,1291);
},
{
name = topleft;
pos = (41,1291);
}
);
layerId = "B5042207-EFBA-41B6-8DFD-104A953B46A6";
shapes = (
{
closed = 1;
nodes = (
(492,94,o),
(498,312,o),
(498,548,cs),
(498,823,o),
(489,1128,o),
(478,1323,c),
(380,1323,o),
(156,1317,o),
(101,1315,c),
(94,1057,o),
(90,808,o),
(90,580,cs),
(90,363,o),
(95,111,o),
(99,-8,c),
(210,-23,o),
(370,-24,o),
(471,-24,c)
);
}
);
width = 588;
}
);
unicode = 73;
},
{
glyphname = I.ss01;
kernLeft = H;
kernRight = H;
lastChange = "2020-07-16 19:56:45 +0000";
layers = (
{
anchors = (
{
name = bottom;
pos = (420,0);
},
{
name = ogonek;
pos = (479,10);
},
{
name = top;
pos = (418,1321);
},
{
name = topleft;
pos = (20,1291);
}
);
layerId = "B5042207-EFBA-41B6-8DFD-104A953B46A6";
shapes = (
{
closed = 1;
nodes = (
(568,-17,o),
(694,-16,o),
(744,-14,c),
(757,57,o),
(760,143,o),
(760,207,cs),
(760,256,o),
(758,293,o),
(757,303,c),
(715,303,o),
(664,302,o),
(605,299,c),
(612,357,o),
(624,557,o),
(624,706,cs),
(624,796,o),
(624,993,o),
(624,1014,c),
(655,1012,o),
(713,1010,o),
(752,1010,c),
(772,1093,o),
(773,1214,o),
(773,1277,c),
(654,1291,o),
(487,1308,o),
(349,1308,cs),
(277,1308,o),
(144,1306,o),
(67,1304,c),
(68,1296,o),
(68,1276,o),
(68,1247,cs),
(68,1190,o),
(68,1101,o),
(68,1015,c),
(148,1015,o),
(175,1015,o),
(215,1017,c),
(215,798,o),
(218,480,o),
(223,297,c),
(165,297,o),
(137,299,o),
(91,304,c),
(85,243,o),
(83,191,o),
(83,123,cs),
(83,78,o),
(84,36,o),
(86,2,c),
(274,-14,o),
(369,-17,o),
(465,-17,cs)
);
}
);
width = 839;
},
{
anchors = (
{
name = bottom;
pos = (420,0);
},
{
name = ogonek;
pos = (440,6);
},
{
name = top;
pos = (420,1301);
},
{
name = topleft;
pos = (20,1291);
}
);
layerId = "B5195C1E-69AB-4BC6-9855-DF55601A0735";
shapes = (
{
closed = 1;
nodes = (
(554,-10,o),
(646,-9,o),
(696,-7,c),
(697,-3,o),
(700,13,o),
(703,29,cs),
(706,45,o),
(708,61,o),
(708,67,c),
(607,67,o),
(528,67,o),
(444,65,c),
(446,114,o),
(446,197,o),
(446,296,cs),
(446,505,o),
(440,1050,o),
(438,1226,c),
(501,1224,o),
(674,1217,o),
(730,1209,c),
(730,1227,o),
(725,1265,o),
(721,1279,c),
(655,1289,o),
(456,1301,o),
(275,1301,cs),
(203,1301,o),
(137,1301,o),
(60,1299,c),
(58,1295,o),
(56,1284,o),
(56,1269,cs),
(56,1256,o),
(58,1239,o),
(62,1221,c),
(89,1224,o),
(256,1224,o),
(356,1224,c),
(362,993,o),
(368,282,o),
(368,67,c),
(303,68,o),
(138,71,o),
(92,74,c),
(92,67,o),
(92,55,o),
(92,42,cs),
(92,27,o),
(92,9,o),
(92,5,c),
(280,-8,o),
(356,-10,o),
(451,-10,cs)
);
}
);
width = 839;
}
);
},
{
glyphname = Iogonek;
lastChange = "2020-07-21 16:10:02 +0000";
layers = (
{
layerId = "B5195C1E-69AB-4BC6-9855-DF55601A0735";
shapes = (
{
closed = 1;
nodes = (
(363,-403,o),
(314,-423,o),
(220,-423,cs),
(130,-423,o),
(73,-392,o),
(73,-290,cs),
(73,-177,o),
(203,-43,o),
(315,0,c),
(250,45,l),
(111,-14,o),
(-13,-154,o),
(-13,-297,cs),
(-13,-426,o),
(67,-503,o),
(204,-503,cs),
(308,-503,o),
(380,-481,o),
(436,-457,c),
(436,-370,l)
);
},
{
ref = I;
}
);
width = 550;
},
{
layerId = "B5042207-EFBA-41B6-8DFD-104A953B46A6";
shapes = (
{
closed = 1;
nodes = (
(486,-306,o),
(441,-315,o),
(398,-315,cs),
(345,-315,o),
(291,-291,o),
(291,-219,cs),
(291,-139,o),
(366,-55,o),
(411,-24,c),
(275,34,l),
(210,15,o),
(28,-136,o),
(28,-308,cs),
(28,-475,o),
(172,-560,o),
(330,-560,cs),
(434,-560,o),
(496,-547,o),
(525,-535,c),
(525,-278,l)
);
},
{
ref = I;
}
);
width = 588;
}
);
unicode = 302;
},
{
glyphname = Iogonek.ss01;
lastChange = "2020-07-21 16:02:02 +0000";
layers = (
{
layerId = "B5195C1E-69AB-4BC6-9855-DF55601A0735";
shapes = (
{
closed = 1;
nodes = (
(605,-397,o),
(556,-417,o),
(462,-417,cs),
(372,-417,o),
(315,-386,o),
(315,-284,cs),
(315,-171,o),
(445,-37,o),
(557,6,c),
(492,51,l),
(353,-8,o),
(229,-148,o),
(229,-291,cs),
(229,-420,o),
(309,-497,o),
(446,-497,cs),
(550,-497,o),
(622,-475,o),
(678,-451,c),
(678,-364,l)
);
},
{
ref = I.ss01;
}
);
width = 839;
},
{
layerId = "B5042207-EFBA-41B6-8DFD-104A953B46A6";
shapes = (
{
closed = 1;
nodes = (
(682,-272,o),
(637,-281,o),
(594,-281,cs),
(541,-281,o),
(487,-257,o),
(487,-185,cs),
(487,-105,o),
(562,-21,o),
(607,10,c),
(471,68,l),
(406,49,o),
(224,-102,o),
(224,-274,cs),
(224,-441,o),
(368,-526,o),
(526,-526,cs),
(630,-526,o),
(692,-513,o),
(721,-501,c),
(721,-244,l)
);
},
{
ref = I.ss01;
}
);
width = 839;
}
);
},
{
glyphname = J;
kernLeft = J;
kernRight = J;
lastChange = "2020-07-24 10:04:56 +0000";
layers = (
{
anchors = (
{
name = bottom;
pos = (589,0);
},
{
name = top;
pos = (798,1291);
}
);
layerId = "B5042207-EFBA-41B6-8DFD-104A953B46A6";
shapes = (
{
closed = 1;
nodes = (
(254,-19,o),
(537,-19,cs),
(855,-19,o),
(1068,114,o),
(1068,614,cs),
(1068,779,o),
(1053,1100,o),
(1038,1277,c),
(977,1285,o),
(922,1287,o),
(848,1287,cs),
(779,1287,o),
(691,1278,o),
(626,1265,c),
(629,1243,o),
(660,860,o),
(660,653,cs),
(660,443,o),
(638,364,o),
(559,364,cs),
(492,364,o),
(405,450,o),
(371,581,c),
(282,548,o),
(58,443,o),
(2,400,c),
(45,128,o)
);
}
);
width = 1178;
},
{
anchors = (
{
name = bottom;
pos = (589,0);
},
{
name = top;
pos = (828,1318);
}
);
layerId = "B5195C1E-69AB-4BC6-9855-DF55601A0735";
shapes = (
{
closed = 1;
nodes = (
(262,-19,o),
(520,-19,cs),
(817,-19,o),
(942,247,o),
(942,585,cs),
(942,790,o),
(910,1140,o),
(894,1315,c),
(886,1316,o),
(865,1318,o),
(847,1318,cs),
(828,1318,o),
(809,1316,o),
(798,1313,c),
(802,1291,o),
(856,762,o),
(856,556,cs),
(856,277,o),
(759,63,o),
(528,63,cs),
(296,63,o),
(183,253,o),
(135,448,c),
(106,436,o),
(71,419,o),
(48,405,c),
(125,176,o)
);
}
);
width = 1178;
}
);
unicode = 74;
},
{
glyphname = K;
kernLeft = H;
kernRight = K;
lastChange = "2020-06-18 14:23:57 +0000";
layers = (
{
anchors = (
{
name = bottom;
pos = (558,0);
},
{
name = top;
pos = (558,1291);
}
);
layerId = "B5042207-EFBA-41B6-8DFD-104A953B46A6";
shapes = (
{
closed = 1;
nodes = (
(247,-12,o),
(447,8,o),
(491,10,c),
(491,56,o),
(474,272,o),
(463,409,c),
(482,419,o),
(494,426,o),
(516,443,c),
(571,355,o),
(706,102,o),
(750,-5,c),
(863,31,o),
(1039,121,o),
(1101,162,c),
(1072,236,o),
(911,497,o),
(757,684,c),
(874,797,o),
(1035,1043,o),
(1060,1118,c),
(1006,1146,o),
(863,1225,o),
(730,1326,c),
(621,1097,o),
(520,892,o),
(438,809,c),
(430,962,o),
(425,1226,o),
(424,1297,c),
(385,1304,o),
(311,1311,o),
(231,1311,cs),
(167,1311,o),
(84,1306,o),
(26,1296,c),
(46,937,o),
(76,240,o),
(76,-32,c)
);
}
);
width = 1115;
},
{
anchors = (
{
name = bottom;
pos = (558,0);
},
{
name = top;
pos = (558,1291);
}
);
layerId = "B5195C1E-69AB-4BC6-9855-DF55601A0735";
shapes = (
{
closed = 1;
nodes = (
(248,-32,o),
(289,-27,o),
(308,-24,c),
(308,-3,o),
(294,381,o),
(280,621,c),
(299,631,o),
(344,663,o),
(366,680,c),
(618,426,o),
(850,19,o),
(858,2,c),
(877,10,o),
(919,32,o),
(938,48,c),
(899,121,o),
(630,537,o),
(432,723,c),
(724,937,o),
(905,1150,o),
(961,1224,c),
(946,1231,o),
(915,1257,o),
(899,1272,c),
(753,1047,o),
(444,823,o),
(274,708,c),
(260,952,o),
(239,1239,o),
(232,1297,c),
(225,1299,o),
(211,1300,o),
(197,1300,cs),
(180,1300,o),
(162,1299,o),
(154,1296,c),
(180,897,o),
(219,69,o),
(219,-32,c)
);
}
);
width = 1061;
}
);
unicode = 75;
},
{
glyphname = L;
kernLeft = H;
kernRight = L;
lastChange = "2020-07-21 16:19:20 +0000";
layers = (
{
anchors = (
{
name = bottom;
pos = (511,0);
},
{
name = center;
pos = (511,646);
},
{
name = top;
pos = (285,1302);
},
{
name = topright;
pos = (563,920);
}
);
layerId = "B5042207-EFBA-41B6-8DFD-104A953B46A6";
shapes = (
{
closed = 1;
nodes = (
(146,20,o),
(269,13,o),
(396,13,cs),
(559,13,o),
(747,24,o),
(914,48,c),
(914,166,o),
(905,379,o),
(893,439,c),
(746,439,o),
(630,436,o),
(461,426,c),
(467,480,o),
(474,553,o),
(478,617,cs),
(497,921,o),
(509,1189,o),
(509,1292,c),
(483,1297,o),
(399,1300,o),
(348,1300,cs),
(232,1300,o),
(112,1289,o),
(63,1282,c),
(70,1140,o),
(79,882,o),
(79,633,cs),
(79,383,o),
(70,141,o),
(63,31,c)
);
}
);
width = 961;
},
{
anchors = (
{
name = bottom;
pos = (491,0);
},
{
name = center;
pos = (491,646);
},
{
name = top;
pos = (248,1296);
},
{
name = topright;
pos = (533,889);
}
);
layerId = "B5195C1E-69AB-4BC6-9855-DF55601A0735";
shapes = (
{
closed = 1;
nodes = (
(313,2,o),
(407,4,o),
(512,9,cs),
(610,14,o),
(717,20,o),
(856,31,c),
(860,51,o),
(863,79,o),
(865,106,c),
(677,106,o),
(417,92,o),
(297,85,c),
(299,130,o),
(300,225,o),
(300,347,cs),
(300,628,o),
(294,1049,o),
(278,1292,c),
(271,1293,o),
(248,1296,o),
(228,1296,cs),
(220,1296,o),
(208,1295,o),
(201,1294,c),
(206,1152,o),
(208,884,o),
(208,624,cs),
(208,364,o),
(206,112,o),
(201,2,c)
);
}
);
width = 961;
}
);
unicode = 76;
},
{
glyphname = Lslash;
kernLeft = H;
kernRight = L;
lastChange = "2020-07-16 19:53:23 +0000";
layers = (
{
layerId = "B5042207-EFBA-41B6-8DFD-104A953B46A6";
shapes = (
{
closed = 1;
nodes = (
(266,460,o),
(539,568,o),
(933,828,c),
(925,875,o),
(870,1044,o),
(839,1116,c),
(660,1023,o),
(196,782,o),
(-17,688,c),
(-9,619,o),
(26,456,o),
(41,409,c)
);
},
{
alignment = -1;
pos = (161,0);
ref = L;
}
);
width = 1121;
},
{
layerId = "B5195C1E-69AB-4BC6-9855-DF55601A0735";
shapes = (
{
closed = 1;
nodes = (
(374,485,o),
(622,702,o),
(819,880,c),
(816,897,o),
(777,937,o),
(763,951,c),
(617,800,o),
(373,583,o),
(134,437,c),
(139,426,o),
(175,386,o),
(187,374,c)
);
},
{
alignment = -1;
pos = (161,0);
ref = L;
}
);
width = 1121;
}
);
unicode = 321;
},
{
glyphname = M;
kernLeft = M;
kernRight = M;
lastChange = "2023-07-10 13:00:08 +0000";
layers = (
{
anchors = (
{
name = bottom;
pos = (747,0);
},
{
name = top;
pos = (747,1291);
}
);
layerId = "B5042207-EFBA-41B6-8DFD-104A953B46A6";
shapes = (
{
closed = 1;
nodes = (
(211,7,o),
(381,9,o),
(470,12,c),
(470,32,o),
(467,399,o),
(464,707,c),
(502,552,o),
(592,147,o),
(607,70,c),
(662,59,o),
(761,56,o),
(848,56,c),
(882,136,o),
(1011,475,o),
(1048,606,c),
(1044,555,o),
(1038,443,o),
(1033,329,cs),
(1028,205,o),
(1021,80,o),
(1017,24,c),
(1089,19,o),
(1260,9,o),
(1382,9,c),
(1396,178,o),
(1412,466,o),
(1412,725,cs),
(1412,926,o),
(1402,1114,o),
(1375,1231,c),
(1262,1250,o),
(1045,1255,o),
(942,1255,c),
(921,1153,o),
(822,780,o),
(768,600,c),
(721,795,o),
(607,1245,o),
(600,1262,c),
(587,1262,o),
(267,1260,o),
(108,1244,c),
(85,811,o),
(82,222,o),
(82,7,c)
);
}
);
width = 1492;
},
{
anchors = (
{
name = bottom;
pos = (721,0);
},
{
name = top;
pos = (721,1291);
}
);
layerId = "B5195C1E-69AB-4BC6-9855-DF55601A0735";
shapes = (
{
closed = 1;
nodes = (
(204,-22,o),
(246,-19,o),
(267,-17,c),
(267,87,o),
(270,807,o),
(272,1156,c),
(340,954,o),
(628,28,o),
(633,11,c),
(660,6,o),
(695,6,o),
(728,6,c),
(776,87,o),
(1060,916,o),
(1118,1145,c),
(1121,1049,o),
(1126,786,o),
(1126,593,cs),
(1126,384,o),
(1121,174,o),
(1104,-5,c),
(1130,-8,o),
(1168,-10,o),
(1195,-10,c),
(1205,109,o),
(1206,393,o),
(1206,640,cs),
(1206,887,o),
(1199,1129,o),
(1173,1260,c),
(1156,1262,o),
(1096,1267,o),
(1068,1267,c),
(1023,1067,o),
(756,282,o),
(685,76,c),
(648,279,o),
(326,1245,o),
(320,1262,c),
(306,1262,o),
(235,1261,o),
(198,1256,c),
(193,1121,o),
(173,368,o),
(173,-22,c)
);
}
);
width = 1379;
}
);
unicode = 77;
},
{
glyphname = M.ss02;
kernLeft = M;
kernRight = M;
lastChange = "2023-07-07 13:29:36 +0000";
layers = (
{
anchors = (
{
name = bottom;
pos = (747,0);
},
{
name = top;
pos = (747,1291);
}
);
layerId = "B5042207-EFBA-41B6-8DFD-104A953B46A6";
shapes = (
{
closed = 1;
nodes = (
(120,21,o),
(421,-11,o),
(470,-8,c),
(470,12,o),
(487,319,o),
(514,627,c),
(552,591,o),
(711,336,o),
(746,274,c),
(786,344,o),
(897,522,o),
(955,591,c),
(968,498,o),
(1017,78,o),
(1017,-6,c),
(1089,-11,o),
(1318,10,o),
(1412,34,c),
(1371,666,o),
(1190,1238,o),
(1127,1334,c),
(1044,1266,o),
(855,993,o),
(782,870,c),
(711,1000,o),
(475,1283,o),
(366,1351,c),
(298,1240,o),
(136,687,o),
(62,37,c)
);
}
);
width = 1492;
},
{
anchors = (
{
name = bottom;
pos = (721,0);
},
{
name = top;
pos = (721,1291);
}
);
layerId = "B5195C1E-69AB-4BC6-9855-DF55601A0735";
shapes = (
{
closed = 1;
nodes = (
(161,-19,o),
(206,-19,o),
(227,-17,c),
(237,452,o),
(305,915,o),
(318,1060,c),
(406,898,o),
(628,338,o),
(679,241,c),
(718,319,o),
(1025,974,o),
(1079,1083,c),
(1111,828,o),
(1141,471,o),
(1164,-5,c),
(1190,-3,o),
(1228,3,o),
(1255,10,c),
(1239,575,o),
(1179,1191,o),
(1123,1342,c),
(1013,1180,o),
(744,606,o),
(683,420,c),
(629,575,o),
(359,1252,o),
(286,1342,c),
(253,1267,o),
(133,378,o),
(133,-12,c)
);
}
);
width = 1379;
}
);
},
{
glyphname = N;
kernLeft = H;
kernRight = H;
lastChange = "2020-06-10 19:41:00 +0000";
layers = (
{
anchors = (
{
name = bottom;
pos = (641,0);
},
{
name = top;
pos = (641,1291);
}
);
layerId = "B5042207-EFBA-41B6-8DFD-104A953B46A6";
shapes = (
{
closed = 1;
nodes = (
(513,121,o),
(502,513,o),
(488,617,c),
(639,340,o),
(782,60,o),
(805,14,c),
(855,5,o),
(936,2,o),
(1016,2,cs),
(1069,2,o),
(1121,3,o),
(1164,5,c),
(1184,63,o),
(1203,418,o),
(1203,746,cs),
(1203,926,o),
(1197,1097,o),
(1183,1207,c),
(1119,1226,o),
(896,1243,o),
(805,1243,c),
(843,572,l),
(743,822,o),
(638,1016,o),
(481,1236,c),
(370,1253,o),
(142,1264,o),
(80,1264,c),
(91,1111,o),
(94,825,o),
(94,566,cs),
(94,287,o),
(91,39,o),
(89,21,c),
(164,11,o),
(357,-7,o),
(513,-7,c)
);
}
);
width = 1282;
},
{
anchors = (
{
name = bottom;
pos = (641,0);
},
{
name = top;
pos = (641,1291);
}
);
layerId = "B5195C1E-69AB-4BC6-9855-DF55601A0735";
shapes = (
{
closed = 1;
nodes = (
(299,132,o),
(285,1029,o),
(279,1159,c),
(376,1000,o),
(872,132,o),
(947,-2,c),
(958,-3,o),
(968,-3,o),
(980,-3,cs),
(992,-3,o),
(1006,-3,o),
(1026,-2,c),
(1029,20,o),
(1030,86,o),
(1030,178,cs),
(1030,466,o),
(1018,1010,o),
(1010,1246,c),
(985,1256,o),
(952,1265,o),
(909,1265,c),
(957,147,l),
(811,414,o),
(536,916,o),
(307,1265,c),
(291,1269,o),
(227,1274,o),
(198,1274,c),
(197,1246,o),
(197,1179,o),
(197,1091,cs),
(197,748,o),
(203,74,o),
(207,-9,c),
(232,-9,o),
(282,-7,o),
(299,-5,c)
);
}
);
width = 1282;
}
);
unicode = 78;
},
{
glyphname = N.ss02;
kernLeft = H;
kernRight = H;
lastChange = "2023-07-07 13:34:54 +0000";
layers = (
{
anchors = (
{
name = bottom;
pos = (641,0);
},
{
name = top;
pos = (641,1291);
}
);
layerId = "B5042207-EFBA-41B6-8DFD-104A953B46A6";
shapes = (
{
closed = 1;
nodes = (
(483,121,o),
(484,409,o),
(486,513,c),
(570,423,o),
(1051,62,o),
(1178,-25,c),
(1210,99,o),
(1223,631,o),
(1223,1287,c),
(1134,1287,o),
(916,1251,o),
(825,1233,c),
(843,734,l),
(649,940,o),
(292,1231,o),
(150,1324,c),
(121,1050,o),
(59,172,o),
(59,21,c),
(134,11,o),
(327,-7,o),
(483,-7,c)
);
}
);
width = 1282;
},
{
anchors = (
{
name = bottom;
pos = (641,0);
},
{
name = top;
pos = (641,1291);
}
);
layerId = "B5195C1E-69AB-4BC6-9855-DF55601A0735";
shapes = (
{
closed = 1;
nodes = (
(259,132,o),
(285,912,o),
(285,1079,c),
(386,914,o),
(890,105,o),
(986,-2,c),
(1001,107,o),
(1070,1173,o),
(1070,1286,c),
(1045,1286,o),
(999,1280,o),
(976,1275,c),
(928,217,l),
(803,418,o),
(399,1086,o),
(214,1314,c),
(208,1207,o),
(167,98,o),
(167,-9,c),
(192,-9,o),
(242,-7,o),
(259,-5,c)
);
}
);
width = 1282;
}
);
},
{
glyphname = Eng;
kernLeft = Eng;
kernRight = Eng;
lastChange = "2020-06-18 19:01:55 +0000";
layers = (
{
layerId = "B5042207-EFBA-41B6-8DFD-104A953B46A6";
shapes = (
{
closed = 1;
nodes = (
(1068,-419,o),
(1160,-210,o),
(1177,91,c),
(773,79,l),
(786,52,o),
(799,16,o),
(799,-15,cs),
(799,-57,o),
(772,-83,o),
(733,-83,cs),
(696,-83,o),
(664,-51,o),
(632,0,c),
(499,-74,o),
(318,-181,o),
(304,-191,c),
(386,-341,o),
(525,-419,o),
(750,-419,cs)
);
},
{
alignment = -1;
ref = N;
}
);
width = 1282;
},
{
layerId = "B5195C1E-69AB-4BC6-9855-DF55601A0735";
shapes = (
{
closed = 1;
nodes = (
(872,-349,o),
(1027,-214,o),
(1027,15,c),
(906,75,l),
(922,49,o),
(930,13,o),
(930,-26,cs),
(930,-140,o),
(861,-279,o),
(730,-279,cs),
(614,-279,o),
(545,-212,o),
(511,-152,c),
(491,-162,o),
(468,-179,o),
(455,-190,c),
(520,-320,o),
(626,-349,o),
(730,-349,cs)
);
},
{
alignment = -1;
ref = N;
}
);
width = 1282;
}
);
unicode = 330;
},
{
glyphname = O;
kernLeft = O;
kernRight = O;
lastChange = "2020-06-18 18:46:52 +0000";
layers = (
{
anchors = (
{
name = bottom;
pos = (677,0);
},
{
name = center;
pos = (610,646);
},
{
name = ogonek;
pos = (917,0);
},
{
name = top;
pos = (677,1291);
},
{
name = topleft;
pos = (20,1291);
},
{
name = topright;
pos = (1001,1190);
}
);
layerId = "B5042207-EFBA-41B6-8DFD-104A953B46A6";
shapes = (
{
closed = 1;
nodes = (
(1111,-51,o),
(1295,285,o),
(1295,645,cs),
(1295,1034,o),
(1102,1320,o),
(668,1320,cs),
(277,1320,o),
(41,1032,o),
(41,639,cs),
(41,243,o),
(228,-51,o),
(668,-51,cs)
);
},
{
closed = 1;
nodes = (
(491,350,o),
(437,474,o),
(437,650,cs),
(437,838,o),
(553,995,o),
(692,995,cs),
(872,995,o),
(935,856,o),
(935,690,cs),
(935,516,o),
(837,350,o),
(675,350,cs)
);
}
);
width = 1354;
},
{
anchors = (
{
name = bottom;
pos = (677,0);
},
{
name = center;
pos = (620,646);
},
{
name = ogonek;
pos = (869,0);
},
{
name = top;
pos = (677,1291);
},
{
name = topleft;
pos = (20,1291);
},
{
name = topright;
pos = (993,1173);
}
);
layerId = "B5195C1E-69AB-4BC6-9855-DF55601A0735";
shapes = (
{
closed = 1;
nodes = (
(1012,-51,o),
(1172,242,o),
(1172,601,cs),
(1172,964,o),
(1042,1320,o),
(653,1320,cs),
(296,1320,o),
(137,1032,o),
(137,613,cs),
(137,248,o),
(301,-51,o),
(653,-51,cs)
);
},
{
closed = 1;
nodes = (
(369,27,o),
(225,294,o),
(225,602,cs),
(225,969,o),
(332,1239,o),
(660,1239,cs),
(993,1239,o),
(1090,908,o),
(1090,589,cs),
(1090,284,o),
(972,27,o),
(644,27,cs)
);
}
);
width = 1354;
}
);
unicode = 79;
},
{
glyphname = Ohorn;
kernLeft = O;
kernRight = O;
lastChange = "2020-07-16 19:46:58 +0000";
layers = (
{
anchors = (
{
name = bottom;
pos = (677,0);
},
{
name = top;
pos = (677,1291);
}
);
layerId = "B5195C1E-69AB-4BC6-9855-DF55601A0735";
shapes = (
{
closed = 1;
nodes = (
(1012,-51,o),
(1172,242,o),
(1172,601,cs),
(1172,964,o),
(1042,1320,o),
(653,1320,cs),
(296,1320,o),
(137,1032,o),
(137,613,cs),
(137,248,o),
(301,-51,o),
(653,-51,cs)
);
},
{
closed = 1;
nodes = (
(369,27,o),
(225,294,o),
(225,602,cs),
(225,969,o),
(332,1239,o),
(660,1239,cs),
(993,1239,o),
(1090,908,o),
(1090,589,cs),
(1090,284,o),
(972,27,o),
(644,27,cs)
);
},
{
closed = 1;
nodes = (
(1172,1142,o),
(1254,1256,o),
(1254,1439,c),
(1237,1448,o),
(1191,1455,o),
(1160,1455,c),
(1160,1332,o),
(1135,1206,o),
(953,1204,c),
(962,1142,l)
);
}
);
width = 1354;
},
{
anchors = (
{
name = bottom;
pos = (677,0);
},
{
name = top;
pos = (677,1291);
}
);
layerId = "B5042207-EFBA-41B6-8DFD-104A953B46A6";
shapes = (
{
closed = 1;
nodes = (
(1111,-51,o),
(1295,285,o),
(1295,645,cs),
(1295,1034,o),
(1102,1320,o),
(668,1320,cs),
(277,1320,o),
(41,1032,o),
(41,639,cs),
(41,243,o),
(228,-51,o),
(668,-51,cs)
);
},
{
closed = 1;
nodes = (
(491,350,o),
(437,474,o),
(437,650,cs),
(437,838,o),
(553,995,o),
(692,995,cs),
(872,995,o),
(935,856,o),
(935,690,cs),
(935,516,o),
(837,350,o),
(675,350,cs)
);
},
{
closed = 1;
nodes = (
(1265,1043,o),
(1438,1163,o),
(1438,1412,c),
(1413,1440,o),
(1260,1470,o),
(1141,1470,c),
(1141,1312,o),
(1030,1220,o),
(889,1220,c),
(1083,1043,l)
);
}
);
width = 1354;
}
);
unicode = 416;
},
{
glyphname = Oogonek;
lastChange = "2020-07-21 16:10:12 +0000";
layers = (
{
layerId = "B5195C1E-69AB-4BC6-9855-DF55601A0735";
shapes = (
{
closed = 1;
nodes = (
(1004,-358,o),
(955,-378,o),
(861,-378,cs),
(771,-378,o),
(714,-347,o),
(714,-245,cs),
(714,-132,o),
(854,-8,o),
(956,45,c),
(891,90,l),
(762,21,o),
(628,-109,o),
(628,-252,cs),
(628,-381,o),
(708,-458,o),
(845,-458,cs),
(949,-458,o),
(1021,-436,o),
(1077,-412,c),
(1077,-325,l)
);
},
{
ref = O;
}
);
width = 1354;
},
{
layerId = "B5042207-EFBA-41B6-8DFD-104A953B46A6";
shapes = (
{
closed = 1;
nodes = (
(1095,-233,o),
(1050,-242,o),
(1007,-242,cs),
(954,-242,o),
(900,-218,o),
(900,-146,cs),
(900,-66,o),
(975,18,o),
(1020,49,c),
(884,107,l),
(819,88,o),
(637,-63,o),
(637,-235,cs),
(637,-402,o),
(781,-487,o),
(939,-487,cs),
(1043,-487,o),
(1105,-474,o),
(1134,-462,c),
(1134,-205,l)
);
},
{
ref = O;
}
);
width = 1354;
}
);
unicode = 490;
},
{
glyphname = Oslash;
kernLeft = O;
kernRight = O;
lastChange = "2020-07-03 19:52:39 +0000";
layers = (
{
anchors = (
{
name = bottom;
pos = (677,0);
},
{
name = top;
pos = (608,1349);
}
);
layerId = "B5042207-EFBA-41B6-8DFD-104A953B46A6";
shapes = (
{
closed = 1;
nodes = (
(888,1419,c),
(755,869,o),
(374,328,o),
(93,10,c),
(157,-54,o),
(232,-97,o),
(343,-122,c),
(576,143,o),
(960,631,o),
(1151,1301,c),
(1106,1354,o),
(1013,1408,o)
);
},
{
ref = O;
}
);
width = 1354;
},
{
anchors = (
{
name = bottom;
pos = (677,0);
},
{
name = top;
pos = (653,1320);
}
);
layerId = "B5195C1E-69AB-4BC6-9855-DF55601A0735";
shapes = (
{
closed = 1;
nodes = (
(1004,1327,c),
(795,788,o),
(410,268,o),
(153,-51,c),
(168,-59,o),
(208,-75,o),
(228,-81,c),
(430,148,o),
(821,672,o),
(1089,1291,c),
(1072,1306,o),
(1035,1320,o)
);
},
{
ref = O;
}
);
width = 1354;
}
);
unicode = 216;
},
{
glyphname = OE;
kernLeft = O;
kernRight = E;
lastChange = "2020-07-03 19:51:27 +0000";
layers = (
{
anchors = (
{
name = bottom;
pos = (943,0);
},
{
name = top;
pos = (985,1291);
}
);
layerId = "B5042207-EFBA-41B6-8DFD-104A953B46A6";
shapes = (
{
closed = 1;
nodes = (
(790,-51,o),
(975,13,o),
(1015,71,c),
(986,80,l),
(986,59,o),
(988,28,o),
(990,7,c),
(1047,7,o),
(1215,4,o),
(1316,-2,cs),
(1438,-9,o),
(1560,-17,o),
(1682,-25,c),
(1694,12,o),
(1721,257,o),
(1721,390,c),
(1672,394,o),
(1592,400,o),
(1510,400,cs),
(1447,400,o),
(1384,400,o),
(1321,400,c),
(1321,422,o),
(1324,500,o),
(1326,527,c),
(1361,527,o),
(1602,513,o),
(1646,510,c),
(1653,850,l),
(1566,848,o),
(1414,845,o),
(1335,845,c),
(1335,864,o),
(1335,951,o),
(1338,968,c),
(1711,999,l),
(1721,1113,o),
(1729,1216,o),
(1729,1320,c),
(1676,1320,o),
(1362,1318,o),
(992,1249,c),
(988,1230,o),
(985,1192,o),
(984,1163,c),
(998,1163,l),
(989,1235,o),
(863,1320,o),
(668,1320,cs),
(277,1320,o),
(41,1032,o),
(41,639,cs),
(41,243,o),
(228,-51,o),
(668,-51,cs)
);
},
{
closed = 1;
nodes = (
(491,350,o),
(437,474,o),
(437,650,cs),
(437,838,o),
(553,995,o),
(692,995,cs),
(872,995,o),
(935,856,o),
(935,690,cs),
(935,516,o),
(837,350,o),
(675,350,cs)
);
}
);
width = 1824;
},
{
anchors = (
{
name = bottom;
pos = (1028,0);
},
{
name = top;
pos = (1028,1291);
}
);
layerId = "B5195C1E-69AB-4BC6-9855-DF55601A0735";
shapes = (
{
closed = 1;
nodes = (
(884,-51,o),
(1032,70,o),
(1108,251,c),
(1098,253,l),
(1098,166,o),
(1101,79,o),
(1104,-8,c),
(1167,-6,o),
(1249,-5,o),
(1312,-5,cs),
(1472,-5,o),
(1611,-10,o),
(1768,-19,c),
(1773,-1,o),
(1779,29,o),
(1781,57,c),
(1705,63,o),
(1519,70,o),
(1360,70,cs),
(1307,70,o),
(1220,69,o),
(1180,67,c),
(1180,271,o),
(1180,476,o),
(1180,680,c),
(1266,683,o),
(1685,684,o),
(1735,684,c),
(1727,762,l),
(1635,762,o),
(1255,750,o),
(1182,747,c),
(1182,832,o),
(1185,1099,o),
(1190,1187,c),
(1781,1234,l),
(1784,1261,o),
(1785,1274,o),
(1785,1308,c),
(1730,1308,o),
(1443,1289,o),
(1104,1241,c),
(1101,1202,o),
(1097,1102,o),
(1097,980,c),
(1102,999,l),
(1070,1169,o),
(893,1320,o),
(653,1320,cs),
(296,1320,o),
(137,1032,o),
(137,613,cs),
(137,248,o),
(301,-51,o),
(653,-51,cs)
);
},
{
closed = 1;
nodes = (
(369,27,o),
(225,294,o),
(225,602,cs),
(225,969,o),
(332,1239,o),
(660,1239,cs),
(993,1239,o),
(1090,908,o),
(1090,589,cs),
(1090,284,o),
(972,27,o),
(644,27,cs)
);
}
);
width = 1904;
}
);
metricLeft = O;
metricRight = E;
unicode = 338;
},
{
glyphname = P;
kernLeft = H;
kernRight = P;
lastChange = "2020-07-16 19:50:16 +0000";
layers = (
{
anchors = (
{
name = bottom;
pos = (505,0);
},
{
name = top;
pos = (505,1291);
}
);
layerId = "B5042207-EFBA-41B6-8DFD-104A953B46A6";
shapes = (
{
closed = 1;
nodes = (
(139,-10,o),
(377,-14,o),
(453,-14,c),
(456,75,o),
(465,421,o),
(465,491,c),
(480,482,o),
(538,474,o),
(568,474,cs),
(850,474,o),
(978,656,o),
(978,911,cs),
(978,1179,o),
(785,1292,o),
(511,1292,cs),
(368,1292,o),
(226,1283,o),
(94,1256,c),
(70,1087,o),
(51,25,o),
(51,-4,c)
);
},
{
closed = 1;
nodes = (
(456,849,o),
(452,986,o),
(451,1003,c),
(477,1006,o),
(505,1009,o),
(532,1009,cs),
(604,1009,o),
(649,990,o),
(649,915,cs),
(649,849,o),
(595,804,o),
(521,804,cs),
(501,804,o),
(473,807,o),
(456,811,c)
);
}
);
width = 1010;
},
{
anchors = (
{
name = bottom;
pos = (505,0);
},
{
name = top;
pos = (505,1291);
}
);
layerId = "B5195C1E-69AB-4BC6-9855-DF55601A0735";
shapes = (
{
closed = 1;
nodes = (
(150,-27,o),
(191,-28,o),
(219,-28,c),
(219,282,o),
(230,579,o),
(235,668,c),
(303,660,o),
(371,657,o),
(432,657,cs),
(703,657,o),
(865,743,o),
(865,1000,cs),
(865,1196,o),
(732,1284,o),
(497,1284,cs),
(350,1284,o),
(253,1265,o),
(171,1248,c),
(156,925,o),
(130,360,o),
(130,-26,c)
);
},
{
closed = 1;
nodes = (
(241,785,o),
(253,1168,o),
(253,1193,c),
(358,1207,o),
(440,1213,o),
(506,1213,cs),
(674,1213,o),
(788,1157,o),
(788,988,cs),
(788,778,o),
(616,730,o),
(451,730,cs),
(374,730,o),
(299,738,o),
(239,747,c)
);
}
);
width = 1010;
}
);
unicode = 80;
},
{
glyphname = Thorn;
kernLeft = H;
kernRight = Thorn;
lastChange = "2020-06-17 20:11:47 +0000";
layers = (
{
layerId = "B5042207-EFBA-41B6-8DFD-104A953B46A6";
shapes = (
{
closed = 1;
nodes = (
(217,1282,o),
(68,1265,o),
(48,1262,c),
(66,1017,o),
(79,191,o),
(79,-22,c),
(206,-22,o),
(405,-12,o),
(506,7,c),
(506,234,o),
(444,1046,o),
(409,1282,c)
);
},
{
closed = 1;
nodes = (
(456,755,o),
(556,791,o),
(684,791,cs),
(797,791,o),
(878,763,o),
(878,672,cs),
(878,571,o),
(772,547,o),
(631,547,cs),
(549,547,o),
(468,555,o),
(419,561,c),
(405,209,l),
(479,199,o),
(556,194,o),
(633,194,cs),
(945,194,o),
(1253,299,o),
(1253,632,cs),
(1253,983,o),
(971,1129,o),
(652,1129,cs),
(535,1129,o),
(416,1103,o),
(351,1083,c),
(393,727,l)
);
}
);
width = 1316;
},
{
layerId = "B5195C1E-69AB-4BC6-9855-DF55601A0735";
shapes = (
{
closed = 1;
nodes = (
(225,1282,o),
(195,1280,o),
(174,1277,c),
(195,990,o),
(205,154,o),
(205,-22,c),
(221,-22,o),
(282,-22,o),
(311,-21,c),
(311,232,o),
(273,990,o),
(248,1282,c)
);
},
{
closed = 1;
nodes = (
(350,931,o),
(468,945,o),
(585,945,cs),
(862,945,o),
(1026,867,o),
(1026,674,cs),
(1026,454,o),
(896,361,o),
(562,361,cs),
(462,361,o),
(354,370,o),
(241,385,c),
(227,299,l),
(332,286,o),
(444,278,o),
(553,278,cs),
(906,278,o),
(1118,366,o),
(1118,670,cs),
(1118,946,o),
(896,1029,o),
(638,1029,cs),
(509,1029,o),
(376,1015,o),
(254,995,c),
(254,906,l)
);
}
);
width = 1316;
}
);
unicode = 222;
},
{
glyphname = Q;
kernLeft = O;
kernRight = O;
lastChange = "2020-06-10 19:29:54 +0000";
layers = (
{
anchors = (
{
name = bottom;
pos = (646,0);
},
{
name = top;
pos = (646,1291);
}
);
layerId = "B5042207-EFBA-41B6-8DFD-104A953B46A6";
shapes = (
{
closed = 1;
nodes = (
(1146,-137,o),
(1234,-58,o),
(1283,14,c),
(1213,50,o),
(1125,107,o),
(1074,174,c),
(1222,284,o),
(1244,475,o),
(1244,685,cs),
(1244,1043,o),
(1063,1299,o),
(651,1299,cs),
(273,1299,o),
(21,1020,o),
(21,612,cs),
(21,252,o),
(265,-21,o),
(613,-21,cs),
(703,-21,o),
(788,8,o),
(821,29,c),
(850,-18,o),
(1009,-158,o),
(1074,-187,c)
);
},
{
closed = 1;
nodes = (
(649,326,o),
(638,323,o),
(610,323,cs),
(460,323,o),
(394,523,o),
(394,680,cs),
(394,866,o),
(493,986,o),
(667,986,cs),
(835,986,o),
(905,859,o),
(905,644,cs),
(905,517,o),
(896,454,o),
(883,433,c),
(854,475,o),
(825,548,o),
(808,598,c),
(738,558,o),
(629,489,o),
(585,454,c),
(595,419,o),
(640,342,o),
(653,328,c)
);
}
);
width = 1291;
},
{
anchors = (
{
name = bottom;
pos = (646,0);
},
{
name = top;
pos = (646,1291);
}
);
layerId = "B5195C1E-69AB-4BC6-9855-DF55601A0735";
shapes = (
{
closed = 1;
nodes = (
(1134,-5,o),
(1146,37,o),
(1153,63,c),
(1072,83,o),
(991,122,o),
(936,169,c),
(1018,269,o),
(1074,430,o),
(1074,608,cs),
(1074,1012,o),
(921,1299,o),
(574,1299,cs),
(262,1299,o),
(130,986,o),
(130,654,cs),
(130,320,o),
(260,8,o),
(585,8,cs),
(770,8,o),
(851,84,o),
(876,113,c),
(914,82,o),
(1064,-11,o),
(1121,-31,c)
);
},
{
closed = 1;
nodes = (
(796,135,o),
(731,80,o),
(603,80,cs),
(315,80,o),
(220,332,o),
(220,647,cs),
(220,961,o),
(335,1226,o),
(576,1226,cs),
(868,1226,o),
(991,951,o),
(991,617,cs),
(991,454,o),
(944,311,o),
(872,208,c),
(779,292,o),
(700,430,o),
(656,518,c),
(643,509,o),
(607,477,o),
(596,465,c),
(649,363,o),
(740,227,o),
(818,160,c)
);
}
);
width = 1291;
}
);
unicode = 81;
},
{
glyphname = Q.ss01;
kernLeft = Q.ss01;
kernRight = Q.ss01;
lastChange = "2020-06-17 20:14:50 +0000";
layers = (
{
anchors = (
{
name = bottom;
pos = (646,0);
},
{
name = top;
pos = (646,1291);
}
);
layerId = "B5042207-EFBA-41B6-8DFD-104A953B46A6";
shapes = (
{
closed = 1;
nodes = (
(1243,-202,o),
(1308,-16,o),
(1311,11,c),
(1284,13,o),
(1169,74,o),
(1109,173,c),
(1207,251,o),
(1240,436,o),
(1240,623,cs),
(1240,1041,o),
(1047,1282,o),
(619,1282,cs),
(228,1282,o),
(24,1018,o),
(24,607,cs),
(24,190,o),
(254,-26,o),
(682,-26,cs),
(732,-26,o),
(770,-18,o),
(801,-7,c),
(819,-101,o),
(949,-279,o),
(1130,-335,c)
);
},
{
closed = 1;
nodes = (
(459,338,o),
(380,448,o),
(380,616,cs),
(380,825,o),
(455,969,o),
(668,969,cs),
(853,969,o),
(903,841,o),
(903,652,cs),
(903,441,o),
(832,338,o),
(615,338,cs)
);
}
);
width = 1291;
},
{
anchors = (
{
name = bottom;
pos = (646,0);
},
{
name = top;
pos = (646,1291);
}
);
layerId = "B5195C1E-69AB-4BC6-9855-DF55601A0735";
shapes = (
{
closed = 1;
nodes = (
(1095,-160,o),
(1145,-110,o),
(1161,-89,c),
(1041,-38,o),
(926,120,o),
(913,144,c),
(1007,240,o),
(1064,418,o),
(1064,634,cs),
(1064,1002,o),
(898,1299,o),
(574,1299,cs),
(270,1299,o),
(118,978,o),
(118,644,cs),
(118,313,o),
(276,-10,o),
(578,-10,cs),
(680,-10,o),
(783,16,o),
(855,90,c),
(909,-20,o),
(1010,-118,o),
(1084,-169,c)
);
},
{
closed = 1;
nodes = (
(348,74,o),
(206,346,o),
(206,625,cs),
(206,938,o),
(320,1210,o),
(576,1210,cs),
(908,1210,o),
(979,843,o),
(979,650,cs),
(979,369,o),
(851,74,o),
(603,74,cs)
);
}
);
width = 1291;
}
);
},
{
glyphname = R;
kernLeft = H;
kernRight = R;
lastChange = "2020-06-17 15:01:48 +0000";
layers = (
{
anchors = (
{
name = bottom;
pos = (547,0);
},
{
name = top;
pos = (504,1331);
}
);
layerId = "B5042207-EFBA-41B6-8DFD-104A953B46A6";
shapes = (
{
closed = 1;
nodes = (
(234,-24,o),
(410,-20,o),
(510,2,c),
(510,130,o),
(485,469,o),
(472,561,c),
(499,562,o),
(510,564,o),
(537,569,c),
(568,478,o),
(675,77,o),
(696,-21,c),
(716,-19,o),
(986,30,o),
(1084,89,c),
(1049,194,o),
(927,504,o),
(850,653,c),
(955,710,o),
(1038,846,o),
(1038,984,cs),
(1038,1271,o),
(784,1331,o),
(574,1331,cs),
(424,1331,o),
(145,1313,o),
(34,1303,c),
(52,899,o),
(84,277,o),
(101,-24,c)
);
},
{
closed = 1;
nodes = (
(433,903,o),
(425,981,o),
(418,1038,c),
(440,1041,o),
(487,1047,o),
(530,1047,cs),
(634,1047,o),
(692,1043,o),
(692,972,cs),
(692,907,o),
(636,875,o),
(548,863,cs),
(497,856,o),
(466,855,o),
(436,855,c)
);
}
);
width = 1094;
},
{
anchors = (
{
name = bottom;
pos = (547,0);
},
{
name = top;
pos = (489,1317);
}
);
layerId = "B5195C1E-69AB-4BC6-9855-DF55601A0735";
shapes = (
{
closed = 1;
nodes = (
(251,-29,o),
(301,-27,o),
(321,-24,c),
(306,149,o),
(279,586,o),
(277,622,c),
(323,622,o),
(486,638,o),
(592,668,c),
(645,567,o),
(793,228,o),
(835,-15,c),
(855,-14,o),
(897,7,o),
(916,22,c),
(884,176,o),
(738,582,o),
(661,695,c),
(811,746,o),
(866,872,o),
(866,1009,cs),
(866,1264,o),
(693,1321,o),
(500,1321,cs),
(385,1321,o),
(238,1311,o),
(152,1303,c),
(177,882,o),
(206,266,o),
(219,-29,c)
);
},
{
closed = 1;
nodes = (
(270,748,o),
(236,1178,o),
(232,1236,c),
(260,1239,o),
(446,1253,o),
(489,1253,cs),
(638,1253,o),
(785,1227,o),
(785,1008,cs),
(785,868,o),
(755,783,o),
(504,725,cs),
(417,705,o),
(349,700,o),
(274,700,c)
);
}
);
width = 1094;
}
);
unicode = 82;
},
{
glyphname = S;
kernLeft = S;
kernRight = S;
lastChange = "2020-06-17 15:02:38 +0000";
layers = (
{
anchors = (
{
name = bottom;
pos = (576,0);
},
{
name = top;
pos = (530,1339);
}
);
layerId = "B5042207-EFBA-41B6-8DFD-104A953B46A6";
shapes = (
{
closed = 1;
nodes = (
(846,-18,o),
(1075,150,o),
(1075,427,cs),
(1075,702,o),
(843,790,o),
(562,891,cs),
(477,921,o),
(452,954,o),
(452,990,cs),
(452,1039,o),
(505,1056,o),
(559,1056,cs),
(621,1056,o),
(725,1017,o),
(821,928,c),
(884,984,o),
(1006,1108,o),
(1042,1161,c),
(904,1313,o),
(724,1349,o),
(555,1349,cs),
(297,1349,o),
(62,1216,o),
(62,971,cs),
(62,743,o),
(269,650,o),
(511,547,cs),
(653,487,o),
(682,428,o),
(682,385,cs),
(682,334,o),
(658,287,o),
(583,287,cs),
(475,287,o),
(388,347,o),
(282,460,c),
(212,426,o),
(36,271,o),
(19,240,c),
(150,31,o),
(389,-18,o),
(556,-18,cs)
);
}
);
width = 1152;
},
{
anchors = (
{
name = bottom;
pos = (576,0);
},
{
name = top;
pos = (518,1319);
}
);
layerId = "B5195C1E-69AB-4BC6-9855-DF55601A0735";
shapes = (
{
closed = 1;
nodes = (
(871,-9,o),
(1014,212,o),
(1014,393,cs),
(1014,649,o),
(758,720,o),
(504,788,cs),
(381,821,o),
(198,873,o),
(198,1034,cs),
(198,1177,o),
(304,1275,o),
(485,1275,cs),
(738,1275,o),
(874,1145,o),
(904,1103,c),
(915,1113,o),
(938,1154,o),
(944,1171,c),
(921,1215,o),
(738,1349,o),
(506,1349,cs),
(293,1349,o),
(116,1257,o),
(116,1060,cs),
(116,858,o),
(255,769,o),
(487,711,cs),
(698,658,o),
(930,581,o),
(930,392,cs),
(930,248,o),
(822,72,o),
(560,72,cs),
(300,72,o),
(136,311,o),
(108,376,c),
(89,362,o),
(56,335,o),
(39,318,c),
(79,227,o),
(274,-9,o),
(573,-9,cs)
);
}
);
width = 1152;
}
);
unicode = 83;
},
{
glyphname = Scedilla;
lastChange = "2020-07-08 20:01:26 +0000";
layers = (
{
layerId = "B5195C1E-69AB-4BC6-9855-DF55601A0735";
shapes = (
{
closed = 1;
nodes = (
(792,-462,o),
(905,-396,o),
(905,-255,cs),
(905,-144,o),
(830,-87,o),
(725,-87,cs),
(677,-87,o),
(614,-106,o),
(597,-119,c),
(618,39,l),
(546,43,l),
(510,-212,l),
(551,-194,o),
(649,-159,o),
(707,-159,cs),
(789,-159,o),
(816,-198,o),
(816,-267,cs),
(816,-359,o),
(725,-392,o),
(577,-392,cs),
(526,-392,o),
(450,-374,o),
(411,-364,c),
(393,-437,l),
(413,-444,o),
(478,-462,o),
(582,-462,cs)
);
},
{
ref = S;
}
);
width = 1152;
},
{
layerId = "B5042207-EFBA-41B6-8DFD-104A953B46A6";
shapes = (
{
closed = 1;
nodes = (
(777,-527,o),
(995,-443,o),
(995,-258,cs),
(995,-125,o),
(920,-67,o),
(814,-67,cs),
(744,-67,o),
(688,-95,o),
(664,-129,c),
(698,39,l),
(479,27,l),
(413,-247,l),
(448,-234,o),
(531,-219,o),
(608,-219,cs),
(675,-219,o),
(729,-230,o),
(729,-266,cs),
(729,-306,o),
(664,-327,o),
(546,-327,cs),
(513,-327,o),
(429,-315,o),
(400,-302,c),
(336,-505,l),
(356,-510,o),
(438,-527,o),
(543,-527,cs)
);
},
{
ref = S;
}
);
width = 1152;
}
);
unicode = 350;
},
{
glyphname = Germandbls;
kernLeft = H;
kernRight = B;
lastChange = "2020-06-17 20:15:13 +0000";
layers = (
{
layerId = "B5195C1E-69AB-4BC6-9855-DF55601A0735";
shapes = (
{
closed = 1;
nodes = (
(210,2,o),
(256,7,o),
(267,9,c),
(260,103,o),
(250,672,o),
(250,933,cs),
(250,1138,o),
(253,1260,o),
(449,1260,cs),
(612,1260,o),
(896,1239,o),
(957,1229,c),
(874,1165,o),
(583,937,o),
(474,817,c),
(474,778,o),
(487,740,o),
(509,701,c),
(572,714,o),
(628,721,o),
(677,721,cs),
(862,721,o),
(1003,611,o),
(1003,385,cs),
(1003,149,o),
(819,50,o),
(689,50,cs),
(593,50,o),
(509,85,o),
(453,145,c),
(431,126,o),
(403,101,o),
(390,80,c),
(436,27,o),
(578,-17,o),
(679,-17,cs),
(923,-17,o),
(1091,148,o),
(1091,403,cs),
(1091,627,o),
(938,797,o),
(711,797,cs),
(653,797,o),
(595,790,o),
(554,785,c),
(612,851,o),
(1006,1185,o),
(1043,1215,c),
(1043,1238,o),
(1040,1267,o),
(1031,1289,c),
(926,1313,o),
(585,1332,o),
(463,1332,cs),
(323,1332,o),
(174,1308,o),
(174,1046,cs),
(174,792,o),
(175,208,o),
(190,2,c)
);
}
);
width = 1197;
},
{
layerId = "B5042207-EFBA-41B6-8DFD-104A953B46A6";
shapes = (
{
closed = 1;
nodes = (
(125,-9,o),
(309,1,o),
(386,9,c),
(376,137,o),
(376,637,o),
(376,850,cs),
(376,1022,o),
(431,1075,o),
(540,1075,cs),
(602,1075,o),
(641,1070,o),
(685,1060,c),
(603,1006,o),
(498,916,o),
(426,838,c),
(426,798,o),
(504,563,o),
(526,524,c),
(580,548,o),
(691,571,o),
(742,571,cs),
(812,571,o),
(858,549,o),
(858,434,cs),
(858,342,o),
(814,260,o),
(706,260,cs),
(610,260,o),
(576,292,o),
(538,335,c),
(516,316,o),
(403,133,o),
(390,109,c),
(463,19,o),
(595,-17,o),
(696,-17,cs),
(940,-17,o),
(1186,96,o),
(1186,424,cs),
(1186,697,o),
(1068,800,o),
(911,800,cs),
(853,800,o),
(783,789,o),
(742,762,c),
(800,791,o),
(1138,1038,o),
(1150,1055,c),
(1150,1077,o),
(1144,1267,o),
(1133,1289,c),
(1080,1299,o),
(602,1332,o),
(480,1332,cs),
(36,1332,o),
(17,1061,o),
(17,610,cs),
(17,349,o),
(27,136,o),
(50,-9,c)
);
}
);
width = 1197;
}
);
unicode = 7838;
},
{
glyphname = T;
kernLeft = T;
kernRight = T;
lastChange = "2023-07-07 16:06:53 +0000";
layers = (
{
anchors = (
{
name = bottom;
pos = (548,0);
},
{
name = center;
pos = (520,646);
},
{
name = top;
pos = (520,1291);
}
);
layerId = "B5042207-EFBA-41B6-8DFD-104A953B46A6";
shapes = (
{
closed = 1;
nodes = (
(157,968,o),
(248,971,o),
(332,978,c),
(331,933,o),
(330,877,o),
(330,814,cs),
(330,554,o),
(339,179,o),
(349,-14,c),
(448,-14,o),
(664,-2,o),
(766,14,c),
(764,42,o),
(721,814,o),
(713,986,c),
(780,983,o),
(912,983,o),
(959,983,c),
(974,1039,o),
(986,1167,o),
(986,1308,c),
(868,1325,o),
(721,1331,o),
(572,1331,cs),
(379,1331,o),
(182,1321,o),
(34,1309,c),
(34,1272,o),
(43,1038,o),
(58,968,c)
);
}
);
width = 1039;
},
{
anchors = (
{
name = bottom;
pos = (550,0);
},
{
name = center;
pos = (520,646);
},
{
name = top;
pos = (520,1291);
}
);
layerId = "B5195C1E-69AB-4BC6-9855-DF55601A0735";
shapes = (
{
closed = 1;
nodes = (
(133,1248,o),
(366,1256,o),
(484,1258,c),
(484,1223,o),
(484,1175,o),
(484,1118,cs),
(484,798,o),
(494,189,o),
(504,-14,c),
(522,-14,o),
(578,-12,o),
(595,-9,c),
(592,83,o),
(570,1084,o),
(568,1256,c),
(702,1256,o),
(940,1252,o),
(1002,1249,c),
(1002,1273,o),
(1002,1306,o),
(998,1325,c),
(886,1338,o),
(748,1342,o),
(605,1342,cs),
(401,1342,o),
(188,1333,o),
(34,1326,c),
(34,1299,o),
(37,1267,o),
(41,1243,c)
);
}
);
width = 1039;
}
);
unicode = 84;
},
{
glyphname = Tbar;
kernLeft = T;
kernRight = T;
lastChange = "2020-07-16 19:59:50 +0000";
layers = (
{
layerId = "B5042207-EFBA-41B6-8DFD-104A953B46A6";
shapes = (
{
closed = 1;
nodes = (
(898,622,o),
(889,762,o),
(886,801,c),
(753,801,o),
(257,791,o),
(141,741,c),
(141,667,o),
(147,577,o),
(156,490,c),
(363,507,o),
(783,514,o),
(898,514,c)
);
},
{
ref = T;
}
);
width = 1039;
},
{
layerId = "B5195C1E-69AB-4BC6-9855-DF55601A0735";
shapes = (
{
closed = 1;
nodes = (
(894,656,o),
(893,692,o),
(891,701,c),
(730,701,o),
(271,684,o),
(195,674,c),
(189,662,o),
(186,628,o),
(186,610,c),
(379,616,o),
(703,625,o),
(894,625,c)
);
},
{
ref = T;
}
);
width = 1039;
}
);
unicode = 358;
},
{
glyphname = Tcedilla;
kernLeft = T;
kernRight = T;
lastChange = "2020-07-08 20:01:33 +0000";
layers = (
{
layerId = "B5042207-EFBA-41B6-8DFD-104A953B46A6";
shapes = (
{
closed = 1;
nodes = (
(743,-517,o),
(961,-433,o),
(961,-248,cs),
(961,-115,o),
(886,-57,o),
(780,-57,cs),
(710,-57,o),
(654,-85,o),
(630,-119,c),
(664,40,l),
(445,28,l),
(379,-237,l),
(414,-224,o),
(497,-209,o),
(574,-209,cs),
(641,-209,o),
(695,-220,o),
(695,-256,cs),
(695,-296,o),
(630,-317,o),
(512,-317,cs),
(479,-317,o),
(395,-305,o),
(366,-292,c),
(302,-495,l),
(322,-500,o),
(404,-517,o),
(509,-517,cs)
);
},
{
ref = T;
}
);
width = 1039;
},
{
layerId = "B5195C1E-69AB-4BC6-9855-DF55601A0735";
shapes = (
{
closed = 1;
nodes = (
(765,-462,o),
(878,-396,o),
(878,-255,cs),
(878,-144,o),
(803,-87,o),
(698,-87,cs),
(650,-87,o),
(587,-106,o),
(570,-119,c),
(595,-9,l),
(504,-14,l),
(483,-212,l),
(524,-194,o),
(622,-159,o),
(680,-159,cs),
(762,-159,o),
(789,-198,o),
(789,-267,cs),
(789,-359,o),
(698,-392,o),
(550,-392,cs),
(499,-392,o),
(423,-374,o),
(384,-364,c),
(366,-437,l),
(386,-444,o),
(451,-462,o),
(555,-462,cs)
);
},
{
ref = T;
}
);
width = 1039;
}
);
unicode = 354;
},
{
glyphname = U;
kernLeft = U;
kernRight = U;
lastChange = "2023-07-10 13:03:59 +0000";
layers = (
{
anchors = (
{
name = bottom;
pos = (606,0);
},
{
name = ogonek;
pos = (755,0);
},
{
name = top;
pos = (606,1324);
},
{
name = topright;
pos = (1101,1174);
}
);
layerId = "B5042207-EFBA-41B6-8DFD-104A953B46A6";
shapes = (
{
closed = 1;
nodes = (
(1063,-27,o),
(1153,418,o),
(1153,957,cs),
(1153,1078,o),
(1145,1195,o),
(1130,1296,c),
(1101,1304,o),
(846,1328,o),
(715,1328,c),
(726,1245,o),
(736,833,o),
(736,710,cs),
(736,570,o),
(719,458,o),
(615,458,cs),
(564,458,o),
(534,491,o),
(517,563,cs),
(502,626,o),
(497,718,o),
(497,844,cs),
(497,1013,o),
(504,1193,o),
(516,1335,c),
(449,1342,o),
(363,1347,o),
(282,1347,cs),
(219,1347,o),
(147,1342,o),
(78,1335,c),
(75,1256,o),
(73,1183,o),
(73,1115,cs),
(73,744,o),
(79,455,o),
(151,260,cs),
(220,73,o),
(350,-27,o),
(593,-27,cs)
);
}
);
width = 1212;
},
{
anchors = (
{
name = bottom;
pos = (606,0);
},
{
name = ogonek;
pos = (784,0);
},
{
name = top;
pos = (606,1330);
},
{
name = topright;
pos = (976,1174);
}
);
layerId = "B5195C1E-69AB-4BC6-9855-DF55601A0735";
shapes = (
{
closed = 1;
nodes = (
(955,-43,o),
(1021,304,o),
(1021,818,cs),
(1021,988,o),
(1009,1192,o),
(990,1316,c),
(961,1325,o),
(925,1330,o),
(894,1330,c),
(920,1144,o),
(930,892,o),
(930,728,cs),
(930,275,o),
(829,32,o),
(610,32,cs),
(442,32,o),
(335,136,o),
(283,358,cs),
(258,463,o),
(246,596,o),
(246,757,cs),
(246,932,o),
(256,1185,o),
(273,1362,c),
(262,1365,o),
(239,1368,o),
(214,1368,cs),
(199,1368,o),
(184,1366,o),
(174,1364,c),
(168,1243,o),
(156,963,o),
(156,780,cs),
(156,608,o),
(168,454,o),
(199,327,cs),
(255,98,o),
(374,-43,o),
(595,-43,cs)
);
}
);
width = 1212;
}
);
unicode = 85;
},
{
glyphname = Uhorn;
kernLeft = U;
kernRight = U;
lastChange = "2020-06-17 20:20:27 +0000";
layers = (
{
anchors = (
{
name = bottom;
pos = (606,0);
},
{
name = top;
pos = (606,1331);
}
);
layerId = "B5195C1E-69AB-4BC6-9855-DF55601A0735";
shapes = (
{
closed = 1;
nodes = (
(955,-43,o),
(1021,304,o),
(1021,818,cs),
(1021,971,o),
(1011,1152,o),
(995,1277,c),
(1129,1308,o),
(1190,1412,o),
(1196,1564,c),
(1179,1573,o),
(1133,1580,o),
(1102,1580,c),
(1102,1421,o),
(1043,1340,o),
(894,1330,c),
(920,1144,o),
(930,892,o),
(930,728,cs),
(930,275,o),
(829,32,o),
(610,32,cs),
(442,32,o),
(335,136,o),
(283,358,cs),
(258,463,o),
(246,596,o),
(246,757,cs),
(246,932,o),
(256,1185,o),
(273,1362,c),
(262,1365,o),
(239,1368,o),
(214,1368,cs),
(199,1368,o),
(184,1366,o),
(174,1364,c),
(168,1243,o),
(156,963,o),
(156,780,cs),
(156,608,o),
(168,454,o),
(199,327,cs),
(255,98,o),
(374,-43,o),
(595,-43,cs)
);
}
);
width = 1307;
},
{
anchors = (
{
name = bottom;
pos = (703,0);
},
{
name = top;
pos = (646,1345);
}
);
layerId = "B5042207-EFBA-41B6-8DFD-104A953B46A6";
shapes = (
{
closed = 1;
nodes = (
(1063,-27,o),
(1153,418,o),
(1153,957,cs),
(1153,1036,o),
(1150,1113,o),
(1143,1185,c),
(1282,1234,o),
(1412,1345,o),
(1427,1522,c),
(1402,1550,o),
(1212,1571,o),
(1093,1571,c),
(1093,1384,o),
(983,1328,o),
(715,1328,c),
(726,1245,o),
(736,833,o),
(736,710,cs),
(736,570,o),
(719,458,o),
(615,458,cs),
(564,458,o),
(534,491,o),
(517,563,cs),
(502,626,o),
(497,718,o),
(497,844,cs),
(497,1013,o),
(504,1193,o),
(516,1335,c),
(449,1342,o),
(363,1347,o),
(282,1347,cs),
(219,1347,o),
(147,1342,o),
(78,1335,c),
(75,1256,o),
(73,1183,o),
(73,1115,cs),
(73,744,o),
(79,455,o),
(151,260,cs),
(220,73,o),
(350,-27,o),
(593,-27,cs)
);
}
);
width = 1406;
}
);
metricLeft = U;
metricRight = "=U-80";
unicode = 431;
},
{
glyphname = Uogonek;
lastChange = "2020-07-08 16:44:11 +0000";
layers = (
{
layerId = "B5195C1E-69AB-4BC6-9855-DF55601A0735";
shapes = (
{
closed = 1;
nodes = (
(893,-358,o),
(844,-378,o),
(750,-378,cs),
(660,-378,o),
(603,-347,o),
(603,-245,cs),
(603,-132,o),
(753,-8,o),
(845,45,c),
(780,90,l),
(661,21,o),
(517,-109,o),
(517,-252,cs),
(517,-381,o),
(597,-458,o),
(734,-458,cs),
(838,-458,o),
(910,-436,o),
(966,-412,c),
(966,-325,l)
);
},
{
ref = U;
}
);
width = 1212;
},
{
layerId = "B5042207-EFBA-41B6-8DFD-104A953B46A6";
shapes = (
{
closed = 1;
nodes = (
(983,-207,o),
(938,-216,o),
(895,-216,cs),
(842,-216,o),
(788,-192,o),
(788,-120,cs),
(788,-40,o),
(863,44,o),
(908,75,c),
(772,133,l),
(707,114,o),
(525,-37,o),
(525,-209,cs),
(525,-376,o),
(669,-461,o),
(827,-461,cs),
(931,-461,o),
(993,-448,o),
(1022,-436,c),
(1022,-179,l)
);
},
{
ref = U;
}
);
width = 1212;
}
);
unicode = 370;
},
{
glyphname = V;
kernLeft = V;
kernRight = V;
lastChange = "2023-07-07 16:36:25 +0000";
layers = (
{
anchors = (
{
name = bottom;
pos = (605,0);
},
{
name = top;
pos = (605,1291);
}
);
layerId = "B5042207-EFBA-41B6-8DFD-104A953B46A6";
shapes = (
{
closed = 1;
nodes = (
(735,-22,o),
(819,-21,o),
(865,-16,c),
(891,79,o),
(1095,836,o),
(1183,1301,c),
(1051,1342,o),
(870,1366,o),
(738,1366,c),
(732,1288,o),
(665,711,o),
(631,428,c),
(561,876,o),
(461,1340,o),
(456,1359,c),
(350,1359,o),
(125,1340,o),
(0,1301,c),
(74,945,o),
(310,191,o),
(411,-10,c),
(460,-16,o),
(556,-22,o),
(650,-22,cs)
);
}
);
width = 1183;
},
{
anchors = (
{
name = bottom;
pos = (583,0);
},
{
name = top;
pos = (583,1291);
}
);
layerId = "B5195C1E-69AB-4BC6-9855-DF55601A0735";
shapes = (
{
closed = 1;
nodes = (
(605,-19,o),
(624,-18,o),
(639,-16,c),
(648,4,o),
(821,410,o),
(1036,1326,c),
(1016,1344,o),
(981,1354,o),
(949,1359,c),
(945,1338,o),
(801,627,o),
(579,49,c),
(434,339,o),
(222,1168,o),
(200,1361,c),
(178,1361,o),
(123,1352,o),
(109,1347,c),
(133,1191,o),
(299,448,o),
(508,-10,c),
(524,-16,o),
(555,-19,o),
(579,-19,cs)
);
}
);
width = 1166;
}
);
unicode = 86;
},
{
glyphname = V.ss02;
kernLeft = V;
kernRight = V;
lastChange = "2023-07-07 16:35:25 +0000";
layers = (
{
anchors = (
{
name = bottom;
pos = (605,0);
},
{
name = top;
pos = (605,1291);
}
);
layerId = "B5042207-EFBA-41B6-8DFD-104A953B46A6";
shapes = (
{
closed = 1;
nodes = (
(707,144,o),
(1001,888,o),
(1183,1221,c),
(1135,1262,o),
(876,1311,o),
(798,1316,c),
(727,1218,o),
(619,867,o),
(595,731,c),
(520,841,o),
(430,1202,o),
(406,1379,c),
(300,1349,o),
(85,1282,o),
(0,1241,c),
(111,747,o),
(408,195,o),
(650,-22,c)
);
}
);
width = 1183;
},
{
anchors = (
{
name = bottom;
pos = (583,0);
},
{
name = top;
pos = (583,1291);
}
);
layerId = "B5195C1E-69AB-4BC6-9855-DF55601A0735";
shapes = (
{
closed = 1;
nodes = (
(657,223,o),
(995,1082,o),
(1076,1286,c),
(1063,1295,o),
(1011,1314,o),
(996,1319,c),
(943,1216,o),
(618,366,o),
(566,181,c),
(472,414,o),
(245,1180,o),
(202,1361,c),
(175,1354,o),
(124,1334,o),
(109,1327,c),
(171,1100,o),
(471,93,o),
(571,-49,c)
);
}
);
width = 1166;
}
);
},
{
glyphname = W;
kernLeft = W;
kernRight = W;
lastChange = "2023-07-07 16:25:56 +0000";
layers = (
{
anchors = (
{
name = bottom;
pos = (672,0);
},
{
name = top;
pos = (672,1291);
}
);
layerId = "B5042207-EFBA-41B6-8DFD-104A953B46A6";
shapes = (
{
closed = 1;
nodes = (
(1136,24,l),
(1162,139,o),
(1330,832,o),
(1330,1391,c),
(942,1350,l),
(942,1159,o),
(927,773,o),
(893,498,c),
(862,653,o),
(825,874,o),
(807,973,c),
(554,945,l),
(522,860,o),
(466,705,o),
(430,587,c),
(440,791,o),
(456,1159,o),
(456,1340,c),
(21,1356,l),
(21,807,o),
(109,173,o),
(131,21,c),
(539,3,l),
(579,106,o),
(631,291,o),
(664,416,c),
(691,280,o),
(734,97,o),
(768,-15,c)
);
}
);
width = 1344;
},
{
anchors = (
{
name = bottom;
pos = (672,0);
},
{
name = top;
pos = (672,1291);
}
);
layerId = "B5195C1E-69AB-4BC6-9855-DF55601A0735";
shapes = (
{
closed = 1;
nodes = (
(998,-11,l),
(1020,42,o),
(1128,713,o),
(1128,1352,c),
(1035,1344,l),
(1035,998,o),
(1001,421,o),
(944,104,c),
(904,268,o),
(732,833,o),
(728,840,c),
(634,844,l),
(619,820,o),
(358,310,o),
(302,127,c),
(269,553,o),
(262,908,o),
(262,1340,c),
(176,1344,l),
(176,923,o),
(186,598,o),
(239,-8,c),
(312,-8,l),
(331,32,o),
(637,672,o),
(670,742,c),
(700,663,o),
(848,178,o),
(903,-17,c)
);
}
);
width = 1344;
}
);
unicode = 87;
},
{
glyphname = W.ss02;
kernLeft = W;
kernRight = W;
lastChange = "2023-07-07 16:23:27 +0000";
layers = (
{
anchors = (
{
name = bottom;
pos = (672,0);
},
{
name = top;
pos = (672,1291);
}
);
layerId = "B5042207-EFBA-41B6-8DFD-104A953B46A6";
shapes = (
{
closed = 1;
nodes = (
(479,34,o),
(613,266,o),
(669,384,c),
(749,217,o),
(868,16,o),
(922,-40,c),
(1017,75,o),
(1257,726,o),
(1340,1185,c),
(1000,1320,l),
(975,1178,o),
(918,922,o),
(866,728,c),
(799,834,o),
(722,953,o),
(679,1007,c),
(626,942,o),
(552,818,o),
(486,702,c),
(441,893,o),
(385,1175,o),
(367,1303,c),
(2,1214,l),
(87,643,o),
(340,43,o),
(416,-50,c)
);
}
);
width = 1344;
},
{
anchors = (
{
name = bottom;
pos = (672,0);
},
{
name = top;
pos = (672,1291);
}
);
layerId = "B5195C1E-69AB-4BC6-9855-DF55601A0735";
shapes = (
{
closed = 1;
nodes = (
(375,67,o),
(607,620,o),
(661,706,c),
(716,576,o),
(863,123,o),
(913,-17,c),
(1001,176,o),
(1233,1053,o),
(1278,1303,c),
(1195,1335,l),
(1164,1153,o),
(1013,513,o),
(913,221,c),
(870,393,o),
(734,756,o),
(669,883,c),
(606,781,o),
(424,407,o),
(354,209,c),
(275,625,o),
(197,1077,o),
(159,1340,c),
(76,1314,l),
(117,1053,o),
(244,316,o),
(329,-8,c)
);
}
);
width = 1344;
}
);
},
{
glyphname = X;
kernLeft = X;
kernRight = X;
lastChange = "2020-06-18 14:25:59 +0000";
layers = (
{
anchors = (
{
name = bottom;
pos = (627,0);
},
{
name = top;
pos = (627,1291);
}
);
layerId = "B5042207-EFBA-41B6-8DFD-104A953B46A6";
shapes = (
{
closed = 1;
nodes = (
(292,421,o),
(133,193,o),
(26,56,c),
(198,10,o),
(303,-18,o),
(434,-31,c),
(462,0,o),
(537,121,o),
(650,323,c),
(752,157,o),
(793,48,o),
(825,-54,c),
(929,-34,o),
(1108,18,o),
(1208,81,c),
(1173,168,o),
(976,498,o),
(839,673,c),
(954,827,o),
(1140,1077,o),
(1191,1193,c),
(1132,1241,o),
(961,1301,o),
(778,1328,c),
(742,1209,o),
(699,1074,o),
(641,961,c),
(627,998,o),
(508,1258,o),
(442,1347,c),
(334,1332,o),
(93,1255,o),
(-1,1207,c),
(43,1161,o),
(286,874,o),
(415,639,c)
);
}
);
width = 1253;
},
{
anchors = (
{
name = bottom;
pos = (575,0);
},
{
name = top;
pos = (575,1291);
}
);
layerId = "B5195C1E-69AB-4BC6-9855-DF55601A0735";
shapes = (
{
closed = 1;
nodes = (
(517,590,o),
(298,293,o),
(100,39,c),
(126,19,o),
(154,5,o),
(188,1,c),
(199,16,o),
(581,557,o),
(593,583,c),
(723,376,o),
(859,121,o),
(926,-15,c),
(954,-14,o),
(984,-9,o),
(1013,10,c),
(919,181,o),
(702,560,o),
(642,649,c),
(675,695,o),
(902,1016,o),
(1008,1272,c),
(987,1285,o),
(962,1299,o),
(931,1308,c),
(910,1251,o),
(762,933,o),
(601,714,c),
(413,1046,o),
(262,1253,o),
(206,1328,c),
(178,1323,o),
(151,1312,o),
(117,1297,c),
(171,1231,o),
(387,942,o),
(550,646,c)
);
}
);
width = 1113;
}
);
unicode = 88;
},
{
glyphname = Y;
kernLeft = Y;
kernRight = Y;
lastChange = "2020-07-24 10:04:03 +0000";
layers = (
{
anchors = (
{
name = bottom;
pos = (583,0);
},
{
name = top;
pos = (583,1291);
},
{
name = topleft;
pos = (70,1291);
}
);
layerId = "B5042207-EFBA-41B6-8DFD-104A953B46A6";
shapes = (
{
closed = 1;
nodes = (
(389,457,o),
(375,176,o),
(375,24,c),
(425,14,o),
(513,7,o),
(594,7,cs),
(671,7,o),
(742,14,o),
(759,22,c),
(761,40,o),
(762,147,o),
(762,236,cs),
(762,312,o),
(757,477,o),
(751,612,c),
(864,836,o),
(1011,1074,o),
(1101,1192,c),
(1016,1242,o),
(864,1304,o),
(730,1309,c),
(680,1231,o),
(586,1037,o),
(558,972,c),
(512,1063,o),
(429,1262,o),
(404,1325,c),
(319,1325,o),
(168,1308,o),
(14,1250,c),
(142,950,o),
(265,768,o),
(400,583,c)
);
}
);
width = 1065;
},
{
anchors = (
{
name = bottom;
pos = (573,0);
},
{
name = top;
pos = (573,1291);
},
{
name = topleft;
pos = (60,1291);
}
);
layerId = "B5195C1E-69AB-4BC6-9855-DF55601A0735";
shapes = (
{
closed = 1;
nodes = (
(493,319,o),
(484,69,o),
(484,-10,c),
(507,-13,o),
(524,-14,o),
(540,-14,cs),
(553,-14,o),
(568,-13,o),
(583,-12,c),
(580,20,o),
(580,165,o),
(580,254,cs),
(580,323,o),
(580,457,o),
(580,491,c),
(775,882,o),
(903,1121,o),
(985,1241,c),
(963,1260,o),
(934,1285,o),
(896,1303,c),
(836,1183,o),
(589,692,o),
(537,591,c),
(450,761,o),
(241,1248,o),
(221,1318,c),
(185,1313,o),
(153,1303,o),
(124,1292,c),
(141,1248,o),
(462,550,o),
(500,489,c)
);
}
);
width = 1065;
}
);
unicode = 89;
},
{
glyphname = Z;
kernLeft = Z;
kernRight = Z;
lastChange = "2020-06-17 15:13:54 +0000";
layers = (
{
anchors = (
{
name = bottom;
pos = (522,0);
},
{
name = center;
pos = (522,646);
},
{
name = top;
pos = (522,1291);
}
);
layerId = "B5042207-EFBA-41B6-8DFD-104A953B46A6";
shapes = (
{
closed = 1;
nodes = (
(938,18,o),
(948,113,o),
(948,202,cs),
(948,277,o),
(944,356,o),
(940,397,c),
(835,392,o),
(728,387,o),
(642,387,cs),
(561,387,o),
(499,389,o),
(474,393,c),
(571,509,o),
(879,897,o),
(962,1005,c),
(966,1025,o),
(970,1093,o),
(970,1166,cs),
(970,1225,o),
(967,1288,o),
(959,1330,c),
(927,1334,o),
(830,1336,o),
(778,1336,cs),
(565,1336,o),
(205,1306,o),
(94,1294,c),
(90,1256,o),
(87,1198,o),
(87,1135,cs),
(87,1080,o),
(91,1011,o),
(95,969,c),
(228,977,o),
(486,991,o),
(550,991,c),
(500,912,o),
(184,546,o),
(43,388,c),
(43,297,o),
(48,99,o),
(53,22,c),
(404,-3,o),
(694,-14,o),
(930,-14,c)
);
}
);
width = 1044;
},
{
anchors = (
{
name = bottom;
pos = (522,0);
},
{
name = center;
pos = (522,646);
},
{
name = top;
pos = (522,1291);
}
);
layerId = "B5195C1E-69AB-4BC6-9855-DF55601A0735";
shapes = (
{
closed = 1;
nodes = (
(881,-3,o),
(884,16,o),
(886,37,cs),
(888,54,o),
(889,71,o),
(889,85,c),
(838,83,o),
(771,82,o),
(698,82,cs),
(500,82,o),
(253,89,o),
(140,98,c),
(236,206,o),
(703,870,o),
(894,1262,c),
(896,1275,o),
(898,1292,o),
(898,1310,cs),
(898,1316,o),
(898,1323,o),
(897,1330,c),
(858,1330,o),
(721,1327,o),
(700,1326,cs),
(528,1320,o),
(309,1307,o),
(109,1294,c),
(108,1286,o),
(108,1269,o),
(108,1251,cs),
(108,1234,o),
(108,1217,o),
(109,1209,c),
(347,1229,o),
(735,1256,o),
(810,1256,c),
(704,1058,o),
(241,325,o),
(44,96,c),
(44,79,o),
(46,39,o),
(47,22,c),
(367,-5,o),
(643,-14,o),
(879,-14,c)
);
}
);
width = 1044;
}
);
unicode = 90;
},
{
glyphname = Z.ss02;
kernLeft = Z;
kernRight = Z;
lastChange = "2023-07-07 16:43:32 +0000";
layers = (
{
anchors = (
{
name = bottom;
pos = (522,0);
},
{
name = center;
pos = (522,646);
},
{
name = top;
pos = (522,1291);
}
);
layerId = "B5042207-EFBA-41B6-8DFD-104A953B46A6";
shapes = (
{
closed = 1;
nodes = (
(923,79,o),
(940,255,o),
(940,397,c),
(841,387,o),
(682,373,o),
(554,373,c),
(661,591,o),
(920,1093,o),
(1003,1213,c),
(923,1251,o),
(517,1294,o),
(14,1294,c),
(14,1227,o),
(37,998,o),
(55,939,c),
(168,957,o),
(416,961,o),
(500,961,c),
(450,882,o),
(137,365,o),
(26,96,c),
(167,36,o),
(549,0,o),
(900,-14,c)
);
}
);
width = 1044;
},
{
anchors = (
{
name = bottom;
pos = (582,0);
},
{
name = center;
pos = (582,646);
},
{
name = top;
pos = (582,1291);
}
);
layerId = "B5195C1E-69AB-4BC6-9855-DF55601A0735";
shapes = (
{
closed = 1;
nodes = (
(942,12,o),
(950,42,o),
(950,69,c),
(729,69,o),
(474,76,o),
(225,96,c),
(340,337,o),
(866,1091,o),
(978,1250,c),
(913,1269,o),
(432,1294,o),
(169,1294,c),
(169,1261,o),
(174,1220,o),
(177,1209,c),
(435,1209,o),
(760,1201,o),
(835,1191,c),
(709,1032,o),
(211,288,o),
(98,44,c),
(241,0,o),
(740,-14,o),
(934,-14,c)
);
}
);
width = 1044;
}
);
},
{
glyphname = B_B;
kernLeft = H;
kernRight = B;
lastChange = "2020-07-22 15:07:56 +0000";
layers = (
{
anchors = (
{
name = caret_1;
pos = (1098.5,0);
}
);
layerId = "B5042207-EFBA-41B6-8DFD-104A953B46A6";
shapes = (
{
closed = 1;
nodes = (
(2005,4,o),
(2189,113,o),
(2189,421,cs),
(2189,621,o),
(2011,735,o),
(1900,735,c),
(2006,745,o),
(2135,815,o),
(2135,982,cs),
(2135,1197,o),
(1948,1282,o),
(1714,1282,cs),
(1532,1282,o),
(1330,1286,o),
(1243,1288,c),
(1237,1150,o),
(1171,84,o),
(1168,49,c),
(1260,25,o),
(1484,4,o),
(1649,4,cs)
);
},
{
closed = 1;
nodes = (
(1664,346,o),
(1604,347,o),
(1572,349,c),
(1578,558,l),
(1626,565,o),
(1688,568,o),
(1727,568,cs),
(1828,568,o),
(1838,504,o),
(1838,453,cs),
(1838,385,o),
(1806,346,o),
(1701,346,cs)
);
},
{
closed = 1;
nodes = (
(1595,1041,l),
(1624,1045,o),
(1657,1045,o),
(1686,1045,cs),
(1758,1045,o),
(1825,1027,o),
(1825,969,cs),
(1825,946,o),
(1809,922,o),
(1779,908,cs),
(1762,900,o),
(1670,886,o),
(1594,886,c)
);
},
{
ref = B;
}
);
width = 2257;
},
{
anchors = (
{
name = caret_1;
pos = (1098.5,0);
}
);
layerId = "B5195C1E-69AB-4BC6-9855-DF55601A0735";
shapes = (
{
closed = 1;
nodes = (
(1832,-5,o),
(2054,92,o),
(2054,389,cs),
(2054,552,o),
(1940,642,o),
(1824,655,c),
(1913,677,o),
(2008,812,o),
(2008,948,cs),
(2008,1194,o),
(1835,1259,o),
(1573,1259,cs),
(1489,1259,o),
(1371,1254,o),
(1331,1252,c),
(1319,1132,o),
(1248,241,o),
(1236,34,c),
(1325,7,o),
(1433,-5,o),
(1525,-5,cs)
);
},
{
closed = 1;
nodes = (
(1456,73,o),
(1359,85,o),
(1334,89,c),
(1365,580,l),
(1403,585,o),
(1548,603,o),
(1702,603,cs),
(1870,603,o),
(1966,531,o),
(1966,396,cs),
(1966,213,o),
(1891,73,o),
(1548,73,cs)
);
},
{
closed = 1;
nodes = (
(1400,1180,l),
(1442,1180,o),
(1528,1180,o),
(1619,1180,cs),
(1803,1180,o),
(1933,1132,o),
(1933,946,cs),
(1933,849,o),
(1876,759,o),
(1793,714,cs),
(1719,674,o),
(1523,662,o),
(1370,659,c)
);
},
{
ref = B;
}
);
width = 2197;
}
);
metricLeft = B;
metricRight = B;
},
{
glyphname = C_C;
kernLeft = O;
kernRight = C;
lastChange = "2020-07-22 15:08:02 +0000";
layers = (
{
anchors = (
{
name = caret_1;
pos = (1238,0);
}
);
layerId = "B5042207-EFBA-41B6-8DFD-104A953B46A6";
shapes = (
{
closed = 1;
nodes = (
(1083,219,o),
(1000,354,o),
(908,448,c),
(863,403,o),
(795,376,o),
(720,376,cs),
(556,376,o),
(508,468,o),
(508,634,cs),
(508,780,o),
(571,946,o),
(721,946,cs),
(822,946,o),
(883,891,o),
(908,867,c),
(944,915,o),
(1046,1123,o),
(1069,1173,c),
(973,1259,o),
(844,1294,o),
(683,1294,cs),
(288,1294,o),
(25,1059,o),
(25,659,cs),
(25,208,o),
(325,-10,o),
(734,-10,cs),
(878,-10,o),
(1060,39,o),
(1151,103,c)
);
},
{
alignment = -1;
pos = (1119,0);
ref = C;
}
);
width = 2256;
},
{
anchors = (
{
name = caret_1;
pos = (1150,0);
}
);
layerId = "B5195C1E-69AB-4BC6-9855-DF55601A0735";
shapes = (
{
closed = 1;
nodes = (
(1049,204,o),
(1012,225,o),
(987,238,c),
(899,148,o),
(761,88,o),
(617,88,cs),
(306,88,o),
(159,292,o),
(159,643,cs),
(159,1043,o),
(475,1157,o),
(625,1157,cs),
(821,1157,o),
(919,1076,o),
(969,1027,c),
(996,1049,o),
(1015,1084,o),
(1024,1103,c),
(931,1196,o),
(779,1249,o),
(645,1249,cs),
(330,1249,o),
(65,1009,o),
(65,619,cs),
(65,256,o),
(249,0,o),
(608,0,cs),
(796,0,o),
(957,72,o),
(1066,190,c)
);
},
{
alignment = -1;
pos = (1116,0);
ref = C;
}
);
width = 2253;
}
);
metricLeft = C;
metricRight = C;
},
{
glyphname = D_D;
kernLeft = H;
kernRight = O;
lastChange = "2020-07-22 15:08:08 +0000";
layers = (
{
anchors = (
{
name = caret_1;
pos = (1098.5,0);
}
);
layerId = "B5042207-EFBA-41B6-8DFD-104A953B46A6";
shapes = (
{
closed = 1;
nodes = (
(1878,-50,o),
(2170,51,o),
(2170,530,cs),
(2170,1031,o),
(2004,1362,o),
(1541,1362,cs),
(1439,1362,o),
(1304,1355,o),
(1157,1338,c),
(1159,1309,o),
(1246,171,o),
(1278,-50,c)
);
},
{
closed = 1;
nodes = (
(1538,1030,o),
(1573,1037,o),
(1607,1037,cs),
(1757,1037,o),
(1808,836,o),
(1808,633,cs),
(1808,463,o),
(1756,373,o),
(1639,357,c),
(1603,581,o),
(1565,802,o),
(1523,1026,c)
);
},
{
alignment = -1;
ref = D;
}
);
width = 2221;
},
{
anchors = (
{
name = caret_1;
pos = (1058,0);
}
);
layerId = "B5195C1E-69AB-4BC6-9855-DF55601A0735";
shapes = (
{
closed = 1;
nodes = (
(1790,-50,o),
(1972,114,o),
(1972,594,cs),
(1972,1065,o),
(1899,1364,o),
(1515,1364,cs),
(1454,1364,o),
(1290,1351,o),
(1254,1339,c),
(1256,1307,o),
(1333,190,o),
(1362,-65,c)
);
},
{
closed = 1;
nodes = (
(1372,1276,o),
(1500,1287,o),
(1539,1287,cs),
(1857,1287,o),
(1892,952,o),
(1892,557,cs),
(1892,209,o),
(1755,53,o),
(1444,17,c),
(1403,414,o),
(1360,874,o),
(1336,1271,c)
);
},
{
alignment = -1;
ref = D;
}
);
width = 2199;
}
);
metricLeft = D;
metricRight = D;
},
{
glyphname = E_E;
kernLeft = H;
kernRight = E;
lastChange = "2020-07-22 15:08:16 +0000";
layers = (
{
anchors = (
{
name = bottom;
pos = (527,-20);
},
{
name = caret_1;
pos = (894,0);
},
{
name = ogonek;
pos = (721,-14);
},
{
name = top;
pos = (485,1300);
},
{
name = topleft;
pos = (27,1256);
}
);
layerId = "B5042207-EFBA-41B6-8DFD-104A953B46A6";
shapes = (
{
closed = 1;
nodes = (
(1725,66,o),
(1732,263,o),
(1732,368,c),
(1706,378,o),
(1647,393,o),
(1518,400,cs),
(1474,402,o),
(1394,403,o),
(1366,403,c),
(1366,421,o),
(1366,438,o),
(1367,454,cs),
(1368,471,o),
(1369,487,o),
(1373,501,c),
(1409,508,o),
(1542,515,o),
(1609,515,cs),
(1653,515,o),
(1694,513,o),
(1715,511,c),
(1724,581,o),
(1730,659,o),
(1730,739,cs),
(1730,769,o),
(1729,799,o),
(1727,829,c),
(1595,844,o),
(1489,851,o),
(1375,851,c),
(1375,880,o),
(1378,906,o),
(1381,923,c),
(1483,930,o),
(1622,938,o),
(1744,938,c),
(1753,999,o),
(1759,1155,o),
(1759,1250,c),
(1729,1253,o),
(1628,1261,o),
(1474,1261,cs),
(1344,1261,o),
(1176,1251,o),
(982,1219,c),
(977,1120,o),
(953,581,o),
(953,17,c),
(1300,12,o),
(1624,0,o),
(1722,-5,c)
);
},
{
closed = 1;
nodes = (
(854,12,o),
(873,258,o),
(869,391,c),
(820,393,o),
(740,397,o),
(658,394,cs),
(570,391,o),
(479,388,o),
(469,388,c),
(468,410,o),
(469,488,o),
(470,515,c),
(505,516,o),
(746,510,o),
(790,508,c),
(787,848,l),
(700,844,o),
(548,836,o),
(469,833,c),
(468,852,o),
(466,939,o),
(468,956,c),
(840,999,l),
(846,1113,o),
(851,1216,o),
(848,1320,c),
(793,1319,o),
(457,1306,o),
(71,1217,c),
(69,1119,o),
(67,911,o),
(76,636,cs),
(82,449,o),
(93,232,o),
(109,-2,c),
(231,-7,o),
(354,-11,o),
(477,-14,cs),
(599,-17,o),
(721,-21,o),
(843,-25,c)
);
}
);
width = 1854;
},
{
anchors = (
{
name = bottom;
pos = (531,7);
},
{
name = caret_1;
pos = (946,0);
},
{
name = ogonek;
pos = (740,18);
},
{
name = top;
pos = (466,1316);
},
{
name = topleft;
pos = (8,1273);
}
);
layerId = "B5195C1E-69AB-4BC6-9855-DF55601A0735";
shapes = (
{
closed = 1;
nodes = (
(1696,7,o),
(1703,42,o),
(1705,68,c),
(1657,75,o),
(1541,83,o),
(1443,83,cs),
(1356,83,o),
(1188,83,o),
(1134,83,c),
(1133,91,o),
(1133,106,o),
(1133,126,cs),
(1133,257,o),
(1144,605,o),
(1147,675,c),
(1166,675,o),
(1198,675,o),
(1283,675,cs),
(1377,675,o),
(1645,672,o),
(1734,663,c),
(1736,665,o),
(1737,677,o),
(1737,689,cs),
(1737,705,o),
(1736,724,o),
(1734,728,c),
(1605,739,o),
(1292,748,o),
(1149,748,c),
(1149,827,o),
(1157,1127,o),
(1163,1151,c),
(1278,1166,o),
(1568,1181,o),
(1772,1181,c),
(1781,1204,o),
(1785,1231,o),
(1787,1248,c),
(1774,1250,o),
(1705,1254,o),
(1610,1254,cs),
(1491,1254,o),
(1314,1246,o),
(1075,1210,c),
(1062,1009,o),
(1034,393,o),
(1034,10,c),
(1328,7,o),
(1540,0,o),
(1687,-7,c)
);
},
{
closed = 1;
nodes = (
(878,33,o),
(882,64,o),
(883,92,c),
(806,94,o),
(620,91,o),
(461,84,cs),
(409,81,o),
(322,76,o),
(282,72,c),
(275,217,o),
(254,630,o),
(251,684,c),
(337,691,o),
(755,713,o),
(805,716,c),
(793,793,l),
(702,788,o),
(323,757,o),
(250,751,c),
(246,836,o),
(235,1103,o),
(236,1191,c),
(824,1267,l),
(825,1294,o),
(826,1307,o),
(824,1341,c),
(769,1339,o),
(483,1305,o),
(147,1240,c),
(145,1168,o),
(153,935,o),
(171,570,cs),
(180,388,o),
(193,187,o),
(210,-7,c),
(273,-2,o),
(354,3,o),
(417,6,cs),
(577,14,o),
(716,16,o),
(873,15,c)
);
}
);
width = 1906;
}
);
metricLeft = E;
metricRight = E;
},
{
glyphname = F_F;
kernLeft = H;
kernRight = F;
lastChange = "2020-07-22 15:08:32 +0000";
layers = (
{
anchors = (
{
name = caret_1;
pos = (812,0);
}
);
layerId = "B5042207-EFBA-41B6-8DFD-104A953B46A6";
shapes = (
{
closed = 1;
nodes = (
(1306,66,o),
(1319,263,o),
(1319,393,cs),
(1319,416,o),
(1319,436,o),
(1318,454,c),
(1419,454,o),
(1593,419,o),
(1653,403,c),
(1670,535,o),
(1677,659,o),
(1677,759,c),
(1593,783,o),
(1373,797,o),
(1318,797,c),
(1321,837,o),
(1323,887,o),
(1323,932,c),
(1440,932,o),
(1711,914,o),
(1733,911,c),
(1737,932,o),
(1757,1067,o),
(1757,1246,c),
(1623,1258,o),
(1180,1274,o),
(944,1274,c),
(961,1096,o),
(968,910,o),
(968,723,cs),
(968,482,o),
(956,240,o),
(938,9,c),
(1291,-7,l)
);
},
{
alignment = -1;
ref = F;
}
);
width = 1813;
},
{
anchors = (
{
name = caret_1;
pos = (905,0);
}
);
layerId = "B5195C1E-69AB-4BC6-9855-DF55601A0735";
shapes = (
{
closed = 1;
nodes = (
(1108,93,o),
(1116,301,o),
(1116,520,cs),
(1116,544,o),
(1116,567,o),
(1116,591,c),
(1286,591,o),
(1535,544,o),
(1600,528,c),
(1600,546,o),
(1598,589,o),
(1597,595,c),
(1587,600,o),
(1420,641,o),
(1115,667,c),
(1115,824,o),
(1112,989,o),
(1101,1146,c),
(1268,1141,o),
(1631,1086,o),
(1663,1081,c),
(1663,1102,o),
(1660,1146,o),
(1658,1171,c),
(1451,1200,o),
(1225,1227,o),
(1007,1227,c),
(1018,973,o),
(1026,750,o),
(1026,519,cs),
(1026,358,o),
(1022,195,o),
(1012,15,c),
(1103,-5,l)
);
},
{
alignment = -1;
ref = F;
}
);
width = 1810;
}
);
metricLeft = F;
metricRight = F;
},
{
glyphname = G_G;
kernLeft = O;
kernRight = G;
lastChange = "2020-07-22 15:08:39 +0000";
layers = (
{
anchors = (
{
name = caret_1;
pos = (1303,0);
}
);
layerId = "B5195C1E-69AB-4BC6-9855-DF55601A0735";
shapes = (
{
closed = 1;
nodes = (
(1050,-52,o),
(1204,110,o),
(1204,469,cs),
(1204,547,o),
(1196,642,o),
(1185,727,c),
(1127,730,o),
(1067,731,o),
(1006,731,cs),
(873,731,o),
(743,725,o),
(635,716,c),
(635,701,o),
(635,653,o),
(635,629,c),
(700,635,o),
(795,637,o),
(884,637,cs),
(979,637,o),
(1067,635,o),
(1106,633,c),
(1110,610,o),
(1112,577,o),
(1112,548,cs),
(1112,199,o),
(1054,33,o),
(694,33,cs),
(348,33,o),
(171,271,o),
(171,642,cs),
(171,964,o),
(383,1212,o),
(730,1212,cs),
(844,1212,o),
(958,1182,o),
(1056,1068,c),
(1071,1083,o),
(1094,1119,o),
(1101,1136,c),
(1055,1209,o),
(896,1288,o),
(695,1288,cs),
(329,1288,o),
(84,1005,o),
(84,634,cs),
(84,216,o),
(291,-52,o),
(688,-52,cs)
);
},
{
alignment = -1;
pos = (1288,0);
ref = G;
}
);
width = 2563;
},
{
anchors = (
{
name = caret_1;
pos = (1294,0);
}
);
layerId = "B5042207-EFBA-41B6-8DFD-104A953B46A6";
shapes = (
{
closed = 1;
nodes = (
(1057,-36,o),
(1218,147,o),
(1218,543,cs),
(1218,627,o),
(1217,704,o),
(1201,760,c),
(1176,763,o),
(1130,766,o),
(1030,766,cs),
(935,766,o),
(767,760,o),
(702,757,c),
(698,695,o),
(688,497,o),
(688,447,c),
(711,447,o),
(752,447,o),
(791,447,cs),
(823,447,o),
(852,446,o),
(867,443,c),
(869,439,o),
(871,425,o),
(871,414,cs),
(871,367,o),
(801,310,o),
(710,310,cs),
(538,310,o),
(464,493,o),
(464,698,cs),
(464,832,o),
(552,922,o),
(681,922,cs),
(762,922,o),
(843,891,o),
(863,874,c),
(964,968,o),
(1058,1101,o),
(1092,1161,c),
(990,1256,o),
(823,1295,o),
(670,1295,cs),
(309,1295,o),
(62,1090,o),
(62,728,cs),
(62,275,o),
(253,-36,o),
(691,-36,cs)
);
},
{
alignment = -1;
pos = (1268,0);
ref = G;
}
);
width = 2543;
}
);
metricLeft = G;
metricRight = G;
},
{
glyphname = L_L;
kernLeft = H;
kernRight = L;
lastChange = "2020-07-22 15:08:47 +0000";
layers = (
{
anchors = (
{
name = caret_1;
pos = (974,0);
}
);
layerId = "B5042207-EFBA-41B6-8DFD-104A953B46A6";
shapes = (
{
closed = 1;
nodes = (
(553,17,o),
(888,31,o),
(922,41,c),
(929,96,o),
(939,271,o),
(939,383,c),
(770,383,o),
(609,377,o),
(490,371,c),
(499,507,o),
(516,1047,o),
(516,1234,c),
(496,1237,o),
(461,1239,o),
(418,1239,cs),
(297,1239,o),
(118,1228,o),
(63,1217,c),
(76,818,o),
(93,204,o),
(93,26,c),
(130,20,o),
(214,17,o),
(314,17,cs)
);
},
{
alignment = -1;
pos = (960,0);
ref = L;
}
);
width = 1921;
},
{
anchors = (
{
name = caret_1;
pos = (1021,0);
}
);
layerId = "B5195C1E-69AB-4BC6-9855-DF55601A0735";
shapes = (
{
closed = 1;
nodes = (
(494,6,o),
(675,17,o),
(866,48,c),
(873,75,o),
(880,140,o),
(881,152,c),
(811,140,o),
(468,92,o),
(339,92,c),
(339,169,o),
(310,856,o),
(276,1188,c),
(263,1190,o),
(252,1191,o),
(241,1191,cs),
(227,1191,o),
(214,1190,o),
(201,1188,c),
(217,919,o),
(222,407,o),
(222,10,c),
(260,7,o),
(304,6,o),
(356,6,cs)
);
},
{
alignment = -1;
pos = (997,0);
ref = L;
}
);
width = 1958;
}
);
metricLeft = L;
metricRight = L;
},
{
glyphname = M_M;
kernLeft = M;
kernRight = M;
lastChange = "2020-07-22 15:09:00 +0000";
layers = (
{
anchors = (
{
name = caret_1;
pos = (1461,0);
}
);
layerId = "B5042207-EFBA-41B6-8DFD-104A953B46A6";
shapes = (
{
closed = 1;
nodes = (
(195,-27,o),
(448,-3,o),
(496,3,c),
(495,23,o),
(472,344,o),
(445,583,c),
(504,435,o),
(587,80,o),
(593,21,c),
(699,25,o),
(820,30,o),
(909,43,c),
(943,153,o),
(998,428,o),
(1027,582,c),
(1027,408,o),
(1019,146,o),
(1011,24,c),
(1132,28,o),
(1324,41,o),
(1410,48,c),
(1410,445,o),
(1384,1063,o),
(1354,1254,c),
(1265,1256,o),
(1037,1260,o),
(948,1260,c),
(892,1093,o),
(836,916,o),
(767,691,c),
(701,877,o),
(614,1093,o),
(550,1203,c),
(486,1203,o),
(203,1200,o),
(90,1196,c),
(83,1034,o),
(82,333,o),
(82,-34,c)
);
},
{
alignment = -1;
pos = (1444,0);
ref = M;
}
);
width = 2936;
},
{
anchors = (
{
name = caret_1;
pos = (1408,0);
}
);
layerId = "B5195C1E-69AB-4BC6-9855-DF55601A0735";
shapes = (
{
closed = 1;
nodes = (
(262,-9,o),
(308,-7,o),
(345,0,c),
(337,68,o),
(275,664,o),
(260,1029,c),
(348,715,o),
(589,100,o),
(628,29,c),
(667,20,o),
(709,19,o),
(749,19,c),
(792,103,o),
(1023,865,o),
(1071,1103,c),
(1105,838,o),
(1158,375,o),
(1158,42,c),
(1197,37,o),
(1231,37,o),
(1257,37,c),
(1257,345,o),
(1180,1029,o),
(1115,1297,c),
(1079,1297,o),
(1061,1297,o),
(1026,1297,c),
(1005,1213,o),
(843,584,o),
(686,115,c),
(628,282,o),
(293,1192,o),
(282,1210,c),
(270,1210,o),
(191,1200,o),
(173,1195,c),
(173,1043,o),
(210,323,o),
(241,-9,c)
);
},
{
alignment = -1;
pos = (1375,0);
ref = M;
}
);
width = 2754;
}
);
metricLeft = M;
metricRight = M;
},
{
glyphname = M_M.ss02;
kernLeft = M;
kernRight = M;
lastChange = "2023-07-10 13:01:53 +0000";
layers = (
{
layerId = "B5042207-EFBA-41B6-8DFD-104A953B46A6";
shapes = (
{
pos = (20,0);
ref = M.ss02;
},
{
closed = 1;
nodes = (
(1578,37,o),
(1893,90,o),
(1942,112,c),
(1942,179,o),
(1896,473,o),
(1896,627,c),
(1934,591,o),
(2113,336,o),
(2148,274,c),
(2208,344,o),
(2309,472,o),
(2367,591,c),
(2380,468,o),
(2359,208,o),
(2359,124,c),
(2431,119,o),
(2658,114,o),
(2824,114,c),
(2783,756,o),
(2612,1118,o),
(2549,1214,c),
(2456,1156,o),
(2267,963,o),
(2194,850,c),
(2123,980,o),
(1857,1243,o),
(1748,1311,c),
(1680,1200,o),
(1514,687,o),
(1514,37,c)
);
}
);
width = 2904;
},
{
layerId = "B5195C1E-69AB-4BC6-9855-DF55601A0735";
shapes = (
{
pos = (40,0);
ref = M.ss02;
},
{
closed = 1;
nodes = (
(1540,28,o),
(1585,31,o),
(1606,33,c),
(1616,502,o),
(1667,899,o),
(1680,1044,c),
(1768,882,o),
(2007,408,o),
(2058,311,c),
(2097,389,o),
(2366,884,o),
(2440,993,c),
(2492,768,o),
(2520,521,o),
(2543,45,c),
(2569,47,o),
(2607,53,o),
(2634,60,c),
(2618,625,o),
(2528,1081,o),
(2472,1232,c),
(2362,1070,o),
(2123,676,o),
(2062,490,c),
(2008,645,o),
(1708,1222,o),
(1635,1312,c),
(1602,1237,o),
(1512,418,o),
(1512,28,c)
);
}
);
width = 2807;
}
);
metricLeft = M;
metricRight = M;
},
{
glyphname = N_N;
kernLeft = H;
kernRight = H;
lastChange = "2020-07-22 15:09:08 +0000";
layers = (
{
anchors = (
{
name = caret_1;
pos = (1206,0);
}
);
layerId = "B5042207-EFBA-41B6-8DFD-104A953B46A6";
shapes = (
{
closed = 1;
nodes = (
(1419,-3,o),
(1578,0,o),
(1718,10,c),
(1718,152,o),
(1710,497,o),
(1694,618,c),
(1777,495,o),
(1954,132,o),
(2019,-2,c),
(2097,-2,o),
(2394,10,o),
(2408,14,c),
(2428,72,o),
(2447,386,o),
(2447,685,cs),
(2447,849,o),
(2441,1008,o),
(2427,1118,c),
(2363,1140,o),
(2087,1159,o),
(2044,1159,c),
(2089,586,l),
(2008,756,o),
(1860,1010,o),
(1704,1203,c),
(1635,1197,o),
(1388,1181,o),
(1318,1179,c),
(1318,843,o),
(1285,161,o),
(1277,-3,c)
);
},
{
alignment = -1;
ref = N;
}
);
width = 2526;
},
{
anchors = (
{
name = caret_1;
pos = (1248,0);
}
);
layerId = "B5195C1E-69AB-4BC6-9855-DF55601A0735";
shapes = (
{
closed = 1;
nodes = (
(1494,-3,o),
(1535,0,o),
(1571,10,c),
(1571,272,o),
(1534,1099,o),
(1532,1108,c),
(1626,959,o),
(2083,182,o),
(2158,47,c),
(2183,43,o),
(2215,39,o),
(2256,39,c),
(2272,84,o),
(2281,279,o),
(2281,501,cs),
(2281,724,o),
(2272,975,o),
(2251,1130,c),
(2226,1140,o),
(2195,1149,o),
(2152,1149,c),
(2191,198,l),
(2046,468,o),
(1798,861,o),
(1569,1217,c),
(1530,1217,o),
(1468,1207,o),
(1439,1200,c),
(1442,1131,o),
(1460,364,o),
(1460,-3,c)
);
},
{
alignment = -1;
ref = N;
}
);
width = 2533;
}
);
metricLeft = N;
metricRight = N;
},
{
glyphname = N_N.ss02;
kernLeft = H;
kernRight = H;
lastChange = "2023-07-10 13:09:14 +0000";
layers = (
{
anchors = (
{
name = caret_1;
pos = (1227,0);
}
);
layerId = "B5042207-EFBA-41B6-8DFD-104A953B46A6";
shapes = (
{
closed = 1;
nodes = (
(1434,-103,o),
(1739,-90,o),
(1809,-70,c),
(1809,72,o),
(1805,423,o),
(1800,513,c),
(1883,390,o),
(2281,-43,o),
(2346,-102,c),
(2404,62,o),
(2485,961,o),
(2488,1118,c),
(2424,1140,o),
(2098,1159,o),
(2055,1159,c),
(2059,762,l),
(1954,882,o),
(1591,1146,o),
(1494,1179,c),
(1404,843,o),
(1356,61,o),
(1348,-103,c)
);
},
{
alignment = -1;
pos = (21,0);
ref = N.ss02;
}
);
width = 2569;
},
{
anchors = (
{
name = caret_1;
pos = (1278,0);
}
);
layerId = "B5195C1E-69AB-4BC6-9855-DF55601A0735";
shapes = (
{
closed = 1;
nodes = (
(1384,-3,o),
(1413,0,o),
(1449,10,c),
(1449,272,o),
(1408,973,o),
(1406,982,c),
(1520,856,o),
(1963,102,o),
(2038,-43,c),
(2074,60,o),
(2131,822,o),
(2131,1130,c),
(2106,1140,o),
(2065,1147,o),
(2032,1149,c),
(2003,196,l),
(1865,453,o),
(1522,1070,o),
(1319,1170,c),
(1322,1101,o),
(1350,364,o),
(1350,-3,c)
);
},
{
alignment = -1;
pos = (30,0);
ref = N.ss02;
}
);
width = 2383;
}
);
metricLeft = N;
metricRight = N;
},
{
glyphname = O_O;
kernLeft = O;
kernRight = O;
lastChange = "2020-07-22 15:09:16 +0000";
layers = (
{
anchors = (
{
name = caret_1;
pos = (1363,0);
}
);
layerId = "B5042207-EFBA-41B6-8DFD-104A953B46A6";
shapes = (
{
closed = 1;
nodes = (
(1105,-32,o),
(1294,131,o),
(1294,588,cs),
(1294,1055,o),
(996,1244,o),
(642,1244,cs),
(304,1244,o),
(41,1036,o),
(41,622,cs),
(41,185,o),
(212,-32,o),
(636,-32,cs)
);
},
{
closed = 1;
nodes = (
(522,331,o),
(441,475,o),
(441,655,cs),
(441,815,o),
(515,936,o),
(677,936,cs),
(860,936,o),
(930,823,o),
(930,637,cs),
(930,450,o),
(873,331,o),
(683,331,cs)
);
},
{
alignment = -1;
pos = (1359,0);
ref = O;
}
);
width = 2713;
},
{
anchors = (
{
name = caret_1;
pos = (1409,0);
}
);
layerId = "B5195C1E-69AB-4BC6-9855-DF55601A0735";
shapes = (
{
closed = 1;
nodes = (
(1086,-50,o),
(1290,228,o),
(1290,595,cs),
(1290,977,o),
(1117,1245,o),
(759,1245,cs),
(369,1245,o),
(137,1044,o),
(137,649,cs),
(137,245,o),
(361,-50,o),
(744,-50,cs)
);
},
{
closed = 1;
nodes = (
(434,29,o),
(230,307,o),
(230,632,cs),
(230,974,o),
(418,1164,o),
(753,1164,cs),
(1071,1164,o),
(1195,933,o),
(1195,568,cs),
(1195,254,o),
(1015,29,o),
(732,29,cs)
);
},
{
alignment = -1;
pos = (1384,0);
ref = O;
}
);
width = 2738;
}
);
metricLeft = O;
metricRight = O;
},
{
glyphname = P_P;
kernLeft = H;
kernRight = P;
lastChange = "2020-07-22 15:09:22 +0000";
layers = (
{
anchors = (
{
name = caret_1;
pos = (905,0);
}
);
layerId = "B5042207-EFBA-41B6-8DFD-104A953B46A6";
shapes = (
{
closed = 1;
nodes = (
(1242,-28,o),
(1391,-11,o),
(1525,23,c),
(1523,72,o),
(1502,388,o),
(1496,448,c),
(1737,448,o),
(1974,504,o),
(1974,819,cs),
(1974,1085,o),
(1820,1189,o),
(1550,1189,cs),
(1414,1189,o),
(1216,1157,o),
(1059,1125,c),
(1066,979,o),
(1119,-11,o),
(1124,-37,c)
);
},
{
closed = 1;
nodes = (
(1469,784,o),
(1458,864,o),
(1451,908,c),
(1503,918,o),
(1536,923,o),
(1592,923,cs),
(1625,923,o),
(1663,905,o),
(1663,851,cs),
(1663,770,o),
(1567,745,o),
(1473,742,c)
);
},
{
alignment = -1;
ref = P;
}
);
width = 2006;
},
{
anchors = (
{
name = caret_1;
pos = (836,0);
}
);
layerId = "B5195C1E-69AB-4BC6-9855-DF55601A0735";
shapes = (
{
closed = 1;
nodes = (
(1147,-8,o),
(1193,-6,o),
(1210,-4,c),
(1210,231,o),
(1196,450,o),
(1188,561,c),
(1510,561,o),
(1769,632,o),
(1769,918,cs),
(1769,1111,o),
(1662,1190,o),
(1469,1190,cs),
(1338,1190,o),
(1178,1165,o),
(1074,1141,c),
(1097,629,o),
(1123,20,o),
(1123,-8,c)
);
},
{
closed = 1;
nodes = (
(1180,665,o),
(1165,1032,o),
(1165,1077,c),
(1213,1086,o),
(1365,1113,o),
(1469,1113,cs),
(1622,1113,o),
(1680,1016,o),
(1680,926,cs),
(1680,645,o),
(1390,629,o),
(1184,629,c)
);
},
{
alignment = -1;
ref = P;
}
);
width = 1914;
}
);
metricLeft = P;
metricRight = P;
},
{
glyphname = R_R;
kernLeft = H;
kernRight = R;
lastChange = "2020-07-22 15:09:30 +0000";
layers = (
{
anchors = (
{
name = caret_1;
pos = (1055,0);
}
);
layerId = "B5195C1E-69AB-4BC6-9855-DF55601A0735";
shapes = (
{
closed = 1;
nodes = (
(1844,-8,o),
(1901,-2,o),
(1921,10,c),
(1893,167,o),
(1804,573,o),
(1757,672,c),
(1853,705,o),
(1955,821,o),
(1955,988,cs),
(1955,1253,o),
(1759,1280,o),
(1509,1302,cs),
(1395,1312,o),
(1325,1312,o),
(1269,1312,c),
(1269,1128,o),
(1246,437,o),
(1222,20,c),
(1254,12,o),
(1302,5,o),
(1324,5,c),
(1327,79,o),
(1336,384,o),
(1336,623,c),
(1382,623,o),
(1617,633,o),
(1683,660,c),
(1708,586,o),
(1807,150,o),
(1824,-8,c)
);
},
{
closed = 1;
nodes = (
(1380,694,o),
(1359,694,o),
(1342,694,c),
(1342,742,o),
(1342,1180,o),
(1342,1239,c),
(1370,1239,o),
(1479,1237,o),
(1522,1233,cs),
(1680,1218,o),
(1882,1193,o),
(1882,994,cs),
(1882,753,o),
(1668,694,o),
(1401,694,cs)
);
},
{
alignment = -1;
ref = R;
}
);
width = 2133;
},
{
anchors = (
{
name = caret_1;
pos = (1095,0);
}
);
layerId = "B5042207-EFBA-41B6-8DFD-104A953B46A6";
shapes = (
{
closed = 1;
nodes = (
(1766,-14,o),
(2050,5,o),
(2142,30,c),
(2108,148,o),
(2003,486,o),
(1940,632,c),
(2049,680,o),
(2167,753,o),
(2167,955,cs),
(2167,1251,o),
(1925,1306,o),
(1646,1319,cs),
(1497,1326,o),
(1233,1333,o),
(1186,1333,c),
(1186,881,o),
(1168,464,o),
(1133,66,c),
(1225,44,o),
(1449,20,o),
(1522,15,c),
(1532,127,o),
(1545,426,o),
(1545,555,c),
(1572,555,o),
(1607,560,o),
(1634,567,c),
(1665,461,o),
(1719,145,o),
(1745,-14,c)
);
},
{
closed = 1;
nodes = (
(1574,848,o),
(1555,849,o),
(1536,851,c),
(1536,899,o),
(1533,979,o),
(1530,1035,c),
(1542,1036,o),
(1560,1036,o),
(1581,1036,cs),
(1708,1036,o),
(1801,1027,o),
(1801,952,cs),
(1801,863,o),
(1713,848,o),
(1600,848,cs)
);
},
{
alignment = -1;
ref = R;
}
);
width = 2177;
}
);
metricLeft = R;
metricRight = R;
},
{
glyphname = S_S;
kernLeft = S;
kernRight = S;
lastChange = "2020-07-22 15:09:38 +0000";
layers = (
{
anchors = (
{
name = caret_1;
pos = (1089,0);
}
);
layerId = "B5042207-EFBA-41B6-8DFD-104A953B46A6";
shapes = (
{
closed = 1;
nodes = (
(868,8,o),
(1096,131,o),
(1096,414,cs),
(1096,663,o),
(878,765,o),
(566,870,cs),
(462,905,o),
(441,934,o),
(441,959,cs),
(441,1000,o),
(488,1019,o),
(535,1019,cs),
(634,1019,o),
(737,968,o),
(820,913,c),
(850,954,o),
(952,1113,o),
(979,1156,c),
(917,1221,o),
(704,1318,o),
(531,1318,cs),
(263,1318,o),
(56,1198,o),
(56,961,cs),
(56,777,o),
(155,648,o),
(431,567,cs),
(638,506,o),
(710,447,o),
(710,396,cs),
(710,350,o),
(669,316,o),
(558,316,cs),
(471,316,o),
(352,369,o),
(234,468,c),
(203,434,o),
(64,276,o),
(19,212,c),
(202,59,o),
(380,8,o),
(558,8,cs)
);
},
{
alignment = -1;
pos = (1123,0);
ref = S;
}
);
width = 2275;
},
{
anchors = (
{
name = caret_1;
pos = (1139,0);
}
);
layerId = "B5195C1E-69AB-4BC6-9855-DF55601A0735";
shapes = (
{
closed = 1;
nodes = (
(866,10,o),
(1023,175,o),
(1023,402,cs),
(1023,654,o),
(786,729,o),
(517,799,cs),
(382,834,o),
(218,887,o),
(218,1038,cs),
(218,1181,o),
(315,1238,o),
(492,1238,cs),
(752,1238,o),
(894,1142,o),
(930,1117,c),
(938,1132,o),
(954,1176,o),
(957,1191,c),
(920,1216,o),
(754,1309,o),
(518,1309,cs),
(295,1309,o),
(132,1241,o),
(132,1027,cs),
(132,864,o),
(270,771,o),
(499,715,cs),
(725,660,o),
(942,603,o),
(942,398,cs),
(942,219,o),
(823,91,o),
(572,91,cs),
(336,91,o),
(207,176,o),
(108,296,c),
(84,279,o),
(53,253,o),
(39,240,c),
(105,153,o),
(252,10,o),
(587,10,cs)
);
},
{
alignment = -1;
pos = (1135,0);
ref = S;
}
);
width = 2287;
}
);
metricLeft = S;
metricRight = S;
},
{
glyphname = T_T;
kernLeft = T;
kernRight = T;
lastChange = "2020-07-22 15:09:43 +0000";
layers = (
{
anchors = (
{
name = caret_1;
pos = (905,0);
}
);
layerId = "B5042207-EFBA-41B6-8DFD-104A953B46A6";
shapes = (
{
closed = 1;
nodes = (
(1057,908,o),
(1188,905,o),
(1237,905,c),
(1218,699,o),
(1185,151,o),
(1185,12,c),
(1256,0,o),
(1500,-6,o),
(1603,-6,c),
(1598,119,o),
(1598,701,o),
(1598,888,c),
(1637,888,o),
(1822,868,o),
(1853,857,c),
(1872,912,o),
(1898,1059,o),
(1912,1220,c),
(1806,1242,o),
(1311,1257,o),
(1023,1257,c),
(1020,1220,o),
(1003,992,o),
(1003,915,c)
);
},
{
alignment = -1;
ref = T;
}
);
width = 1965;
},
{
anchors = (
{
name = caret_1;
pos = (1009,0);
}
);
layerId = "B5195C1E-69AB-4BC6-9855-DF55601A0735";
shapes = (
{
closed = 1;
nodes = (
(1148,1219,o),
(1295,1223,o),
(1413,1223,c),
(1413,1045,o),
(1413,443,o),
(1413,20,c),
(1431,20,o),
(1498,21,o),
(1515,24,c),
(1510,55,o),
(1503,1047,o),
(1503,1219,c),
(1637,1219,o),
(1924,1195,o),
(1947,1193,c),
(1947,1217,o),
(1947,1261,o),
(1944,1269,c),
(1823,1285,o),
(1479,1299,o),
(1051,1299,c),
(1052,1272,o),
(1054,1240,o),
(1056,1216,c)
);
},
{
alignment = -1;
ref = T;
}
);
width = 1984;
}
);
metricLeft = T;
metricRight = T;
},
{
glyphname = a;
kernLeft = a;
kernRight = a;
lastChange = "2020-06-18 18:47:30 +0000";
layers = (
{
anchors = (
{
name = bottom;
pos = (620,0);
},
{
name = ogonek;
pos = (1172,7);
},
{
name = top;
pos = (620,1063);
}
);
layerId = "B5195C1E-69AB-4BC6-9855-DF55601A0735";
shapes = (
{
closed = 1;
nodes = (
(741,-24,o),
(921,75,o),
(970,145,c),
(977,87,o),
(1023,0,o),
(1129,0,cs),
(1214,0,o),
(1305,73,o),
(1305,236,c),
(1216,249,l),
(1216,149,o),
(1182,92,o),
(1132,92,cs),
(1095,92,o),
(1076,104,o),
(1067,177,cs),
(1059,238,o),
(1057,340,o),
(1057,513,cs),
(1057,657,o),
(1036,734,o),
(1001,810,cs),
(937,948,o),
(785,1055,o),
(572,1055,cs),
(356,1055,o),
(188,956,o),
(105,822,c),
(184,767,l),
(247,881,o),
(372,975,o),
(566,975,cs),
(744,975,o),
(873,887,o),
(933,762,cs),
(954,719,o),
(963,666,o),
(970,611,c),
(938,621,o),
(767,665,o),
(606,665,cs),
(306,665,o),
(102,540,o),
(102,312,cs),
(102,68,o),
(298,-24,o),
(550,-24,cs)
);
},
{
closed = 1;
nodes = (
(344,55,o),
(188,107,o),
(188,314,cs),
(188,477,o),
(357,586,o),
(593,586,cs),
(777,586,o),
(925,545,o),
(972,530,c),
(967,451,o),
(963,372,o),
(963,250,c),
(869,135,o),
(719,55,o),
(555,55,cs)
);
}
);
width = 1295;
},
{
anchors = (
{
name = bottom;
pos = (600,0);
},
{
name = ogonek;
pos = (1164,0);
},
{
name = top;
pos = (600,1063);
}
);
layerId = "B5042207-EFBA-41B6-8DFD-104A953B46A6";
shapes = (
{
closed = 1;
nodes = (
(716,-15,o),
(843,60,o),
(870,139,c),
(882,45,o),
(1006,-11,o),
(1125,-11,cs),
(1236,-11,o),
(1301,27,o),
(1321,55,c),
(1212,316,l),
(1201,305,o),
(1173,297,o),
(1142,297,cs),
(1106,297,o),
(1084,320,o),
(1084,431,cs),
(1084,504,o),
(1081,572,o),
(1074,633,cs),
(1063,724,o),
(1042,801,o),
(1009,864,cs),
(935,1004,o),
(796,1076,o),
(552,1076,cs),
(338,1076,o),
(133,992,o),
(41,869,c),
(340,677,l),
(378,725,o),
(457,775,o),
(544,775,cs),
(634,775,o),
(678,749,o),
(711,718,cs),
(735,696,o),
(749,657,o),
(749,629,c),
(717,652,o),
(637,675,o),
(554,675,cs),
(297,675,o),
(48,588,o),
(48,330,cs),
(48,77,o),
(251,-15,o),
(497,-15,cs)
);
},
{
closed = 1;
nodes = (
(491,272,o),
(439,296,o),
(439,350,cs),
(439,409,o),
(533,423,o),
(615,423,cs),
(673,423,o),
(748,413,o),
(772,402,c),
(772,387,o),
(776,350,o),
(780,335,c),
(754,313,o),
(656,272,o),
(584,272,cs)
);
}
);
width = 1295;
}
);
unicode = 97;
},
{
glyphname = a.ss01;
kernLeft = a;
kernRight = n;
lastChange = "2020-06-18 18:47:49 +0000";
layers = (
{
anchors = (
{
name = bottom;
pos = (600,0);
},
{
name = ogonek;
pos = (1126,17);
},
{
name = top;
pos = (600,1063);
}
);
layerId = "B5042207-EFBA-41B6-8DFD-104A953B46A6";
shapes = (
{
closed = 1;
nodes = (
(634,-10,o),
(704,42,o),
(757,99,c),
(759,77,o),
(765,19,o),
(768,-3,c),
(884,-3,o),
(1057,10,o),
(1126,17,c),
(1125,46,o),
(1094,906,o),
(1077,1036,c),
(1019,1041,o),
(826,1044,o),
(759,1044,c),
(756,1024,o),
(750,968,o),
(745,918,c),
(738,934,o),
(653,1007,o),
(509,1007,cs),
(215,1007,o),
(48,822,o),
(48,516,cs),
(48,229,o),
(192,-10,o),
(493,-10,cs)
);
},
{
closed = 1;
nodes = (
(464,359,o),
(400,405,o),
(400,517,cs),
(400,616,o),
(455,673,o),
(561,673,cs),
(618,673,o),
(691,652,o),
(720,622,c),
(720,563,o),
(724,493,o),
(728,436,c),
(676,366,o),
(603,359,o),
(539,359,cs)
);
}
);
width = 1200;
},
{
anchors = (
{
name = bottom;
pos = (600,0);
},
{
name = ogonek;
pos = (1048,19);
},
{
name = top;
pos = (600,1063);
}
);
layerId = "B5195C1E-69AB-4BC6-9855-DF55601A0735";
shapes = (
{
closed = 1;
nodes = (
(803,-9,o),
(933,144,o),
(942,173,c),
(944,157,o),
(950,48,o),
(952,9,c),
(986,9,o),
(1021,14,o),
(1048,19,c),
(1040,83,o),
(1007,712,o),
(1007,1021,c),
(990,1025,o),
(957,1029,o),
(926,1029,c),
(926,993,o),
(926,949,o),
(926,935,c),
(878,960,o),
(715,1035,o),
(552,1035,cs),
(262,1035,o),
(92,866,o),
(92,513,cs),
(92,219,o),
(249,-9,o),
(533,-9,cs)
);
},
{
closed = 1;
nodes = (
(311,69,o),
(185,247,o),
(185,488,cs),
(185,811,o),
(295,956,o),
(572,956,cs),
(740,956,o),
(876,878,o),
(926,849,c),
(926,780,o),
(936,369,o),
(941,299,c),
(924,266,o),
(822,69,o),
(553,69,cs)
);
}
);
width = 1200;
}
);
},
{
glyphname = aogonek;
lastChange = "2020-07-03 19:58:07 +0000";
layers = (
{
layerId = "B5195C1E-69AB-4BC6-9855-DF55601A0735";
shapes = (
{
closed = 1;
nodes = (
(1220,-396,o),
(1171,-416,o),
(1077,-416,cs),
(987,-416,o),
(930,-385,o),
(930,-283,cs),
(930,-170,o),
(1060,-36,o),
(1172,7,c),
(1107,52,l),
(968,-7,o),
(844,-147,o),
(844,-290,cs),
(844,-419,o),
(924,-496,o),
(1061,-496,cs),
(1165,-496,o),
(1237,-474,o),
(1293,-450,c),
(1293,-363,l)
);
},
{
ref = a;
}
);
width = 1295;
},
{
layerId = "B5042207-EFBA-41B6-8DFD-104A953B46A6";
shapes = (
{
closed = 1;
nodes = (
(1239,-282,o),
(1194,-291,o),
(1151,-291,cs),
(1098,-291,o),
(1044,-267,o),
(1044,-195,cs),
(1044,-115,o),
(1119,-31,o),
(1164,0,c),
(1028,58,l),
(963,39,o),
(781,-112,o),
(781,-284,cs),
(781,-451,o),
(925,-536,o),
(1083,-536,cs),
(1187,-536,o),
(1249,-523,o),
(1278,-511,c),
(1278,-254,l)
);
},
{
ref = a;
}
);
width = 1295;
}
);
unicode = 261;
},
{
glyphname = aogonek.ss01;
lastChange = "2020-07-21 16:10:22 +0000";
layers = (
{
layerId = "B5195C1E-69AB-4BC6-9855-DF55601A0735";
shapes = (
{
closed = 1;
nodes = (
(1096,-384,o),
(1047,-404,o),
(953,-404,cs),
(863,-404,o),
(806,-373,o),
(806,-271,cs),
(806,-158,o),
(936,-24,o),
(1048,19,c),
(983,64,l),
(844,5,o),
(720,-135,o),
(720,-278,cs),
(720,-407,o),
(800,-484,o),
(937,-484,cs),
(1041,-484,o),
(1113,-462,o),
(1169,-438,c),
(1169,-351,l)
);
},
{
ref = a.ss01;
}
);
width = 1200;
},
{
layerId = "B5042207-EFBA-41B6-8DFD-104A953B46A6";
shapes = (
{
closed = 1;
nodes = (
(1091,-265,o),
(1046,-274,o),
(1003,-274,cs),
(950,-274,o),
(896,-250,o),
(896,-178,cs),
(896,-98,o),
(971,-14,o),
(1016,17,c),
(880,75,l),
(815,56,o),
(633,-95,o),
(633,-267,cs),
(633,-434,o),
(777,-519,o),
(935,-519,cs),
(1039,-519,o),
(1101,-506,o),
(1130,-494,c),
(1130,-237,l)
);
},
{
ref = a.ss01;
}
);
width = 1200;
}
);
},
{
glyphname = ae;
kernLeft = a;
kernRight = e;
lastChange = "2020-06-29 16:07:46 +0000";
layers = (
{
anchors = (
{
name = bottom;
pos = (939,0);
},
{
name = top;
pos = (939,1063);
}
);
layerId = "B5042207-EFBA-41B6-8DFD-104A953B46A6";
shapes = (
{
closed = 1;
nodes = (
(835,-18,o),
(1083,190,o),
(1083,462,cs),
(1083,632,o),
(1052,806,o),
(922,957,cs),
(821,1074,o),
(674,1115,o),
(538,1115,cs),
(374,1115,o),
(162,1039,o),
(69,952,c),
(303,727,l),
(350,768,o),
(462,798,o),
(541,798,cs),
(620,798,o),
(667,772,o),
(693,734,cs),
(709,711,o),
(715,682,o),
(715,653,c),
(684,677,o),
(585,684,o),
(532,684,cs),
(296,684,o),
(40,604,o),
(40,364,cs),
(40,111,o),
(276,-18,o),
(538,-18,cs)
);
},
{
closed = 1;
nodes = (
(464,272,o),
(404,275,o),
(404,338,cs),
(404,406,o),
(532,428,o),
(622,428,cs),
(661,428,o),
(699,422,o),
(730,408,c),
(733,391,o),
(734,368,o),
(734,343,cs),
(734,313,o),
(655,272,o),
(523,272,cs)
);
},
{
alignment = -1;
pos = (725,0);
ref = e;
}
);
width = 1762;
},
{
anchors = (
{
name = bottom;
pos = (857,0);
},
{
name = top;
pos = (857,1063);
}
);
layerId = "B5195C1E-69AB-4BC6-9855-DF55601A0735";
shapes = (
{
closed = 1;
nodes = (
(659,22,o),
(922,172,o),
(922,368,cs),
(922,694,o),
(885,850,o),
(799,950,cs),
(713,1050,o),
(622,1105,o),
(482,1105,cs),
(250,1105,o),
(109,978,o),
(49,865,c),
(120,806,l),
(169,928,o),
(289,1027,o),
(470,1027,cs),
(604,1027,o),
(693,972,o),
(749,877,cs),
(785,815,o),
(807,738,o),
(819,648,c),
(788,658,o),
(561,692,o),
(463,692,cs),
(245,692,o),
(66,571,o),
(66,342,cs),
(66,95,o),
(267,22,o),
(470,22,cs)
);
},
{
closed = 1;
nodes = (
(312,94,o),
(155,162,o),
(155,347,cs),
(155,508,o),
(291,617,o),
(448,617,cs),
(590,617,o),
(782,587,o),
(828,575,c),
(835,518,o),
(844,434,o),
(844,383,cs),
(844,262,o),
(690,94,o),
(462,94,cs)
);
},
{
alignment = -1;
pos = (744,0);
ref = e;
}
);
width = 1762;
}
);
unicode = 230;
},
{
glyphname = b;
kernLeft = h;
kernRight = o;
lastChange = "2020-06-17 15:15:09 +0000";
layers = (
{
anchors = (
{
name = bottom;
pos = (620,0);
},
{
name = top;
pos = (620,1470);
}
);
layerId = "B5042207-EFBA-41B6-8DFD-104A953B46A6";
shapes = (
{
closed = 1;
nodes = (
(196,-15,o),
(335,-20,o),
(483,-19,c),
(482,-9,o),
(477,75,o),
(475,114,c),
(503,73,o),
(606,0,o),
(743,0,cs),
(981,0,o),
(1139,173,o),
(1139,447,cs),
(1139,772,o),
(974,918,o),
(748,918,cs),
(628,918,o),
(510,861,o),
(439,786,c),
(423,1052,o),
(422,1335,o),
(422,1450,c),
(217,1418,o),
(70,1389,o),
(52,1385,c),
(52,1173,o),
(80,162,o),
(92,-2,c)
);
},
{
closed = 1;
nodes = (
(462,400,o),
(458,479,o),
(458,501,c),
(486,539,o),
(551,603,o),
(669,603,cs),
(754,603,o),
(786,547,o),
(786,479,cs),
(786,386,o),
(738,342,o),
(624,342,cs),
(566,342,o),
(495,361,o),
(464,378,c)
);
}
);
width = 1200;
},
{
anchors = (
{
name = bottom;
pos = (600,0);
},
{
name = top;
pos = (600,1470);
}
);
layerId = "B5195C1E-69AB-4BC6-9855-DF55601A0735";
shapes = (
{
closed = 1;
nodes = (
(239,-22,o),
(303,-20,o),
(318,-19,c),
(318,12,o),
(316,74,o),
(313,113,c),
(357,76,o),
(449,6,o),
(615,6,cs),
(876,6,o),
(1018,163,o),
(1018,427,cs),
(1018,698,o),
(892,923,o),
(634,923,cs),
(444,923,o),
(297,764,o),
(279,744,c),
(268,980,o),
(256,1274,o),
(256,1438,c),
(234,1438,o),
(191,1436,o),
(173,1433,c),
(173,1221,o),
(205,142,o),
(217,-22,c)
);
},
{
closed = 1;
nodes = (
(309,258,o),
(287,583,o),
(284,626,c),
(352,709,o),
(466,844,o),
(629,844,cs),
(836,844,o),
(934,648,o),
(934,419,cs),
(934,219,o),
(838,88,o),
(629,88,cs),
(454,88,o),
(342,183,o),
(311,219,c)
);
}
);
width = 1200;
}
);
unicode = 98;
},
{
glyphname = c;
kernLeft = o;
kernRight = c;
lastChange = "2020-01-13 21:19:07 +0000";
layers = (
{
anchors = (
{
name = bottom;
pos = (513,0);
},
{
name = top;
pos = (513,1063);
}
);
layerId = "B5042207-EFBA-41B6-8DFD-104A953B46A6";
shapes = (
{
closed = 1;
nodes = (
(730,501,l),
(716,479,o),
(634,393,o),
(532,393,cs),
(408,393,o),
(380,517,o),
(380,598,cs),
(380,718,o),
(440,786,o),
(558,786,cs),
(650,786,o),
(684,727,o),
(691,711,c),
(961,855,l),
(871,1011,o),
(725,1096,o),
(537,1096,cs),
(225,1096,o),
(12,852,o),
(12,543,cs),
(12,240,o),
(212,-12,o),
(522,-12,cs),
(766,-12,o),
(925,105,o),
(993,215,c)
);
}
);
width = 1026;
},
{
anchors = (
{
name = bottom;
pos = (513,0);
},
{
name = top;
pos = (513,1063);
}
);
layerId = "B5195C1E-69AB-4BC6-9855-DF55601A0735";
shapes = (
{
closed = 1;
nodes = (
(863,246,l),
(851,226,o),
(756,73,o),
(550,73,cs),
(292,73,o),
(181,301,o),
(181,572,cs),
(181,833,o),
(311,1023,o),
(539,1023,cs),
(767,1023,o),
(833,861,o),
(848,821,c),
(908,880,l),
(864,980,o),
(735,1094,o),
(551,1094,cs),
(239,1094,o),
(92,871,o),
(92,538,cs),
(92,245,o),
(257,-4,o),
(542,-4,cs),
(743,-4,o),
(888,113,o),
(926,203,c)
);
}
);
width = 1026;
}
);
unicode = 99;
},
{
glyphname = ccedilla;
kernLeft = o;
kernRight = c;
lastChange = "2020-07-03 19:53:33 +0000";
layers = (
{
layerId = "B5042207-EFBA-41B6-8DFD-104A953B46A6";
shapes = (
{
closed = 1;
nodes = (
(708,-497,o),
(926,-413,o),
(926,-228,cs),
(926,-95,o),
(851,-37,o),
(745,-37,cs),
(675,-37,o),
(619,-65,o),
(595,-99,c),
(619,19,l),
(400,7,l),
(344,-217,l),
(379,-204,o),
(462,-189,o),
(539,-189,cs),
(606,-189,o),
(660,-200,o),
(660,-236,cs),
(660,-276,o),
(595,-297,o),
(477,-297,cs),
(444,-297,o),
(360,-285,o),
(331,-272,c),
(267,-475,l),
(287,-480,o),
(369,-497,o),
(474,-497,cs)
);
},
{
ref = c;
}
);
width = 1026;
},
{
layerId = "B5195C1E-69AB-4BC6-9855-DF55601A0735";
shapes = (
{
closed = 1;
nodes = (
(728,-462,o),
(841,-396,o),
(841,-255,cs),
(841,-144,o),
(766,-87,o),
(661,-87,cs),
(613,-87,o),
(550,-106,o),
(533,-119,c),
(554,39,l),
(482,43,l),
(446,-212,l),
(487,-194,o),
(585,-159,o),
(643,-159,cs),
(725,-159,o),
(752,-198,o),
(752,-267,cs),
(752,-359,o),
(661,-392,o),
(513,-392,cs),
(462,-392,o),
(386,-374,o),
(347,-364,c),
(329,-437,l),
(349,-444,o),
(414,-462,o),
(518,-462,cs)
);
},
{
ref = c;
}
);
width = 1026;
}
);
unicode = 231;
},
{
glyphname = d;
kernLeft = o;
kernRight = l;
lastChange = "2020-07-21 15:51:46 +0000";
layers = (
{
anchors = (
{
name = bottom;
pos = (598,0);
},
{
name = center;
pos = (841,1191);
},
{
name = top;
pos = (598,1470);
},
{
name = topright;
pos = (1145,1063);
}
);
layerId = "B5042207-EFBA-41B6-8DFD-104A953B46A6";
shapes = (
{
closed = 1;
nodes = (
(825,-5,o),
(1019,-8,o),
(1075,-8,c),
(1075,536,o),
(1088,969,o),
(1121,1424,c),
(1028,1449,o),
(897,1460,o),
(804,1460,c),
(798,1416,o),
(760,1060,o),
(750,851,c),
(715,908,o),
(606,959,o),
(477,959,cs),
(177,959,o),
(31,723,o),
(31,462,cs),
(31,207,o),
(184,-3,o),
(427,-3,cs),
(601,-3,o),
(697,67,o),
(738,120,c),
(738,84,o),
(740,27,o),
(744,3,c)
);
},
{
closed = 1;
nodes = (
(438,359,o),
(385,409,o),
(385,499,cs),
(385,580,o),
(445,643,o),
(534,643,cs),
(599,643,o),
(689,613,o),
(731,572,c),
(729,540,o),
(729,485,o),
(729,437,c),
(678,376,o),
(601,359,o),
(533,359,cs)
);
}
);
width = 1195;
},
{
anchors = (
{
name = bottom;
pos = (598,0);
},
{
name = center;
pos = (882,1220);
},
{
name = top;
pos = (598,1470);
},
{
name = topright;
pos = (1065,1005);
}
);
layerId = "B5195C1E-69AB-4BC6-9855-DF55601A0735";
shapes = (
{
closed = 1;
nodes = (
(930,2,o),
(988,1,o),
(1005,1,c),
(1005,456,o),
(1006,927,o),
(1045,1401,c),
(1027,1402,o),
(990,1404,o),
(961,1404,c),
(952,1317,o),
(930,944,o),
(927,838,c),
(882,872,o),
(748,959,o),
(537,959,cs),
(238,959,o),
(86,728,o),
(86,473,cs),
(86,183,o),
(239,8,o),
(524,8,cs),
(810,8,o),
(915,184,o),
(922,203,c),
(922,174,o),
(922,43,o),
(922,3,c)
);
},
{
closed = 1;
nodes = (
(302,85,o),
(172,214,o),
(172,469,cs),
(172,723,o),
(301,878,o),
(553,878,cs),
(736,878,o),
(876,790,o),
(925,749,c),
(923,680,o),
(920,393,o),
(920,321,c),
(904,283,o),
(794,85,o),
(537,85,cs)
);
}
);
width = 1195;
}
);
unicode = 100;
},
{
glyphname = dcroat;
kernLeft = o;
kernRight = l;
lastChange = "2020-06-18 20:04:41 +0000";
layers = (
{
layerId = "B5042207-EFBA-41B6-8DFD-104A953B46A6";
shapes = (
{
closed = 1;
nodes = (
(1191,1133,o),
(1197,1188,o),
(1197,1245,c),
(1046,1273,o),
(664,1300,o),
(529,1300,c),
(526,1270,o),
(518,1184,o),
(518,1099,c),
(634,1099,o),
(979,1089,o),
(1183,1073,c)
);
},
{
ref = d;
}
);
width = 1195;
},
{
layerId = "B5195C1E-69AB-4BC6-9855-DF55601A0735";
shapes = (
{
closed = 1;
nodes = (
(1187,1152,o),
(1184,1179,o),
(1179,1188,c),
(1112,1200,o),
(716,1229,o),
(574,1229,c),
(572,1222,o),
(572,1194,o),
(572,1170,c),
(740,1170,o),
(1017,1153,o),
(1187,1138,c)
);
},
{
ref = d;
}
);
width = 1195;
}
);
unicode = 273;
},
{
glyphname = eth;
kernLeft = h;
kernRight = b;
lastChange = "2020-06-18 20:06:06 +0000";
layers = (
{
layerId = "B5042207-EFBA-41B6-8DFD-104A953B46A6";
shapes = (
{
closed = 1;
nodes = (
(887,-17,o),
(1123,197,o),
(1123,475,cs),
(1123,867,o),
(969,1055,o),
(675,1188,c),
(699,1239,o),
(714,1271,o),
(730,1321,c),
(459,1412,l),
(441,1366,o),
(427,1333,o),
(406,1292,c),
(371,1304,o),
(285,1325,o),
(227,1330,c),
(78,1075,l),
(142,1063,o),
(206,1048,o),
(253,1032,c),
(236,1005,o),
(227,991,o),
(184,949,c),
(236,926,o),
(346,877,o),
(427,836,c),
(461,870,o),
(499,910,o),
(530,950,c),
(560,938,o),
(649,874,o),
(689,826,c),
(673,832,o),
(637,839,o),
(605,839,cs),
(320,839,o),
(90,660,o),
(90,387,cs),
(90,94,o),
(318,-17,o),
(598,-17,cs)
);
},
{
closed = 1;
nodes = (
(522,297,o),
(426,334,o),
(426,421,cs),
(426,527,o),
(518,583,o),
(624,583,cs),
(720,583,o),
(777,529,o),
(777,442,cs),
(777,327,o),
(673,297,o),
(600,297,cs)
);
}
);
width = 1200;
},
{
layerId = "B5195C1E-69AB-4BC6-9855-DF55601A0735";
shapes = (
{
closed = 1;
nodes = (
(875,-17,o),
(1022,205,o),
(1022,490,cs),
(1022,808,o),
(870,1009,o),
(574,1128,c),
(598,1179,o),
(636,1280,o),
(651,1330,c),
(562,1366,l),
(553,1309,o),
(511,1195,o),
(490,1154,c),
(454,1166,o),
(253,1229,o),
(195,1244,c),
(150,1169,l),
(200,1161,o),
(377,1107,o),
(446,1084,c),
(429,1046,o),
(358,938,o),
(343,923,c),
(361,912,o),
(388,896,o),
(412,887,c),
(444,923,o),
(507,1013,o),
(530,1056,c),
(678,1008,o),
(870,874,o),
(901,730,c),
(855,790,o),
(745,846,o),
(605,846,cs),
(302,846,o),
(157,600,o),
(157,342,cs),
(157,101,o),
(331,-17,o),
(581,-17,cs)
);
},
{
closed = 1;
nodes = (
(406,53,o),
(249,155,o),
(249,352,cs),
(249,564,o),
(367,774,o),
(613,774,cs),
(789,774,o),
(931,646,o),
(931,463,cs),
(931,253,o),
(832,53,o),
(576,53,cs)
);
}
);
width = 1200;
}
);
unicode = 240;
},
{
glyphname = e;
kernLeft = o;
kernRight = e;
lastChange = "2020-07-16 19:45:10 +0000";
layers = (
{
anchors = (
{
name = bottom;
pos = (572,10);
},
{
name = ogonek;
pos = (776,14);
},
{
name = top;
pos = (617,1063);
}
);
layerId = "B5042207-EFBA-41B6-8DFD-104A953B46A6";
shapes = (
{
closed = 1;
nodes = (
(1005,261,o),
(841,429,o),
(824,442,c),
(745,368,o),
(677,349,o),
(602,349,cs),
(524,349,o),
(457,378,o),
(436,434,cs),
(431,448,o),
(429,466,o),
(429,482,c),
(478,491,o),
(571,502,o),
(674,502,cs),
(719,502,o),
(1016,497,o),
(1059,495,c),
(1069,543,o),
(1073,579,o),
(1073,632,cs),
(1073,906,o),
(892,1063,o),
(607,1063,cs),
(267,1063,o),
(50,832,o),
(50,485,cs),
(50,149,o),
(272,-16,o),
(577,-16,cs),
(818,-16,o),
(967,48,o),
(1053,150,c)
);
},
{
closed = 1;
nodes = (
(451,748,o),
(494,831,o),
(593,831,cs),
(662,831,o),
(715,793,o),
(730,744,cs),
(733,734,o),
(735,724,o),
(735,714,c),
(718,715,o),
(671,717,o),
(625,717,cs),
(543,717,o),
(483,710,o),
(446,704,c)
);
}
);
width = 1123;
},
{
anchors = (
{
name = bottom;
pos = (556,10);
},
{
name = ogonek;
pos = (737,53);
},
{
name = top;
pos = (602,1070);
}
);
layerId = "B5195C1E-69AB-4BC6-9855-DF55601A0735";
shapes = (
{
closed = 1;
nodes = (
(1023,284,o),
(982,319,o),
(965,333,c),
(958,319,o),
(847,101,o),
(578,101,cs),
(402,101,o),
(236,204,o),
(194,367,cs),
(184,407,o),
(176,450,o),
(175,497,c),
(321,518,o),
(507,537,o),
(661,537,cs),
(803,537,o),
(961,527,o),
(990,525,c),
(990,564,o),
(988,602,o),
(984,638,cs),
(957,894,o),
(830,1070,o),
(592,1070,cs),
(308,1070,o),
(88,877,o),
(88,568,cs),
(88,228,o),
(273,27,o),
(572,27,cs),
(840,27,o),
(995,207,o),
(1031,266,c)
);
},
{
closed = 1;
nodes = (
(175,849,o),
(365,984,o),
(584,984,cs),
(780,984,o),
(863,833,o),
(890,706,cs),
(897,672,o),
(900,639,o),
(900,612,c),
(870,614,o),
(799,618,o),
(688,618,cs),
(471,618,o),
(300,599,o),
(169,578,c)
);
}
);
width = 1092;
}
);
unicode = 101;
},
{
glyphname = ecedillabreve;
lastChange = "2020-07-08 20:01:41 +0000";
layers = (
{
layerId = "B5195C1E-69AB-4BC6-9855-DF55601A0735";
shapes = (
{
closed = 1;
nodes = (
(771,-452,o),
(884,-386,o),
(884,-245,cs),
(884,-134,o),
(809,-77,o),
(704,-77,cs),
(656,-77,o),
(593,-96,o),
(576,-109,c),
(597,49,l),
(525,53,l),
(489,-202,l),
(530,-184,o),
(628,-149,o),
(686,-149,cs),
(768,-149,o),
(795,-188,o),
(795,-257,cs),
(795,-349,o),
(704,-382,o),
(556,-382,cs),
(505,-382,o),
(429,-364,o),
(390,-354,c),
(372,-427,l),
(392,-434,o),
(457,-452,o),
(561,-452,cs)
);
},
{
ref = e;
},
{
pos = (147,10);
ref = brevecomb;
}
);
width = 1092;
},
{
layerId = "B5042207-EFBA-41B6-8DFD-104A953B46A6";
shapes = (
{
closed = 1;
nodes = (
(767,-527,o),
(985,-443,o),
(985,-258,cs),
(985,-125,o),
(910,-67,o),
(804,-67,cs),
(734,-67,o),
(678,-95,o),
(654,-129,c),
(688,39,l),
(469,27,l),
(403,-247,l),
(438,-234,o),
(521,-219,o),
(598,-219,cs),
(665,-219,o),
(719,-230,o),
(719,-266,cs),
(719,-306,o),
(654,-327,o),
(536,-327,cs),
(503,-327,o),
(419,-315,o),
(390,-302,c),
(326,-505,l),
(346,-510,o),
(428,-527,o),
(533,-527,cs)
);
},
{
ref = e;
},
{
pos = (159,10);
ref = brevecomb;
}
);
width = 1123;
}
);
unicode = 7709;
},
{
glyphname = eogonek;
kernLeft = o;
kernRight = e;
lastChange = "2020-07-21 16:10:48 +0000";
layers = (
{
layerId = "B5042207-EFBA-41B6-8DFD-104A953B46A6";
shapes = (
{
closed = 1;
nodes = (
(985,-238,o),
(940,-247,o),
(897,-247,cs),
(844,-247,o),
(790,-223,o),
(790,-151,cs),
(790,-71,o),
(865,13,o),
(910,44,c),
(774,102,l),
(709,83,o),
(527,-68,o),
(527,-240,cs),
(527,-407,o),
(671,-492,o),
(829,-492,cs),
(933,-492,o),
(995,-479,o),
(1024,-467,c),
(1024,-210,l)
);
},
{
ref = e;
}
);
width = 1123;
},
{
layerId = "B5195C1E-69AB-4BC6-9855-DF55601A0735";
shapes = (
{
closed = 1;
nodes = (
(890,-307,o),
(841,-327,o),
(747,-327,cs),
(657,-327,o),
(600,-296,o),
(600,-194,cs),
(600,-81,o),
(737,53,o),
(848,102,c),
(777,141,l),
(638,82,o),
(514,-58,o),
(514,-201,cs),
(514,-330,o),
(594,-407,o),
(731,-407,cs),
(835,-407,o),
(907,-385,o),
(963,-361,c),
(963,-274,l)
);
},
{
ref = e;
}
);
width = 1092;
}
);
unicode = 281;
},
{
glyphname = schwa;
kernLeft = o;
kernRight = o;
lastChange = "2020-02-19 21:15:26 +0000";
layers = (
{
anchors = (
{
name = bottom;
pos = (516,0);
},
{
name = ogonek;
pos = (594,53);
},
{
name = top;
pos = (516,1063);
}
);
layerId = "B5195C1E-69AB-4BC6-9855-DF55601A0735";
shapes = (
{
closed = 1;
nodes = (
(106,803,o),
(147,768,o),
(164,754,c),
(171,768,o),
(282,986,o),
(551,986,cs),
(727,986,o),
(845,884,o),
(887,721,cs),
(897,681,o),
(903,637,o),
(904,590,c),
(758,584,o),
(622,577,o),
(468,570,cs),
(326,564,o),
(158,559,o),
(139,559,c),
(139,520,o),
(141,485,o),
(145,449,cs),
(172,193,o),
(299,17,o),
(537,17,cs),
(821,17,o),
(991,220,o),
(991,519,cs),
(991,839,o),
(856,1060,o),
(557,1060,cs),
(289,1060,o),
(134,880,o),
(98,821,c)
);
},
{
closed = 1;
nodes = (
(904,238,o),
(764,103,o),
(545,103,cs),
(349,103,o),
(266,254,o),
(239,381,cs),
(232,415,o),
(229,448,o),
(229,475,c),
(240,475,o),
(330,485,o),
(441,489,cs),
(643,497,o),
(789,503,o),
(910,509,c)
);
}
);
width = 1032;
},
{
anchors = (
{
name = bottom;
pos = (516,0);
},
{
name = ogonek;
pos = (551,20);
},
{
name = top;
pos = (516,1063);
}
);
layerId = "B5042207-EFBA-41B6-8DFD-104A953B46A6";
shapes = (
{
closed = 1;
nodes = (
(82,786,o),
(209,646,o),
(226,633,c),
(315,707,o),
(435,721,o),
(485,721,cs),
(563,721,o),
(632,676,o),
(651,610,cs),
(655,596,o),
(658,581,o),
(658,565,c),
(609,558,o),
(516,545,o),
(413,542,cs),
(322,539,o),
(81,532,o),
(48,532,c),
(38,482,o),
(34,438,o),
(34,385,cs),
(34,111,o),
(195,-16,o),
(480,-16,cs),
(830,-16,o),
(997,225,o),
(997,582,cs),
(997,898,o),
(740,1063,o),
(510,1063,cs),
(332,1063,o),
(130,999,o),
(34,897,c)
);
},
{
closed = 1;
nodes = (
(636,329,o),
(593,226,o),
(494,226,cs),
(425,226,o),
(372,264,o),
(357,313,cs),
(354,323,o),
(352,333,o),
(352,343,c),
(367,343,o),
(416,347,o),
(462,351,cs),
(544,358,o),
(604,367,o),
(641,373,c)
);
}
);
width = 1032;
}
);
unicode = 601;
},
{
glyphname = f;
kernLeft = f;
kernRight = f;
lastChange = "2020-07-16 19:47:15 +0000";
layers = (
{
anchors = (
{
name = bottom;
pos = (448,0);
},
{
name = top;
pos = (448,1470);
}
);
layerId = "B5042207-EFBA-41B6-8DFD-104A953B46A6";
shapes = (
{
closed = 1;
nodes = (
(343,-15,o),
(543,-12,o),
(641,4,c),
(631,55,o),
(569,400,o),
(557,475,c),
(605,479,o),
(729,482,o),
(748,482,c),
(748,576,o),
(745,709,o),
(735,796,c),
(696,802,o),
(573,809,o),
(513,809,c),
(505,832,o),
(504,849,o),
(504,868,cs),
(504,930,o),
(535,972,o),
(600,972,cs),
(636,972,o),
(685,945,o),
(720,898,c),
(752,944,o),
(856,1115,o),
(909,1213,c),
(873,1265,o),
(793,1357,o),
(562,1357,cs),
(269,1357,o),
(127,1133,o),
(127,898,cs),
(127,850,o),
(131,801,o),
(138,752,c),
(113,747,o),
(41,730,o),
(17,721,c),
(17,603,o),
(31,463,o),
(55,385,c),
(96,400,o),
(145,414,o),
(162,417,c),
(184,225,o),
(207,36,o),
(215,-15,c)
);
}
);
width = 896;
},
{
anchors = (
{
name = bottom;
pos = (448,0);
},
{
name = top;
pos = (448,1470);
}
);
layerId = "B5195C1E-69AB-4BC6-9855-DF55601A0735";
shapes = (
{
closed = 1;
nodes = (
(361,3,o),
(409,12,o),
(434,19,c),
(421,50,o),
(350,398,o),
(323,583,c),
(451,600,o),
(634,614,o),
(653,614,c),
(653,639,o),
(650,672,o),
(646,691,c),
(573,691,o),
(381,670,o),
(312,660,c),
(304,728,o),
(294,840,o),
(294,912,cs),
(294,1108,o),
(341,1293,o),
(529,1293,cs),
(712,1293,o),
(794,1081,o),
(807,1046,c),
(824,1058,o),
(863,1092,o),
(874,1106,c),
(852,1167,o),
(736,1368,o),
(527,1368,cs),
(308,1368,o),
(211,1170,o),
(211,923,cs),
(211,839,o),
(220,737,o),
(231,646,c),
(204,641,o),
(46,603,o),
(21,593,c),
(24,573,o),
(31,542,o),
(39,520,c),
(80,535,o),
(177,559,o),
(240,571,c),
(269,368,o),
(340,21,o),
(344,2,c)
);
}
);
width = 896;
}
);
unicode = 102;
},
{
glyphname = g;
kernLeft = g.ss01;
kernRight = g.ss01;
lastChange = "2023-07-07 16:47:22 +0000";
layers = (
{
anchors = (
{
name = bottom;
pos = (616,-530);
},
{
name = top;
pos = (616,1063);
}
);
layerId = "B5042207-EFBA-41B6-8DFD-104A953B46A6";
shapes = (
{
closed = 1;
nodes = (
(946,274,o),
(1128,407,o),
(1128,677,cs),
(1128,741,o),
(1116,799,o),
(1090,849,c),
(1124,899,o),
(1177,933,o),
(1229,956,c),
(1181,1017,o),
(1095,1143,o),
(1061,1193,c),
(990,1165,o),
(909,1092,o),
(866,1025,c),
(801,1045,o),
(724,1056,o),
(634,1056,cs),
(315,1056,o),
(85,924,o),
(85,664,cs),
(85,574,o),
(115,485,o),
(189,414,c),
(151,388,o),
(111,340,o),
(111,269,cs),
(111,212,o),
(141,163,o),
(230,123,c),
(106,60,o),
(36,-35,o),
(36,-140,cs),
(36,-424,o),
(301,-499,o),
(621,-499,cs),
(926,-499,o),
(1178,-395,o),
(1178,-106,cs),
(1178,113,o),
(1031,207,o),
(819,207,cs),
(677,207,o),
(600,203,o),
(519,197,c),
(452,197,o),
(419,225,o),
(419,255,cs),
(419,268,o),
(426,282,o),
(440,295,c),
(504,281,o),
(578,274,o),
(663,274,cs)
);
},
{
closed = 1;
nodes = (
(504,-264,o),
(431,-221,o),
(431,-159,cs),
(431,-91,o),
(468,-77,o),
(535,-77,cs),
(684,-77,ls),
(752,-77,o),
(810,-101,o),
(810,-162,cs),
(810,-228,o),
(737,-264,o),
(628,-264,cs)
);
},
{
closed = 1;
nodes = (
(551,566,o),
(483,597,o),
(483,673,cs),
(483,751,o),
(569,774,o),
(643,774,cs),
(706,774,o),
(774,737,o),
(774,675,cs),
(774,593,o),
(716,566,o),
(632,566,cs)
);
}
);
width = 1231;
},
{
anchors = (
{
name = bottom;
pos = (616,-530);
},
{
name = top;
pos = (616,1063);
}
);
layerId = "B5195C1E-69AB-4BC6-9855-DF55601A0735";
shapes = (
{
closed = 1;
nodes = (
(864,205,o),
(1052,372,o),
(1052,643,cs),
(1052,756,o),
(1020,849,o),
(962,918,c),
(1011,969,o),
(1083,1040,o),
(1103,1057,c),
(1091,1066,o),
(1049,1113,o),
(1039,1128,c),
(1003,1091,o),
(950,1029,o),
(910,968,c),
(836,1025,o),
(734,1056,o),
(612,1056,cs),
(375,1056,o),
(180,896,o),
(180,635,cs),
(180,526,o),
(210,418,o),
(282,338,c),
(216,310,o),
(174,249,o),
(174,190,cs),
(174,138,o),
(206,81,o),
(265,45,c),
(147,1,o),
(78,-95,o),
(78,-208,cs),
(78,-432,o),
(285,-499,o),
(571,-499,cs),
(892,-499,o),
(1073,-401,o),
(1073,-175,cs),
(1073,-5,o),
(914,72,o),
(702,72,cs),
(624,72,o),
(509,72,o),
(406,72,c),
(317,79,o),
(255,139,o),
(255,196,cs),
(255,231,o),
(277,267,o),
(330,292,c),
(400,238,o),
(497,205,o),
(627,205,cs)
);
},
{
closed = 1;
nodes = (
(372,-429,o),
(168,-393,o),
(168,-208,cs),
(168,-41,o),
(315,5,o),
(410,5,cs),
(706,5,ls),
(822,5,o),
(985,-26,o),
(985,-187,cs),
(985,-378,o),
(799,-429,o),
(589,-429,cs)
);
},
{
closed = 1;
nodes = (
(401,282,o),
(267,428,o),
(267,640,cs),
(267,877,o),
(413,974,o),
(631,974,cs),
(839,974,o),
(972,833,o),
(972,650,cs),
(972,447,o),
(872,282,o),
(611,282,cs)
);
}
);
width = 1231;
}
);
unicode = 103;
},
{
glyphname = g.ss01;
kernLeft = g;
kernRight = g;
lastChange = "2020-07-08 20:49:32 +0000";
layers = (
{
anchors = (
{
name = bottom;
pos = (627,-530);
},
{
name = top;
pos = (512,1063);
}
);
layerId = "B5042207-EFBA-41B6-8DFD-104A953B46A6";
shapes = (
{
closed = 1;
nodes = (
(183,-399,o),
(469,-479,o),
(683,-479,cs),
(979,-479,o),
(1192,-347,o),
(1192,-48,cs),
(1192,45,o),
(1183,200,o),
(1172,375,cs),
(1158,608,o),
(1142,877,o),
(1142,1089,c),
(1080,1103,o),
(975,1109,o),
(889,1109,cs),
(838,1109,o),
(793,1107,o),
(768,1103,c),
(761,1056,o),
(759,997,o),
(759,969,c),
(673,1013,o),
(581,1039,o),
(493,1039,cs),
(233,1039,o),
(0,906,o),
(0,561,cs),
(0,197,o),
(250,60,o),
(545,60,cs),
(609,60,o),
(696,62,o),
(812,99,c),
(814,79,o),
(815,60,o),
(815,43,cs),
(815,-77,o),
(750,-119,o),
(663,-119,cs),
(543,-119,o),
(371,-54,o),
(256,19,c),
(222,-19,o),
(44,-266,o),
(38,-286,c)
);
},
{
closed = 1;
nodes = (
(467,408,o),
(362,439,o),
(362,550,cs),
(362,657,o),
(429,711,o),
(560,711,cs),
(630,711,o),
(704,686,o),
(756,661,c),
(756,614,o),
(769,509,o),
(774,470,c),
(720,441,o),
(636,408,o),
(554,408,cs)
);
}
);
width = 1253;
},
{
anchors = (
{
name = bottom;
pos = (627,-530);
},
{
name = top;
pos = (557,1063);
}
);
layerId = "B5195C1E-69AB-4BC6-9855-DF55601A0735";
shapes = (
{
closed = 1;
nodes = (
(204,-418,o),
(394,-471,o),
(575,-471,cs),
(919,-471,o),
(1060,-278,o),
(1060,93,cs),
(1060,248,o),
(1033,438,o),
(1016,556,cs),
(998,680,o),
(990,899,o),
(990,1088,c),
(977,1091,o),
(964,1093,o),
(949,1093,cs),
(937,1093,o),
(916,1092,o),
(909,1091,c),
(907,1065,o),
(902,999,o),
(902,961,c),
(846,1019,o),
(728,1062,o),
(588,1062,cs),
(320,1062,o),
(108,877,o),
(108,562,cs),
(108,287,o),
(278,60,o),
(572,60,cs),
(794,60,o),
(942,156,o),
(971,193,c),
(974,172,o),
(976,146,o),
(976,91,cs),
(976,-201,o),
(863,-397,o),
(572,-397,cs),
(396,-397,o),
(211,-324,o),
(145,-282,c),
(135,-296,o),
(116,-352,o),
(115,-373,c)
);
},
{
closed = 1;
nodes = (
(346,135,o),
(193,327,o),
(193,555,cs),
(193,877,o),
(420,980,o),
(578,980,cs),
(718,980,o),
(846,942,o),
(905,861,c),
(905,742,o),
(934,466,o),
(961,273,c),
(906,222,o),
(772,135,o),
(584,135,cs)
);
}
);
width = 1253;
}
);
},
{
glyphname = h;
kernLeft = h;
kernRight = n;
lastChange = "2020-07-16 19:17:36 +0000";
layers = (
{
anchors = (
{
name = bottom;
pos = (572,0);
},
{
name = center;
pos = (338,1189);
},
{
name = top;
pos = (232,1436);
}
);
layerId = "B5042207-EFBA-41B6-8DFD-104A953B46A6";
shapes = (
{
closed = 1;
nodes = (
(454,97,o),
(473,295,o),
(473,492,c),
(513,540,o),
(569,580,o),
(632,580,cs),
(687,580,o),
(720,538,o),
(720,449,cs),
(720,362,o),
(692,124,o),
(673,9,c),
(728,-2,o),
(793,-8,o),
(859,-8,cs),
(919,-8,o),
(980,-3,o),
(1037,7,c),
(1062,139,o),
(1084,353,o),
(1084,519,cs),
(1084,779,o),
(1031,913,o),
(774,913,cs),
(665,913,o),
(543,870,o),
(475,802,c),
(466,1072,o),
(441,1292,o),
(410,1443,c),
(338,1443,o),
(68,1405,o),
(48,1398,c),
(62,1174,o),
(80,861,o),
(80,583,cs),
(80,334,o),
(64,111,o),
(51,3,c),
(86,-11,o),
(165,-16,o),
(252,-16,cs),
(325,-16,o),
(398,-12,o),
(436,-5,c)
);
}
);
width = 1123;
},
{
anchors = (
{
name = bottom;
pos = (562,0);
},
{
name = center;
pos = (335,1265);
},
{
name = top;
pos = (192,1403);
}
);
layerId = "B5195C1E-69AB-4BC6-9855-DF55601A0735";
shapes = (
{
closed = 1;
nodes = (
(267,60,o),
(280,349,o),
(280,585,c),
(287,610,o),
(453,827,o),
(650,827,cs),
(827,827,o),
(857,684,o),
(857,485,cs),
(857,314,o),
(831,126,o),
(812,-11,c),
(821,-12,o),
(842,-14,o),
(861,-14,cs),
(880,-14,o),
(899,-14,o),
(913,-14,c),
(930,156,o),
(950,359,o),
(950,502,cs),
(950,737,o),
(868,909,o),
(671,909,cs),
(506,909,o),
(347,802,o),
(279,706,c),
(279,978,o),
(268,1292,o),
(238,1443,c),
(222,1441,o),
(185,1431,o),
(166,1424,c),
(178,1234,o),
(187,981,o),
(187,733,cs),
(187,427,o),
(175,134,o),
(156,-26,c),
(164,-27,o),
(187,-29,o),
(202,-29,cs),
(220,-29,o),
(239,-29,o),
(253,-29,c)
);
}
);
width = 1123;
}
);
unicode = 104;
},
{
glyphname = hbar;
kernLeft = h;
kernRight = n;
lastChange = "2020-06-29 18:08:01 +0000";
layers = (
{
layerId = "B5042207-EFBA-41B6-8DFD-104A953B46A6";
shapes = (
{
closed = 1;
nodes = (
(652,1184,o),
(644,1270,o),
(641,1300,c),
(506,1300,o),
(124,1273,o),
(-27,1245,c),
(-27,1188,o),
(-21,1133,o),
(-13,1073,c),
(191,1089,o),
(536,1099,o),
(652,1099,c)
);
},
{
ref = h;
}
);
width = 1123;
},
{
layerId = "B5195C1E-69AB-4BC6-9855-DF55601A0735";
shapes = (
{
closed = 1;
nodes = (
(612,1194,o),
(612,1222,o),
(610,1229,c),
(468,1229,o),
(72,1200,o),
(5,1188,c),
(0,1179,o),
(-3,1152,o),
(-3,1138,c),
(167,1153,o),
(444,1170,o),
(612,1170,c)
);
},
{
ref = h;
}
);
width = 1123;
}
);
unicode = 295;
},
{
glyphname = i;
kernLeft = i;
kernRight = i;
lastChange = "2020-06-17 15:22:51 +0000";
layers = (
{
anchors = (
{
name = bottom;
pos = (301,0);
}
);
layerId = "B5042207-EFBA-41B6-8DFD-104A953B46A6";
shapes = (
{
closed = 1;
nodes = (
(490,83,o),
(507,387,o),
(507,627,cs),
(507,754,o),
(501,865,o),
(492,911,c),
(411,911,o),
(195,903,o),
(125,898,c),
(125,690,o),
(85,92,o),
(70,5,c),
(134,-3,o),
(200,-6,o),
(261,-6,cs),
(350,-6,o),
(441,1,o),
(465,3,c)
);
},
{
closed = 1;
nodes = (
(441,1022,o),
(538,1116,o),
(538,1240,cs),
(538,1372,o),
(438,1463,o),
(307,1463,cs),
(184,1463,o),
(65,1379,o),
(65,1244,cs),
(65,1108,o),
(179,1022,o),
(319,1022,cs)
);
}
);
width = 610;
},
{
anchors = (
{
name = bottom;
pos = (276,0);
}
);
layerId = "B5195C1E-69AB-4BC6-9855-DF55601A0735";
shapes = (
{
closed = 1;
nodes = (
(329,93,o),
(336,523,o),
(336,776,cs),
(336,848,o),
(335,907,o),
(334,938,c),
(322,938,o),
(267,934,o),
(261,933,c),
(261,730,o),
(238,85,o),
(223,-2,c),
(234,-4,o),
(250,-6,o),
(273,-6,cs),
(286,-6,o),
(302,-5,o),
(320,-3,c)
);
},
{
closed = 1;
nodes = (
(363,1121,o),
(387,1164,o),
(387,1210,cs),
(387,1267,o),
(361,1316,o),
(309,1316,cs),
(261,1316,o),
(225,1284,o),
(225,1219,cs),
(225,1168,o),
(249,1121,o),
(310,1121,cs)
);
}
);
width = 610;
}
);
unicode = 105;
},
{
glyphname = idotless;
kernLeft = idotless;
kernRight = idotless;
lastChange = "2020-07-08 20:50:37 +0000";
layers = (
{
anchors = (
{
name = bottom;
pos = (259,0);
},
{
name = ogonek;
pos = (432,-7);
},
{
name = top;
pos = (283,975);
}
);
layerId = "B5042207-EFBA-41B6-8DFD-104A953B46A6";
shapes = (
{
closed = 1;
nodes = (
(451,116,o),
(460,680,o),
(460,911,c),
(403,911,o),
(163,909,o),
(104,904,c),
(99,696,o),
(53,100,o),
(38,13,c),
(177,4,o),
(367,-7,o),
(432,-7,c)
);
}
);
width = 581;
},
{
anchors = (
{
name = bottom;
pos = (212,0);
},
{
name = ogonek;
pos = (268,0);
},
{
name = top;
pos = (252,990);
}
);
layerId = "B5195C1E-69AB-4BC6-9855-DF55601A0735";
shapes = (
{
closed = 1;
nodes = (
(280,120,o),
(281,802,o),
(281,940,c),
(262,940,o),
(222,940,o),
(205,933,c),
(205,730,o),
(174,89,o),
(159,2,c),
(169,-1,o),
(252,-3,o),
(268,-3,c)
);
}
);
width = 581;
}
);
unicode = 305;
},
{
glyphname = iogonek;
kernLeft = idotless;
kernRight = idotless;
lastChange = "2020-07-16 20:03:57 +0000";
layers = (
{
layerId = "B5042207-EFBA-41B6-8DFD-104A953B46A6";
shapes = (
{
closed = 1;
nodes = (
(507,-289,o),
(462,-298,o),
(419,-298,cs),
(366,-298,o),
(312,-274,o),
(312,-202,cs),
(312,-122,o),
(387,-38,o),
(432,-7,c),
(296,51,l),
(231,32,o),
(49,-119,o),
(49,-291,cs),
(49,-458,o),
(193,-543,o),
(351,-543,cs),
(455,-543,o),
(517,-530,o),
(546,-518,c),
(546,-261,l)
);
},
{
ref = idotless;
},
{
pos = (57,-88);
ref = dotaccentcomb;
}
);
width = 581;
},
{
layerId = "B5195C1E-69AB-4BC6-9855-DF55601A0735";
shapes = (
{
closed = 1;
nodes = (
(316,-403,o),
(267,-423,o),
(173,-423,cs),
(83,-423,o),
(26,-392,o),
(26,-290,cs),
(26,-177,o),
(156,-43,o),
(268,0,c),
(203,45,l),
(64,-14,o),
(-60,-154,o),
(-60,-297,cs),
(-60,-426,o),
(20,-503,o),
(157,-503,cs),
(261,-503,o),
(333,-481,o),
(389,-457,c),
(389,-370,l)
);
},
{
ref = idotless;
},
{
pos = (46,-73);
ref = dotaccentcomb;
}
);
width = 581;
}
);
unicode = 303;
},
{
glyphname = j;
kernLeft = j;
kernRight = j;
lastChange = "2020-07-16 19:16:33 +0000";
layers = (
{
layerId = "B5042207-EFBA-41B6-8DFD-104A953B46A6";
shapes = (
{
closed = 1;
nodes = (
(651,-278,o),
(651,253,cs),
(651,497,o),
(584,832,o),
(563,881,c),
(144,862,l),
(190,703,o),
(235,395,o),
(235,192,cs),
(235,42,o),
(214,-189,o),
(120,-189,cs),
(59,-189,o),
(17,-137,o),
(-3,-66,c),
(-99,-94,o),
(-286,-159,o),
(-390,-231,c),
(-340,-410,o),
(-112,-534,o),
(119,-534,cs),
(487,-534,o)
);
},
{
closed = 1;
nodes = (
(136,1455,o),
(26,1342,o),
(26,1198,cs),
(26,1063,o),
(149,973,o),
(278,973,cs),
(413,973,o),
(543,1088,o),
(543,1221,cs),
(543,1347,o),
(428,1455,o),
(280,1455,cs)
);
}
);
width = 717;
},
{
layerId = "B5195C1E-69AB-4BC6-9855-DF55601A0735";
shapes = (
{
closed = 1;
nodes = (
(430,-171,o),
(430,153,cs),
(430,408,o),
(402,730,o),
(348,999,c),
(271,991,l),
(315,709,o),
(345,418,o),
(345,177,cs),
(345,-78,o),
(317,-378,o),
(126,-378,cs),
(-26,-378,o),
(-129,-220,o),
(-174,-103,c),
(-197,-119,o),
(-234,-145,o),
(-251,-163,c),
(-182,-338,o),
(-43,-454,o),
(132,-454,cs),
(388,-454,o)
);
},
{
closed = 1;
nodes = (
(238,1339,o),
(202,1306,o),
(202,1259,cs),
(202,1211,o),
(239,1184,o),
(282,1184,cs),
(330,1184,o),
(362,1210,o),
(362,1257,cs),
(362,1298,o),
(335,1339,o),
(288,1339,cs)
);
}
);
width = 610;
}
);
unicode = 106;
},
{
glyphname = jdotless;
kernLeft = j;
kernRight = j;
lastChange = "2020-07-08 20:51:01 +0000";
layers = (
{
anchors = (
{
name = bottom;
pos = (284,-530);
},
{
name = top;
pos = (294,987);
}
);
layerId = "B5195C1E-69AB-4BC6-9855-DF55601A0735";
shapes = (
{
closed = 1;
nodes = (
(388,-537,o),
(430,-254,o),
(430,70,cs),
(430,325,o),
(402,648,o),
(348,917,c),
(336,917,o),
(323,916,o),
(310,914,cs),
(297,912,o),
(284,910,o),
(271,908,c),
(315,626,o),
(345,335,o),
(345,94,cs),
(345,-161,o),
(317,-461,o),
(126,-461,cs),
(-26,-461,o),
(-129,-303,o),
(-174,-186,c),
(-197,-202,o),
(-234,-228,o),
(-251,-246,c),
(-182,-421,o),
(-43,-537,o),
(132,-537,cs)
);
}
);
width = 610;
},
{
anchors = (
{
name = bottom;
pos = (344,-530);
},
{
name = top;
pos = (344,955);
}
);
layerId = "B5042207-EFBA-41B6-8DFD-104A953B46A6";
shapes = (
{
closed = 1;
nodes = (
(518,-532,o),
(651,-293,o),
(651,225,cs),
(651,469,o),
(607,716,o),
(543,853,c),
(499,858,o),
(451,861,o),
(402,861,cs),
(313,861,o),
(220,852,o),
(144,834,c),
(190,595,o),
(235,317,o),
(235,114,cs),
(235,-36,o),
(214,-187,o),
(120,-187,cs),
(59,-187,o),
(17,-135,o),
(-3,-64,c),
(-99,-92,o),
(-286,-157,o),
(-390,-229,c),
(-346,-436,o),
(-149,-532,o),
(119,-532,cs)
);
}
);
width = 717;
}
);
metricLeft = j;
metricRight = j;
unicode = 567;
},
{
glyphname = k;
kernLeft = h;
kernRight = k;
lastChange = "2020-06-17 15:25:13 +0000";
layers = (
{
anchors = (
{
name = bottom;
pos = (578,0);
},
{
name = top;
pos = (578,1470);
}
);
layerId = "B5042207-EFBA-41B6-8DFD-104A953B46A6";
shapes = (
{
closed = 1;
nodes = (
(858,-41,o),
(1109,53,o),
(1159,84,c),
(1042,279,o),
(887,439,o),
(791,499,c),
(854,545,o),
(1029,667,o),
(1144,744,c),
(1100,819,o),
(979,988,o),
(930,1034,c),
(785,932,o),
(585,790,o),
(460,660,c),
(472,778,o),
(492,1160,o),
(492,1428,c),
(426,1448,o),
(351,1456,o),
(272,1456,cs),
(219,1456,o),
(164,1452,o),
(109,1447,c),
(109,1275,o),
(47,91,o),
(41,-19,c),
(92,-25,o),
(165,-31,o),
(247,-31,cs),
(305,-31,o),
(368,-28,o),
(431,-21,c),
(436,36,o),
(442,131,o),
(444,246,c),
(455,256,o),
(492,286,o),
(513,299,c),
(602,263,o),
(756,26,o),
(790,-58,c)
);
}
);
width = 1156;
},
{
anchors = (
{
name = bottom;
pos = (598,0);
},
{
name = top;
pos = (598,1470);
}
);
layerId = "B5195C1E-69AB-4BC6-9855-DF55601A0735";
shapes = (
{
closed = 1;
nodes = (
(984,-27,o),
(1029,-5,o),
(1036,0,c),
(896,224,o),
(592,597,o),
(534,651,c),
(636,732,o),
(933,896,o),
(1011,932,c),
(1006,942,o),
(988,968,o),
(967,995,c),
(847,935,o),
(464,728,o),
(290,552,c),
(295,668,o),
(309,1207,o),
(309,1446,c),
(302,1447,o),
(287,1448,o),
(271,1448,cs),
(254,1448,o),
(237,1448,o),
(229,1448,c),
(229,1233,o),
(186,79,o),
(177,-31,c),
(193,-34,o),
(210,-36,o),
(224,-36,cs),
(241,-36,o),
(255,-34,o),
(264,-32,c),
(268,24,o),
(284,330,o),
(287,446,c),
(306,467,o),
(426,564,o),
(475,603,c),
(576,501,o),
(873,116,o),
(967,-34,c)
);
}
);
width = 1156;
}
);
unicode = 107;
},
{
glyphname = kgreenlandic;
kernLeft = h;
kernRight = k;
lastChange = "2020-02-20 16:12:45 +0000";
layers = (
{
anchors = (
{
name = bottom;
pos = (578,0);
},
{
name = top;
pos = (578,1063);
}
);
layerId = "B5195C1E-69AB-4BC6-9855-DF55601A0735";
shapes = (
{
closed = 1;
nodes = (
(964,-27,o),
(1009,-5,o),
(1016,0,c),
(876,224,o),
(572,597,o),
(514,651,c),
(616,732,o),
(913,896,o),
(991,932,c),
(986,942,o),
(968,968,o),
(947,995,c),
(827,935,o),
(455,728,o),
(270,552,c),
(275,738,o),
(286,928,o),
(289,1063,c),
(283,1063,o),
(267,1064,o),
(251,1064,cs),
(234,1064,o),
(217,1065,o),
(209,1065,c),
(200,929,o),
(166,79,o),
(157,-31,c),
(173,-34,o),
(190,-36,o),
(204,-36,cs),
(221,-36,o),
(235,-34,o),
(244,-32,c),
(248,24,o),
(264,330,o),
(267,446,c),
(284,467,o),
(417,569,o),
(455,603,c),
(556,501,o),
(853,116,o),
(947,-34,c)
);
}
);
width = 1156;
},
{
anchors = (
{
name = bottom;
pos = (578,0);
},
{
name = top;
pos = (578,1063);
}
);
layerId = "B5042207-EFBA-41B6-8DFD-104A953B46A6";
shapes = (
{
closed = 1;
nodes = (
(858,-41,o),
(1109,53,o),
(1159,84,c),
(1042,279,o),
(887,439,o),
(791,499,c),
(854,545,o),
(1029,667,o),
(1144,744,c),
(1100,819,o),
(979,988,o),
(930,1034,c),
(785,932,o),
(585,790,o),
(460,660,c),
(472,778,o),
(492,975,o),
(492,1063,c),
(426,1083,o),
(351,1091,o),
(272,1091,cs),
(219,1091,o),
(164,1087,o),
(109,1082,c),
(109,910,o),
(46,91,o),
(41,-19,c),
(92,-25,o),
(165,-31,o),
(247,-31,cs),
(305,-31,o),
(368,-28,o),
(431,-21,c),
(436,36,o),
(442,131,o),
(444,246,c),
(455,253,o),
(492,286,o),
(513,299,c),
(602,263,o),
(756,26,o),
(790,-58,c)
);
}
);
width = 1156;
}
);
unicode = 312;
},
{
glyphname = l;
kernLeft = l;
kernRight = l;
lastChange = "2020-07-21 15:51:52 +0000";
layers = (
{
anchors = (
{
name = bottom;
pos = (308,0);
},
{
name = center;
pos = (308,735);
},
{
name = top;
pos = (308,1470);
},
{
name = topright;
pos = (474,1034);
}
);
layerId = "B5042207-EFBA-41B6-8DFD-104A953B46A6";
shapes = (
{
closed = 1;
nodes = (
(654,66,o),
(564,308,o),
(546,347,c),
(528,320,o),
(502,303,o),
(461,303,cs),
(398,303,o),
(390,392,o),
(390,506,cs),
(390,637,o),
(417,1099,o),
(438,1426,c),
(361,1432,o),
(302,1435,o),
(240,1435,cs),
(194,1435,o),
(136,1433,o),
(77,1429,c),
(61,1162,o),
(42,822,o),
(42,412,cs),
(42,131,o),
(100,-43,o),
(356,-43,cs),
(491,-43,o),
(622,-1,o),
(665,35,c)
);
}
);
width = 645;
},
{
anchors = (
{
name = bottom;
pos = (328,0);
},
{
name = center;
pos = (328,735);
},
{
name = top;
pos = (328,1470);
},
{
name = topright;
pos = (358,1025);
}
);
layerId = "B5195C1E-69AB-4BC6-9855-DF55601A0735";
shapes = (
{
closed = 1;
nodes = (
(587,92,o),
(548,129,o),
(533,139,c),
(510,88,o),
(484,51,o),
(423,51,cs),
(291,51,o),
(272,247,o),
(272,421,cs),
(272,705,o),
(296,1240,o),
(305,1426,c),
(293,1429,o),
(275,1431,o),
(256,1431,cs),
(245,1431,o),
(229,1430,o),
(219,1429,c),
(210,1213,o),
(190,670,o),
(190,451,cs),
(190,178,o),
(207,-32,o),
(421,-32,cs),
(516,-32,o),
(570,33,o),
(593,82,c)
);
}
);
width = 645;
}
);
unicode = 108;
},
{
glyphname = l.ss01;
kernLeft = h;
kernRight = l.ss01;
lastChange = "2020-07-21 15:47:39 +0000";
layers = (
{
anchors = (
{
name = bottom;
pos = (282,0);
},
{
name = center;
pos = (282,735);
},
{
name = top;
pos = (282,1470);
},
{
name = topright;
pos = (544,1063);
}
);
layerId = "B5042207-EFBA-41B6-8DFD-104A953B46A6";
shapes = (
{
closed = 1;
nodes = (
(344,1462,o),
(316,1462,o),
(264,1462,cs),
(164,1462,o),
(65,1440,o),
(51,1436,c),
(70,1274,o),
(85,852,o),
(85,478,cs),
(85,286,o),
(81,106,o),
(75,-19,c),
(102,-21,o),
(138,-22,o),
(177,-22,cs),
(287,-22,o),
(429,-14,o),
(508,10,c),
(508,229,o),
(498,510,o),
(482,769,cs),
(463,1083,o),
(436,1364,o),
(410,1458,c)
);
}
);
width = 564;
},
{
anchors = (
{
name = bottom;
pos = (282,0);
},
{
name = center;
pos = (282,735);
},
{
name = top;
pos = (282,1470);
},
{
name = topright;
pos = (339,1063);
}
);
layerId = "B5195C1E-69AB-4BC6-9855-DF55601A0735";
shapes = (
{
closed = 1;
nodes = (
(225,1459,o),
(215,1459,o),
(206,1459,cs),
(192,1459,o),
(180,1458,o),
(168,1456,c),
(193,1265,o),
(225,682,o),
(225,263,cs),
(225,148,o),
(223,45,o),
(217,-34,c),
(222,-35,o),
(230,-35,o),
(239,-35,cs),
(270,-35,o),
(313,-31,o),
(320,-29,c),
(320,203,o),
(313,496,o),
(300,763,cs),
(285,1082,o),
(263,1364,o),
(236,1458,c)
);
}
);
width = 564;
}
);
},
{
glyphname = ldot;
kernLeft = l;
kernRight = l;
lastChange = "2020-07-08 17:02:51 +0000";
layers = (
{
layerId = "B5195C1E-69AB-4BC6-9855-DF55601A0735";
shapes = (
{
closed = 1;
nodes = (
(584,756,o),
(626,793,o),
(626,843,cs),
(626,888,o),
(596,928,o),
(545,928,cs),
(493,928,o),
(449,894,o),
(449,843,cs),
(449,793,o),
(473,756,o),
(536,756,cs)
);
},
{
ref = l;
}
);
width = 596;
},
{
layerId = "B5042207-EFBA-41B6-8DFD-104A953B46A6";
shapes = (
{
closed = 1;
nodes = (
(674,687,o),
(751,758,o),
(751,843,cs),
(751,923,o),
(694,997,o),
(600,997,cs),
(509,997,o),
(432,929,o),
(432,843,cs),
(432,758,o),
(477,687,o),
(589,687,cs)
);
},
{
ref = l;
}
);
width = 741;
}
);
metricLeft = l;
unicode = 320;
},
{
glyphname = ldot.ss01;
lastChange = "2020-06-17 20:31:47 +0000";
layers = (
{
layerId = "B5195C1E-69AB-4BC6-9855-DF55601A0735";
shapes = (
{
closed = 1;
nodes = (
(595,756,o),
(637,793,o),
(637,843,cs),
(637,888,o),
(607,928,o),
(556,928,cs),
(504,928,o),
(460,894,o),
(460,843,cs),
(460,793,o),
(484,756,o),
(547,756,cs)
);
},
{
pos = (22,0);
ref = l.ss01;
}
);
width = 586;
},
{
layerId = "B5042207-EFBA-41B6-8DFD-104A953B46A6";
shapes = (
{
closed = 1;
nodes = (
(755,687,o),
(832,758,o),
(832,843,cs),
(832,923,o),
(775,997,o),
(682,997,cs),
(592,997,o),
(515,929,o),
(515,843,cs),
(515,758,o),
(559,687,o),
(671,687,cs)
);
},
{
pos = (-9,0);
ref = l.ss01;
}
);
width = 812;
}
);
metricLeft = l;
},
{
glyphname = lslash;
kernLeft = h;
kernRight = l;
lastChange = "2020-07-03 20:06:00 +0000";
layers = (
{
layerId = "B5042207-EFBA-41B6-8DFD-104A953B46A6";
shapes = (
{
closed = 1;
nodes = (
(511,1103,c),
(371,923,o),
(-2,554,o),
(-188,398,c),
(-178,386,o),
(-41,270,o),
(-22,256,c),
(181,412,o),
(533,747,o),
(685,952,c),
(675,974,o),
(538,1087,o)
);
},
{
ref = l;
}
);
width = 564;
},
{
layerId = "B5195C1E-69AB-4BC6-9855-DF55601A0735";
shapes = (
{
closed = 1;
nodes = (
(388,944,c),
(282,742,o),
(104,453,o),
(-53,267,c),
(-39,256,o),
(-15,239,o),
(5,229,c),
(179,419,o),
(342,670,o),
(456,899,c),
(443,920,o),
(417,933,o)
);
},
{
ref = l;
}
);
width = 564;
}
);
unicode = 322;
},
{
glyphname = m;
kernLeft = n;
kernRight = n;
lastChange = "2020-06-17 15:27:21 +0000";
layers = (
{
anchors = (
{
name = bottom;
pos = (929,0);
},
{
name = top;
pos = (929,1063);
}
);
layerId = "B5042207-EFBA-41B6-8DFD-104A953B46A6";
shapes = (
{
closed = 1;
nodes = (
(103,-7,c),
(150,-12,o),
(270,-17,o),
(377,-17,cs),
(419,-17,o),
(490,-15,o),
(506,-14,c),
(504,9,o),
(489,274,o),
(477,593,c),
(505,668,o),
(580,717,o),
(656,717,cs),
(777,717,o),
(788,543,o),
(788,242,cs),
(788,157,o),
(788,83,o),
(791,-7,c),
(821,-11,o),
(901,-13,o),
(980,-13,cs),
(1046,-13,o),
(1111,-11,o),
(1142,-9,c),
(1142,81,o),
(1146,166,o),
(1150,244,cs),
(1163,517,o),
(1197,706,o),
(1338,706,cs),
(1414,706,o),
(1441,627,o),
(1441,486,cs),
(1441,363,o),
(1420,194,o),
(1393,-5,c),
(1459,-11,o),
(1525,-13,o),
(1592,-13,cs),
(1654,-13,o),
(1721,-11,o),
(1781,-8,c),
(1787,130,o),
(1792,253,o),
(1792,363,cs),
(1792,820,o),
(1714,1044,o),
(1373,1044,cs),
(1198,1044,o),
(1055,925,o),
(1003,812,c),
(997,835,o),
(990,860,o),
(979,883,cs),
(940,965,o),
(871,1039,o),
(745,1039,cs),
(574,1039,o),
(474,931,o),
(460,885,c),
(460,913,o),
(460,981,o),
(458,1027,c),
(376,1027,o),
(161,1003,o),
(82,983,c),
(82,815,o),
(89,191,o)
);
}
);
width = 1858;
},
{
anchors = (
{
name = bottom;
pos = (929,0);
},
{
name = top;
pos = (929,1063);
}
);
layerId = "B5195C1E-69AB-4BC6-9855-DF55601A0735";
shapes = (
{
closed = 1;
nodes = (
(227,-10,c),
(242,-14,o),
(258,-16,o),
(276,-16,cs),
(288,-16,o),
(307,-14,o),
(316,-13,c),
(308,45,o),
(279,258,o),
(267,578,c),
(267,690,o),
(428,945,o),
(623,945,cs),
(870,945,o),
(902,563,o),
(902,249,cs),
(902,167,o),
(900,81,o),
(897,-7,c),
(911,-11,o),
(933,-13,o),
(948,-13,cs),
(961,-13,o),
(979,-11,o),
(993,-9,c),
(993,56,o),
(993,128,o),
(993,194,cs),
(993,561,o),
(1031,963,o),
(1343,963,cs),
(1517,963,o),
(1589,797,o),
(1589,480,cs),
(1589,341,o),
(1575,172,o),
(1550,-24,c),
(1567,-26,o),
(1585,-27,o),
(1597,-27,cs),
(1613,-27,o),
(1627,-25,o),
(1641,-21,c),
(1656,89,o),
(1674,305,o),
(1674,472,cs),
(1674,776,o),
(1612,1047,o),
(1352,1047,cs),
(1078,1047,o),
(968,819,o),
(945,581,c),
(945,638,o),
(940,699,o),
(926,759,cs),
(893,902,o),
(810,1030,o),
(642,1030,cs),
(386,1030,o),
(284,838,o),
(260,774,c),
(260,802,o),
(252,988,o),
(250,1027,c),
(232,1026,o),
(193,1017,o),
(176,1009,c),
(176,699,o),
(197,256,o)
);
}
);
width = 1858;
}
);
unicode = 109;
},
{
glyphname = n;
kernLeft = n;
kernRight = n;
lastChange = "2020-06-17 15:28:55 +0000";
layers = (
{
anchors = (
{
name = bottom;
pos = (685,0);
},
{
name = top;
pos = (685,1063);
}
);
layerId = "B5042207-EFBA-41B6-8DFD-104A953B46A6";
shapes = (
{
closed = 1;
nodes = (
(474,99,o),
(494,303,o),
(494,605,c),
(553,659,o),
(642,708,o),
(720,708,cs),
(845,708,o),
(871,617,o),
(871,478,cs),
(871,293,o),
(831,69,o),
(813,-3,c),
(846,-6,o),
(931,-8,o),
(1016,-8,cs),
(1094,-8,o),
(1172,-6,o),
(1206,-3,c),
(1227,159,o),
(1237,373,o),
(1237,494,cs),
(1237,875,o),
(1161,1060,o),
(856,1060,cs),
(694,1060,o),
(538,957,o),
(502,885,c),
(504,935,o),
(504,1017,o),
(504,1034,c),
(460,1041,o),
(400,1044,o),
(338,1044,cs),
(252,1044,o),
(160,1039,o),
(97,1031,c),
(97,599,o),
(91,219,o),
(68,-3,c),
(96,-6,o),
(193,-10,o),
(252,-12,cs),
(329,-14,o),
(408,-14,o),
(459,-14,c)
);
}
);
width = 1330;
},
{
anchors = (
{
name = bottom;
pos = (675,0);
},
{
name = top;
pos = (675,1063);
}
);
layerId = "B5195C1E-69AB-4BC6-9855-DF55601A0735";
shapes = (
{
closed = 1;
nodes = (
(263,103,o),
(290,403,o),
(302,761,c),
(377,830,o),
(546,979,o),
(792,979,cs),
(998,979,o),
(1038,812,o),
(1038,562,cs),
(1038,414,o),
(1024,226,o),
(993,-3,c),
(1010,-7,o),
(1027,-8,o),
(1043,-8,cs),
(1064,-8,o),
(1084,-6,o),
(1094,-3,c),
(1117,216,o),
(1130,401,o),
(1130,549,cs),
(1130,877,o),
(1074,1060,o),
(771,1060,cs),
(596,1060,o),
(400,954,o),
(302,868,c),
(302,924,o),
(302,1019,o),
(299,1043,c),
(290,1045,o),
(275,1045,o),
(264,1045,cs),
(240,1045,o),
(221,1042,o),
(207,1039,c),
(207,439,o),
(186,214,o),
(159,-10,c),
(175,-13,o),
(196,-14,o),
(215,-14,cs),
(227,-14,o),
(240,-13,o),
(251,-12,c)
);
}
);
width = 1330;
}
);
unicode = 110;
},
{
glyphname = eng;
kernLeft = n;
kernRight = j;
lastChange = "2020-06-18 19:26:01 +0000";
layers = (
{
layerId = "B5042207-EFBA-41B6-8DFD-104A953B46A6";
shapes = (
{
closed = 1;
nodes = (
(552,-419,o),
(777,-419,cs),
(1030,-419,o),
(1178,-238,o),
(1208,12,c),
(819,19,l),
(799,-61,o),
(774,-99,o),
(729,-99,cs),
(688,-99,o),
(661,-75,o),
(641,-30,c),
(580,-79,o),
(414,-220,o),
(399,-240,c),
(459,-321,o)
);
},
{
alignment = -1;
ref = n;
}
);
width = 1330;
},
{
layerId = "B5195C1E-69AB-4BC6-9855-DF55601A0735";
shapes = (
{
closed = 1;
nodes = (
(656,-349,o),
(766,-349,cs),
(988,-349,o),
(1082,-157,o),
(1095,10,c),
(995,10,l),
(970,-146,o),
(910,-267,o),
(780,-267,cs),
(652,-267,o),
(602,-220,o),
(567,-157,c),
(550,-168,o),
(506,-207,o),
(492,-220,c),
(541,-309,o)
);
},
{
alignment = -1;
ref = n;
}
);
width = 1330;
}
);
unicode = 331;
},
{
glyphname = o;
kernLeft = o;
kernRight = o;
lastChange = "2020-06-18 18:50:21 +0000";
layers = (
{
anchors = (
{
name = bottom;
pos = (585,0);
},
{
name = center;
pos = (585,532);
},
{
name = ogonek;
pos = (738,0);
},
{
name = top;
pos = (585,1063);
},
{
name = topright;
pos = (879,941);
}
);
layerId = "B5042207-EFBA-41B6-8DFD-104A953B46A6";
shapes = (
{
closed = 1;
nodes = (
(932,-17,o),
(1113,178,o),
(1113,478,cs),
(1113,817,o),
(943,1058,o),
(616,1058,cs),
(284,1058,o),
(52,885,o),
(52,522,cs),
(52,170,o),
(244,-17,o),
(600,-17,cs)
);
},
{
closed = 1;
nodes = (
(481,342,o),
(426,435,o),
(426,557,cs),
(426,653,o),
(469,773,o),
(596,773,cs),
(699,773,o),
(766,681,o),
(766,545,cs),
(766,408,o),
(686,342,o),
(587,342,cs)
);
}
);
width = 1170;
},
{
anchors = (
{
name = bottom;
pos = (605,0);
},
{
name = center;
pos = (605,532);
},
{
name = ogonek;
pos = (786,0);
},
{
name = top;
pos = (605,1063);
},
{
name = topright;
pos = (899,941);
}
);
layerId = "B5195C1E-69AB-4BC6-9855-DF55601A0735";
shapes = (
{
closed = 1;
nodes = (
(886,-39,o),
(1061,160,o),
(1061,468,cs),
(1061,833,o),
(921,1077,o),
(595,1077,cs),
(302,1077,o),
(111,878,o),
(111,542,cs),
(111,169,o),
(255,-39,o),
(601,-39,cs)
);
},
{
closed = 1;
nodes = (
(337,32,o),
(199,230,o),
(199,522,cs),
(199,818,o),
(339,1002,o),
(591,1002,cs),
(860,1002,o),
(975,778,o),
(975,474,cs),
(975,274,o),
(885,32,o),
(596,32,cs)
);
}
);
width = 1172;
}
);
unicode = 111;
},
{
glyphname = ohorn;
kernLeft = o;
kernRight = o;
lastChange = "2020-06-29 16:07:58 +0000";
layers = (
{
anchors = (
{
name = bottom;
pos = (600,0);
},
{
name = top;
pos = (600,1063);
}
);
layerId = "B5195C1E-69AB-4BC6-9855-DF55601A0735";
shapes = (
{
closed = 1;
nodes = (
(886,-39,o),
(1061,160,o),
(1061,468,cs),
(1061,833,o),
(921,1077,o),
(595,1077,cs),
(302,1077,o),
(111,878,o),
(111,542,cs),
(111,169,o),
(255,-39,o),
(601,-39,cs)
);
},
{
closed = 1;
nodes = (
(337,32,o),
(199,230,o),
(199,522,cs),
(199,818,o),
(339,1002,o),
(591,1002,cs),
(860,1002,o),
(975,778,o),
(975,474,cs),
(975,274,o),
(885,32,o),
(596,32,cs)
);
},
{
closed = 1;
nodes = (
(1020,909,o),
(1200,1003,o),
(1200,1205,c),
(1183,1214,o),
(1137,1221,o),
(1106,1221,c),
(1106,1098,o),
(1034,981,o),
(845,981,c),
(868,909,l)
);
}
);
width = 1271;
},
{
anchors = (
{
name = bottom;
pos = (580,0);
},
{
name = top;
pos = (580,1063);
}
);
layerId = "B5042207-EFBA-41B6-8DFD-104A953B46A6";
shapes = (
{
closed = 1;
nodes = (
(932,-17,o),
(1113,178,o),
(1113,478,cs),
(1113,817,o),
(943,1058,o),
(616,1058,cs),
(284,1058,o),
(52,885,o),
(52,522,cs),
(52,170,o),
(244,-17,o),
(600,-17,cs)
);
},
{
closed = 1;
nodes = (
(481,342,o),
(426,435,o),
(426,557,cs),
(426,653,o),
(469,773,o),
(596,773,cs),
(699,773,o),
(766,681,o),
(766,545,cs),
(766,408,o),
(686,342,o),
(587,342,cs)
);
},
{
closed = 1;
nodes = (
(1035,817,o),
(1254,910,o),
(1254,1180,c),
(1229,1208,o),
(1102,1238,o),
(983,1238,c),
(983,1100,o),
(948,1011,o),
(807,1011,c),
(853,817,l)
);
}
);
width = 1271;
}
);
metricLeft = o;
metricRight = "=o-40";
unicode = 417;
},
{
glyphname = oogonek;
kernLeft = o;
kernRight = o;
lastChange = "2020-07-21 16:11:04 +0000";
layers = (
{
layerId = "B5195C1E-69AB-4BC6-9855-DF55601A0735";
shapes = (
{
closed = 1;
nodes = (
(926,-358,o),
(877,-378,o),
(783,-378,cs),
(693,-378,o),
(636,-347,o),
(636,-245,cs),
(636,-132,o),
(776,-8,o),
(878,45,c),
(813,90,l),
(684,21,o),
(550,-109,o),
(550,-252,cs),
(550,-381,o),
(630,-458,o),
(767,-458,cs),
(871,-458,o),
(943,-436,o),
(999,-412,c),
(999,-325,l)
);
},
{
ref = o;
}
);
width = 1172;
},
{
layerId = "B5042207-EFBA-41B6-8DFD-104A953B46A6";
shapes = (
{
closed = 1;
nodes = (
(1002,-207,o),
(957,-216,o),
(914,-216,cs),
(861,-216,o),
(807,-192,o),
(807,-120,cs),
(807,-40,o),
(882,44,o),
(927,75,c),
(791,133,l),
(726,114,o),
(544,-37,o),
(544,-209,cs),
(544,-376,o),
(688,-461,o),
(846,-461,cs),
(950,-461,o),
(1012,-448,o),
(1041,-436,c),
(1041,-179,l)
);
},
{
ref = o;
}
);
width = 1170;
}
);
unicode = 491;
},
{
glyphname = oslash;
kernLeft = o;
kernRight = o;
lastChange = "2020-06-29 18:02:08 +0000";
layers = (
{
anchors = (
{
name = top;
pos = (595,1063);
}
);
layerId = "B5042207-EFBA-41B6-8DFD-104A953B46A6";
shapes = (
{
closed = 1;
nodes = (
(1042,1085,o),
(980,1117,o),
(926,1144,c),
(765,862,o),
(262,259,o),
(47,17,c),
(79,-26,o),
(137,-70,o),
(172,-90,c),
(373,95,o),
(860,637,o),
(1072,1063,c)
);
},
{
ref = o;
}
);
width = 1190;
},
{
anchors = (
{
name = top;
pos = (595,1063);
}
);
layerId = "B5195C1E-69AB-4BC6-9855-DF55601A0735";
shapes = (
{
closed = 1;
nodes = (
(982,1075,o),
(945,1086,o),
(914,1092,c),
(705,663,o),
(406,226,o),
(149,-86,c),
(164,-92,o),
(204,-105,o),
(224,-109,c),
(426,131,o),
(731,571,o),
(999,1063,c)
);
},
{
ref = o;
}
);
width = 1190;
}
);
unicode = 248;
},
{
glyphname = oe;
kernLeft = o;
kernRight = e;
lastChange = "2020-06-18 14:37:28 +0000";
layers = (
{
anchors = (
{
name = bottom;
pos = (954,0);
},
{
name = top;
pos = (954,1063);
}
);
layerId = "B5042207-EFBA-41B6-8DFD-104A953B46A6";
shapes = (
{
closed = 1;
nodes = (
(932,-17,o),
(1113,178,o),
(1113,478,cs),
(1113,817,o),
(943,1058,o),
(616,1058,cs),
(284,1058,o),
(52,885,o),
(52,522,cs),
(52,170,o),
(244,-17,o),
(600,-17,cs)
);
},
{
closed = 1;
nodes = (
(481,342,o),
(426,435,o),
(426,557,cs),
(426,653,o),
(469,773,o),
(596,773,cs),
(699,773,o),
(766,681,o),
(766,545,cs),
(766,408,o),
(686,342,o),
(587,342,cs)
);
},
{
closed = 1;
nodes = (
(1701,261,o),
(1537,429,o),
(1520,442,c),
(1431,368,o),
(1348,349,o),
(1298,349,cs),
(1220,349,o),
(1153,378,o),
(1132,444,cs),
(1127,458,o),
(1125,476,o),
(1125,492,c),
(1174,501,o),
(1267,505,o),
(1370,505,cs),
(1415,505,o),
(1692,497,o),
(1735,495,c),
(1745,543,o),
(1749,579,o),
(1749,632,cs),
(1749,906,o),
(1588,1063,o),
(1303,1063,cs),
(963,1063,o),
(766,832,o),
(766,485,cs),
(766,149,o),
(1043,-16,o),
(1273,-16,cs),
(1451,-16,o),
(1653,48,o),
(1749,150,c)
);
},
{
closed = 1;
nodes = (
(1147,748,o),
(1190,831,o),
(1289,831,cs),
(1358,831,o),
(1411,793,o),
(1426,744,cs),
(1429,734,o),
(1431,724,o),
(1431,714,c),
(1414,715,o),
(1367,717,o),
(1321,717,cs),
(1239,717,o),
(1179,710,o),
(1142,704,c)
);
}
);
width = 1799;
},
{
anchors = (
{
name = bottom;
pos = (1017,0);
},
{
name = top;
pos = (1017,1063);
}
);
layerId = "B5195C1E-69AB-4BC6-9855-DF55601A0735";
shapes = (
{
closed = 1;
nodes = (
(886,-39,o),
(1061,160,o),
(1061,468,cs),
(1061,833,o),
(921,1077,o),
(595,1077,cs),
(302,1077,o),
(111,878,o),
(111,542,cs),
(111,169,o),
(255,-39,o),
(601,-39,cs)
);
},
{
closed = 1;
nodes = (
(337,32,o),
(199,230,o),
(199,522,cs),
(199,818,o),
(339,1002,o),
(591,1002,cs),
(860,1002,o),
(975,778,o),
(975,474,cs),
(975,274,o),
(885,32,o),
(596,32,cs)
);
},
{
closed = 1;
nodes = (
(1862,284,o),
(1821,319,o),
(1804,333,c),
(1797,319,o),
(1686,101,o),
(1417,101,cs),
(1241,101,o),
(1123,203,o),
(1081,366,cs),
(1071,406,o),
(1065,450,o),
(1064,497,c),
(1210,518,o),
(1346,537,o),
(1500,537,cs),
(1642,537,o),
(1800,527,o),
(1829,525,c),
(1829,564,o),
(1827,602,o),
(1823,638,cs),
(1796,894,o),
(1669,1070,o),
(1431,1070,cs),
(1147,1070,o),
(977,867,o),
(977,568,cs),
(977,248,o),
(1112,27,o),
(1411,27,cs),
(1679,27,o),
(1834,207,o),
(1870,266,c)
);
},
{
closed = 1;
nodes = (
(1064,849,o),
(1204,984,o),
(1423,984,cs),
(1619,984,o),
(1702,833,o),
(1729,706,cs),
(1736,672,o),
(1739,639,o),
(1739,612,c),
(1709,614,o),
(1638,618,o),
(1527,618,cs),
(1310,618,o),
(1189,599,o),
(1058,578,c)
);
}
);
width = 1931;
}
);
metricLeft = o;
metricRight = e;
unicode = 339;
},
{
glyphname = p;
kernLeft = p;
kernRight = o;
lastChange = "2020-06-18 14:36:31 +0000";
layers = (
{
anchors = (
{
name = bottom;
pos = (600,0);
},
{
name = top;
pos = (600,1063);
}
);
layerId = "B5042207-EFBA-41B6-8DFD-104A953B46A6";
shapes = (
{
closed = 1;
nodes = (
(116,-455,o),
(283,-448,o),
(415,-422,c),
(425,-306,o),
(437,57,o),
(437,144,c),
(469,99,o),
(595,53,o),
(709,53,cs),
(971,53,o),
(1189,247,o),
(1189,574,cs),
(1189,884,o),
(1071,1068,o),
(795,1068,cs),
(608,1068,o),
(489,960,o),
(458,912,c),
(458,960,o),
(453,1018,o),
(448,1068,c),
(323,1068,o),
(182,1055,o),
(79,1022,c),
(79,880,o),
(70,118,o),
(38,-455,c)
);
},
{
closed = 1;
nodes = (
(535,439,o),
(489,485,o),
(458,519,c),
(460,545,o),
(462,625,o),
(462,659,c),
(497,704,o),
(562,750,o),
(667,750,cs),
(778,750,o),
(816,697,o),
(816,601,cs),
(816,498,o),
(745,439,o),
(647,439,cs)
);
}
);
width = 1229;
},
{
anchors = (
{
name = bottom;
pos = (600,0);
},
{
name = top;
pos = (600,1063);
}
);
layerId = "B5195C1E-69AB-4BC6-9855-DF55601A0735";
shapes = (
{
closed = 1;
nodes = (
(117,-429,o),
(168,-427,o),
(199,-420,c),
(221,-293,o),
(256,166,o),
(260,232,c),
(309,183,o),
(507,104,o),
(647,104,cs),
(940,104,o),
(1075,313,o),
(1075,621,cs),
(1075,911,o),
(919,1085,o),
(666,1085,cs),
(490,1085,o),
(347,993,o),
(288,935,c),
(288,983,o),
(290,1063,o),
(291,1088,c),
(263,1088,o),
(222,1084,o),
(199,1079,c),
(199,707,o),
(167,32,o),
(100,-429,c)
);
},
{
closed = 1;
nodes = (
(455,188,o),
(314,286,o),
(268,323,c),
(268,432,o),
(281,773,o),
(283,823,c),
(317,868,o),
(477,1007,o),
(660,1007,cs),
(862,1007,o),
(981,871,o),
(981,636,cs),
(981,357,o),
(903,188,o),
(641,188,cs)
);
}
);
width = 1199;
}
);
unicode = 112;
},
{
glyphname = thorn;
kernLeft = h;
kernRight = o;
lastChange = "2020-06-17 20:38:04 +0000";
layers = (
{
anchors = (
{
name = bottom;
pos = (600,0);
},
{
name = top;
pos = (198,1356);
}
);
layerId = "B5042207-EFBA-41B6-8DFD-104A953B46A6";
shapes = (
{
closed = 1;
nodes = (
(467,-258,o),
(467,28,o),
(467,96,c),
(514,65,o),
(607,43,o),
(706,43,cs),
(959,43,o),
(1143,227,o),
(1143,505,cs),
(1143,777,o),
(975,1008,o),
(710,1008,cs),
(615,1008,o),
(532,989,o),
(426,917,c),
(422,1090,o),
(413,1302,o),
(405,1397,c),
(31,1330,l),
(31,976,o),
(60,-214,o),
(68,-379,c),
(463,-395,l)
);
},
{
closed = 1;
nodes = (
(567,409,o),
(493,433,o),
(450,449,c),
(450,490,o),
(450,541,o),
(446,586,c),
(474,619,o),
(558,665,o),
(649,665,cs),
(747,665,o),
(793,629,o),
(793,544,cs),
(793,469,o),
(728,409,o),
(632,409,cs)
);
}
);
width = 1200;
},
{
anchors = (
{
name = bottom;
pos = (600,0);
},
{
name = top;
pos = (191,1392);
}
);
layerId = "B5195C1E-69AB-4BC6-9855-DF55601A0735";
shapes = (
{
closed = 1;
nodes = (
(284,-340,o),
(268,56,o),
(267,96,c),
(321,40,o),
(494,1,o),
(614,1,cs),
(871,1,o),
(1049,232,o),
(1049,504,cs),
(1049,774,o),
(899,998,o),
(650,998,cs),
(442,998,o),
(267,857,o),
(248,832,c),
(241,1040,o),
(232,1359,o),
(232,1376,c),
(154,1369,l),
(154,1085,o),
(191,-229,o),
(203,-391,c),
(287,-395,l)
);
},
{
closed = 1;
nodes = (
(417,84,o),
(321,145,o),
(264,205,c),
(263,244,o),
(249,687,o),
(246,730,c),
(290,786,o),
(452,921,o),
(621,921,cs),
(833,921,o),
(964,746,o),
(964,504,cs),
(964,268,o),
(835,84,o),
(602,84,cs)
);
}
);
width = 1200;
}
);
unicode = 254;
},
{
glyphname = q;
kernLeft = o;
kernRight = q;
lastChange = "2020-06-17 15:29:54 +0000";
layers = (
{
anchors = (
{
name = bottom;
pos = (604,0);
},
{
name = top;
pos = (604,1063);
}
);
layerId = "B5042207-EFBA-41B6-8DFD-104A953B46A6";
shapes = (
{
closed = 1;
nodes = (
(1109,-342,o),
(1084,-97,o),
(1084,136,cs),
(1084,426,o),
(1102,782,o),
(1138,1043,c),
(1010,1075,o),
(922,1089,o),
(787,1089,c),
(783,1066,o),
(770,987,o),
(770,942,c),
(676,1042,o),
(561,1084,o),
(411,1084,cs),
(137,1084,o),
(44,809,o),
(44,521,cs),
(44,209,o),
(201,-3,o),
(498,-3,cs),
(621,-3,o),
(717,42,o),
(738,79,c),
(738,-111,o),
(744,-270,o),
(764,-445,c),
(846,-453,o),
(965,-462,o),
(1123,-462,c)
);
},
{
closed = 1;
nodes = (
(466,390,o),
(407,460,o),
(407,568,cs),
(407,666,o),
(460,722,o),
(544,722,cs),
(631,722,o),
(716,661,o),
(747,638,c),
(744,567,o),
(741,499,o),
(738,431,c),
(704,413,o),
(636,390,o),
(567,390,cs)
);
}
);
width = 1207;
},
{
anchors = (
{
name = bottom;
pos = (604,0);
},
{
name = top;
pos = (604,1063);
}
);
layerId = "B5195C1E-69AB-4BC6-9855-DF55601A0735";
shapes = (
{
closed = 1;
nodes = (
(953,-344,o),
(931,-127,o),
(931,99,cs),
(931,396,o),
(963,773,o),
(1004,1072,c),
(993,1077,o),
(945,1089,o),
(926,1091,c),
(921,1074,o),
(911,999,o),
(909,976,c),
(858,1017,o),
(723,1086,o),
(559,1086,cs),
(245,1086,o),
(111,882,o),
(111,555,cs),
(111,260,o),
(239,49,o),
(515,49,cs),
(694,49,o),
(812,137,o),
(846,188,c),
(846,-24,o),
(855,-299,o),
(872,-446,c),
(904,-450,o),
(949,-453,o),
(966,-453,c)
);
},
{
closed = 1;
nodes = (
(293,126,o),
(196,330,o),
(196,559,cs),
(196,815,o),
(286,1010,o),
(556,1010,cs),
(729,1010,o),
(873,919,o),
(896,901,c),
(882,798,o),
(851,383,o),
(846,286,c),
(811,233,o),
(680,126,o),
(509,126,cs)
);
}
);
width = 1207;
}
);
unicode = 113;
},
{
glyphname = r;
kernLeft = n;
kernRight = r;
lastChange = "2020-07-16 19:18:19 +0000";
layers = (
{
anchors = (
{
name = bottom;
pos = (427,0);
},
{
name = top;
pos = (427,1063);
}
);
layerId = "B5042207-EFBA-41B6-8DFD-104A953B46A6";
shapes = (
{
closed = 1;
nodes = (
(412,952,o),
(386,1041,o),
(370,1074,c),
(340,1072,o),
(157,1043,o),
(34,1009,c),
(74,832,o),
(116,252,o),
(116,-8,c),
(258,-8,o),
(417,-4,o),
(536,12,c),
(536,96,o),
(490,441,o),
(468,578,c),
(519,641,o),
(579,677,o),
(656,677,cs),
(707,677,o),
(753,659,o),
(781,648,c),
(858,1044,l),
(834,1062,o),
(767,1078,o),
(707,1078,cs),
(559,1078,o),
(447,985,o),
(412,902,c)
);
}
);
width = 853;
},
{
anchors = (
{
name = bottom;
pos = (427,0);
},
{
name = top;
pos = (427,1063);
}
);
layerId = "B5195C1E-69AB-4BC6-9855-DF55601A0735";
shapes = (
{
closed = 1;
nodes = (
(193,918,o),
(171,1003,o),
(154,1054,c),
(137,1053,o),
(90,1040,o),
(79,1034,c),
(173,658,o),
(203,343,o),
(203,2,c),
(228,-1,o),
(280,-2,o),
(300,-2,c),
(300,134,o),
(264,565,o),
(219,783,c),
(290,899,o),
(453,987,o),
(597,987,cs),
(683,987,o),
(734,967,o),
(768,952,c),
(786,1036,l),
(743,1057,o),
(669,1067,o),
(605,1067,cs),
(458,1067,o),
(275,987,o),
(200,877,c)
);
}
);
width = 853;
}
);
unicode = 114;
},
{
glyphname = s;
kernLeft = s;
kernRight = s;
lastChange = "2020-06-17 21:34:13 +0000";
layers = (
{
anchors = (
{
name = bottom;
pos = (504,-70);
},
{
name = top;
pos = (504,1124);
}
);
layerId = "B5042207-EFBA-41B6-8DFD-104A953B46A6";
shapes = (
{
closed = 1;
nodes = (
(728,-77,o),
(940,44,o),
(940,305,cs),
(940,516,o),
(727,627,o),
(607,680,cs),
(494,730,o),
(440,755,o),
(440,796,cs),
(440,834,o),
(493,844,o),
(535,844,cs),
(613,844,o),
(697,788,o),
(745,738,c),
(824,831,o),
(896,967,o),
(909,1010,c),
(806,1091,o),
(641,1127,o),
(514,1127,cs),
(292,1127,o),
(80,1016,o),
(80,810,cs),
(80,609,o),
(221,512,o),
(367,446,cs),
(459,404,o),
(572,336,o),
(572,296,cs),
(572,259,o),
(541,250,o),
(495,250,cs),
(414,250,o),
(294,330,o),
(193,405,c),
(134,345,o),
(24,126,o),
(10,70,c),
(48,34,o),
(220,-77,o),
(489,-77,cs)
);
}
);
width = 988;
},
{
anchors = (
{
name = bottom;
pos = (498,-60);
},
{
name = top;
pos = (518,1093);
}
);
layerId = "B5195C1E-69AB-4BC6-9855-DF55601A0735";
shapes = (
{
closed = 1;
nodes = (
(752,-84,o),
(937,32,o),
(937,242,cs),
(937,427,o),
(801,527,o),
(524,614,cs),
(374,661,o),
(242,729,o),
(242,846,cs),
(242,982,o),
(386,1029,o),
(533,1029,cs),
(659,1029,o),
(762,986,o),
(835,949,c),
(844,964,o),
(859,998,o),
(868,1027,c),
(817,1061,o),
(695,1114,o),
(524,1114,cs),
(324,1114,o),
(156,1022,o),
(156,841,cs),
(156,659,o),
(312,599,o),
(523,529,cs),
(716,465,o),
(851,399,o),
(851,232,cs),
(851,87,o),
(701,-5,o),
(519,-5,cs),
(347,-5,o),
(184,99,o),
(108,210,c),
(87,195,o),
(55,162,o),
(35,135,c),
(156,-12,o),
(369,-84,o),
(505,-84,cs)
);
}
);
width = 995;
}
);
unicode = 115;
},
{
glyphname = scedilla;
kernLeft = s;
kernRight = s;
lastChange = "2020-07-03 19:54:28 +0000";
layers = (
{
layerId = "B5042207-EFBA-41B6-8DFD-104A953B46A6";
shapes = (
{
closed = 1;
nodes = (
(699,-567,o),
(917,-483,o),
(917,-298,cs),
(917,-165,o),
(842,-107,o),
(736,-107,cs),
(666,-107,o),
(610,-135,o),
(586,-169,c),
(610,-51,l),
(391,-63,l),
(335,-287,l),
(370,-274,o),
(453,-259,o),
(530,-259,cs),
(597,-259,o),
(651,-270,o),
(651,-306,cs),
(651,-346,o),
(586,-367,o),
(468,-367,cs),
(435,-367,o),
(351,-355,o),
(322,-342,c),
(258,-545,l),
(278,-550,o),
(360,-567,o),
(465,-567,cs)
);
},
{
ref = s;
}
);
width = 988;
},
{
layerId = "B5195C1E-69AB-4BC6-9855-DF55601A0735";
shapes = (
{
closed = 1;
nodes = (
(713,-522,o),
(826,-456,o),
(826,-315,cs),
(826,-204,o),
(751,-147,o),
(646,-147,cs),
(598,-147,o),
(535,-166,o),
(518,-179,c),
(539,-21,l),
(467,-17,l),
(431,-272,l),
(472,-254,o),
(570,-219,o),
(628,-219,cs),
(710,-219,o),
(737,-258,o),
(737,-327,cs),
(737,-419,o),
(646,-452,o),
(498,-452,cs),
(447,-452,o),
(371,-434,o),
(332,-424,c),
(314,-497,l),
(334,-504,o),
(399,-522,o),
(503,-522,cs)
);
},
{
ref = s;
}
);
width = 995;
}
);
unicode = 351;
},
{
glyphname = germandbls;
kernLeft = h;
kernRight = s;
lastChange = "2020-06-17 20:39:58 +0000";
layers = (
{
anchors = (
{
name = bottom;
pos = (572,0);
},
{
name = top;
pos = (513,1372);
}
);
layerId = "B5042207-EFBA-41B6-8DFD-104A953B46A6";
shapes = (
{
closed = 1;
nodes = (
(489,53,l),
(475,141,o),
(386,785,o),
(386,1021,cs),
(386,1114,o),
(472,1114,o),
(509,1114,cs),
(580,1114,o),
(641,1054,o),
(641,998,cs),
(641,945,o),
(602,901,o),
(564,859,cs),
(526,818,o),
(489,778,o),
(489,726,cs),
(489,645,o),
(535,604,o),
(572,584,cs),
(701,514,o),
(811,440,o),
(811,354,cs),
(811,325,o),
(799,295,o),
(763,295,cs),
(723,295,o),
(680,326,o),
(642,354,c),
(530,65,l),
(563,34,o),
(641,-10,o),
(779,-10,cs),
(989,-10,o),
(1115,153,o),
(1115,355,cs),
(1115,506,o),
(1026,616,o),
(936,669,cs),
(889,697,o),
(832,731,o),
(832,773,cs),
(832,793,o),
(852,817,o),
(877,847,cs),
(915,894,o),
(965,957,o),
(965,1043,cs),
(965,1252,o),
(760,1415,o),
(518,1415,cs),
(268,1415,o),
(30,1291,o),
(30,988,cs),
(30,726,o),
(117,104,o),
(146,-5,c)
);
}
);
width = 1144;
},
{
anchors = (
{
name = bottom;
pos = (572,0);
},
{
name = top;
pos = (474,1359);
}
);
layerId = "B5195C1E-69AB-4BC6-9855-DF55601A0735";
shapes = (
{
closed = 1;
nodes = (
(335,5,l),
(320,103,o),
(214,823,o),
(214,993,cs),
(214,1196,o),
(276,1323,o),
(473,1323,cs),
(619,1323,o),
(768,1233,o),
(768,1098,cs),
(768,1016,o),
(720,961,o),
(674,910,cs),
(631,863,o),
(589,817,o),
(589,748,cs),
(589,708,o),
(620,650,o),
(663,616,cs),
(766,535,o),
(899,424,o),
(899,281,cs),
(899,176,o),
(841,86,o),
(703,86,cs),
(607,86,o),
(537,122,o),
(480,171,c),
(421,97,l),
(485,46,o),
(595,2,o),
(696,2,cs),
(868,2,o),
(988,106,o),
(988,291,cs),
(988,446,o),
(837,576,o),
(779,621,cs),
(691,689,o),
(674,726,o),
(674,749,cs),
(674,778,o),
(702,813,o),
(735,854,cs),
(783,915,o),
(843,992,o),
(843,1080,cs),
(843,1271,o),
(671,1395,o),
(474,1395,cs),
(227,1395,o),
(135,1250,o),
(135,988,cs),
(135,756,o),
(218,229,o),
(255,-5,c)
);
}
);
width = 1144;
}
);
unicode = 223;
},
{
glyphname = t;
kernLeft = t;
kernRight = t;
lastChange = "2020-07-21 15:52:07 +0000";
layers = (
{
anchors = (
{
name = bottom;
pos = (616,-53);
},
{
name = center;
pos = (472,532);
},
{
name = top;
pos = (404,1421);
},
{
name = topright;
pos = (611,1409);
}
);
layerId = "B5042207-EFBA-41B6-8DFD-104A953B46A6";
shapes = (
{
closed = 1;
nodes = (
(924,126,o),
(801,290,o),
(758,353,c),
(734,323,o),
(702,289,o),
(654,289,cs),
(578,289,o),
(569,372,o),
(569,508,cs),
(569,625,o),
(574,773,o),
(578,832,c),
(605,835,o),
(672,840,o),
(717,843,cs),
(783,847,o),
(870,852,o),
(883,852,c),
(883,947,o),
(881,1080,o),
(870,1162,c),
(855,1162,o),
(812,1162,o),
(734,1157,cs),
(700,1155,o),
(631,1151,o),
(585,1149,c),
(582,1208,o),
(581,1260,o),
(581,1302,cs),
(581,1369,o),
(582,1421,o),
(583,1434,c),
(216,1397,l),
(219,1372,o),
(223,1318,o),
(225,1273,cs),
(227,1227,o),
(231,1151,o),
(234,1132,c),
(137,1128,o),
(60,1122,o),
(-19,1113,c),
(-19,1091,o),
(-14,923,o),
(12,779,c),
(50,787,o),
(148,800,o),
(235,809,c),
(230,737,o),
(217,531,o),
(217,334,cs),
(217,120,o),
(342,-53,o),
(597,-53,cs),
(787,-53,o),
(905,35,o),
(949,94,c)
);
}
);
width = 964;
},
{
anchors = (
{
name = bottom;
pos = (574,0);
},
{
name = center;
pos = (452,532);
},
{
name = top;
pos = (392,1431);
},
{
name = topright;
pos = (539,1175);
}
);
layerId = "B5195C1E-69AB-4BC6-9855-DF55601A0735";
shapes = (
{
closed = 1;
nodes = (
(802,243,o),
(738,261,o),
(728,265,c),
(718,198,o),
(687,41,o),
(582,41,cs),
(429,41,o),
(418,191,o),
(418,310,cs),
(418,428,o),
(434,866,o),
(439,969,c),
(496,973,o),
(573,976,o),
(633,976,cs),
(716,976,o),
(814,971,o),
(828,969,c),
(828,979,o),
(826,1021,o),
(824,1031,c),
(808,1033,o),
(685,1037,o),
(582,1037,cs),
(545,1037,o),
(476,1034,o),
(439,1032,c),
(441,1066,o),
(442,1137,o),
(442,1177,cs),
(442,1307,o),
(434,1406,o),
(430,1431,c),
(348,1436,l),
(352,1392,o),
(357,1332,o),
(357,1268,cs),
(357,1187,o),
(354,1097,o),
(351,1024,c),
(254,1017,o),
(130,998,o),
(58,986,c),
(58,968,o),
(61,928,o),
(64,914,c),
(84,920,o),
(192,942,o),
(349,957,c),
(345,869,o),
(332,445,o),
(332,298,cs),
(332,128,o),
(375,-33,o),
(582,-33,cs),
(747,-33,o),
(787,123,o),
(810,241,c)
);
}
);
width = 964;
}
);
unicode = 116;
},
{
glyphname = t.ss01;
kernLeft = t;
kernRight = t;
lastChange = "2020-07-21 15:52:26 +0000";
layers = (
{
anchors = (
{
name = bottom;
pos = (482,0);
},
{
name = center;
pos = (482,532);
},
{
name = top;
pos = (452,1436);
},
{
name = topright;
pos = (690,1422);
}
);
layerId = "B5042207-EFBA-41B6-8DFD-104A953B46A6";
shapes = (
{
closed = 1;
nodes = (
(934,926,o),
(939,967,o),
(939,1040,cs),
(939,1098,o),
(932,1152,o),
(923,1195,c),
(902,1195,o),
(837,1193,o),
(655,1186,c),
(650,1335,o),
(643,1383,o),
(633,1422,c),
(611,1426,o),
(548,1436,o),
(452,1436,cs),
(405,1436,o),
(347,1432,o),
(282,1426,c),
(287,1337,o),
(291,1248,o),
(294,1168,c),
(197,1161,o),
(152,1157,o),
(38,1145,c),
(38,1123,o),
(40,959,o),
(65,817,c),
(106,829,o),
(216,843,o),
(306,853,c),
(300,619,o),
(297,320,o),
(297,0,c),
(343,-4,o),
(396,-5,o),
(445,-5,cs),
(518,-5,o),
(590,-4,o),
(670,-2,c),
(672,92,o),
(674,296,o),
(674,479,cs),
(674,629,o),
(670,763,o),
(665,879,c),
(759,889,o),
(905,896,o),
(926,896,c)
);
}
);
width = 964;
},
{
anchors = (
{
name = bottom;
pos = (482,0);
},
{
name = center;
pos = (482,532);
},
{
name = top;
pos = (436,1388);
},
{
name = topright;
pos = (582,1203);
}
);
layerId = "B5195C1E-69AB-4BC6-9855-DF55601A0735";
shapes = (
{
closed = 1;
nodes = (
(891,999,o),
(893,1018,o),
(893,1038,cs),
(893,1047,o),
(893,1056,o),
(892,1065,c),
(872,1065,o),
(665,1058,o),
(503,1051,c),
(503,1152,o),
(484,1347,o),
(479,1386,c),
(470,1387,o),
(458,1388,o),
(446,1388,cs),
(425,1388,o),
(401,1386,o),
(388,1383,c),
(400,1273,o),
(418,1101,o),
(418,1044,c),
(320,1038,o),
(115,1010,o),
(55,998,c),
(55,976,o),
(57,950,o),
(67,916,c),
(98,923,o),
(239,947,o),
(417,962,c),
(430,591,o),
(431,296,o),
(431,0,c),
(442,-1,o),
(456,-2,o),
(469,-2,cs),
(483,-2,o),
(495,-2,o),
(503,-2,c),
(508,118,o),
(512,277,o),
(512,437,cs),
(512,571,o),
(508,853,o),
(504,968,c),
(653,978,o),
(867,985,o),
(887,985,c)
);
}
);
width = 964;
}
);
},
{
glyphname = tbar;
kernLeft = t;
kernRight = t;
lastChange = "2020-06-17 20:42:58 +0000";
layers = (
{
layerId = "B5042207-EFBA-41B6-8DFD-104A953B46A6";
shapes = (
{
closed = 1;
nodes = (
(882,568,o),
(873,688,o),
(869,727,c),
(726,727,o),
(167,718,o),
(43,667,c),
(43,593,o),
(49,523,o),
(58,436,c),
(283,453,o),
(758,460,o),
(882,460,c)
);
},
{
ref = t;
}
);
width = 964;
},
{
layerId = "B5195C1E-69AB-4BC6-9855-DF55601A0735";
shapes = (
{
closed = 1;
nodes = (
(778,619,o),
(776,652,o),
(774,661,c),
(645,654,o),
(161,613,o),
(100,601,c),
(96,590,o),
(94,557,o),
(94,541,c),
(250,555,o),
(625,582,o),
(779,590,c)
);
},
{
ref = t;
}
);
width = 964;
}
);
unicode = 359;
},
{
glyphname = tbar.ss01;
kernLeft = t;
kernRight = t;
lastChange = "2020-06-29 18:02:34 +0000";
layers = (
{
layerId = "B5195C1E-69AB-4BC6-9855-DF55601A0735";
shapes = (
{
closed = 1;
nodes = (
(818,619,o),
(816,652,o),
(814,661,c),
(685,654,o),
(201,613,o),
(140,601,c),
(136,590,o),
(134,557,o),
(134,541,c),
(290,555,o),
(665,582,o),
(819,590,c)
);
},
{
pos = (3,0);
ref = t.ss01;
}
);
width = 1032;
},
{
layerId = "B5042207-EFBA-41B6-8DFD-104A953B46A6";
shapes = (
{
closed = 1;
nodes = (
(787,568,o),
(779,688,o),
(775,727,c),
(650,727,o),
(159,718,o),
(50,667,c),
(50,593,o),
(55,523,o),
(63,436,c),
(261,453,o),
(678,460,o),
(787,460,c)
);
},
{
pos = (-57,0);
ref = t.ss01;
}
);
width = 897;
}
);
metricLeft = t;
metricRight = t;
},
{
glyphname = tcedilla;
kernLeft = t;
kernRight = t;
lastChange = "2020-07-03 20:01:16 +0000";
layers = (
{
layerId = "B5042207-EFBA-41B6-8DFD-104A953B46A6";
shapes = (
{
closed = 1;
nodes = (
(811,-550,o),
(1029,-466,o),
(1029,-281,cs),
(1029,-148,o),
(954,-90,o),
(848,-90,cs),
(778,-90,o),
(722,-118,o),
(698,-152,c),
(722,-34,l),
(503,-36,l),
(447,-270,l),
(482,-257,o),
(565,-242,o),
(642,-242,cs),
(709,-242,o),
(763,-253,o),
(763,-289,cs),
(763,-329,o),
(698,-350,o),
(580,-350,cs),
(547,-350,o),
(463,-338,o),
(434,-325,c),
(370,-528,l),
(390,-533,o),
(472,-550,o),
(577,-550,cs)
);
},
{
ref = t;
}
);
width = 964;
},
{
layerId = "B5195C1E-69AB-4BC6-9855-DF55601A0735";
shapes = (
{
closed = 1;
nodes = (
(789,-462,o),
(902,-396,o),
(902,-255,cs),
(902,-144,o),
(827,-87,o),
(722,-87,cs),
(674,-87,o),
(611,-106,o),
(594,-119,c),
(615,9,l),
(543,13,l),
(507,-212,l),
(548,-194,o),
(646,-159,o),
(704,-159,cs),
(786,-159,o),
(813,-198,o),
(813,-267,cs),
(813,-359,o),
(722,-392,o),
(574,-392,cs),
(523,-392,o),
(447,-374,o),
(408,-364,c),
(390,-437,l),
(410,-444,o),
(475,-462,o),
(579,-462,cs)
);
},
{
ref = t;
}
);
width = 964;
}
);
unicode = 355;
},
{
glyphname = tcedilla.ss01;
lastChange = "2020-07-08 20:01:55 +0000";
layers = (
{
layerId = "B5195C1E-69AB-4BC6-9855-DF55601A0735";
shapes = (
{
closed = 1;
nodes = (
(697,-462,o),
(810,-396,o),
(810,-255,cs),
(810,-144,o),
(735,-87,o),
(630,-87,cs),
(582,-87,o),
(519,-106,o),
(502,-119,c),
(503,-2,l),
(431,0,l),
(415,-212,l),
(456,-194,o),
(554,-159,o),
(612,-159,cs),
(694,-159,o),
(721,-198,o),
(721,-267,cs),
(721,-359,o),
(630,-392,o),
(482,-392,cs),
(431,-392,o),
(355,-374,o),
(316,-364,c),
(298,-437,l),
(318,-444,o),
(383,-462,o),
(487,-462,cs)
);
},
{
ref = t.ss01;
}
);
width = 964;
},
{
layerId = "B5042207-EFBA-41B6-8DFD-104A953B46A6";
shapes = (
{
closed = 1;
nodes = (
(677,-537,o),
(895,-453,o),
(895,-268,cs),
(895,-135,o),
(820,-77,o),
(714,-77,cs),
(644,-77,o),
(588,-105,o),
(564,-139,c),
(588,39,l),
(369,27,l),
(313,-257,l),
(348,-244,o),
(431,-229,o),
(508,-229,cs),
(575,-229,o),
(629,-240,o),
(629,-276,cs),
(629,-316,o),
(564,-337,o),
(446,-337,cs),
(413,-337,o),
(329,-325,o),
(300,-312,c),
(236,-515,l),
(256,-520,o),
(338,-537,o),
(443,-537,cs)
);
},
{
ref = t.ss01;
}
);
width = 964;
}
);
},
{
glyphname = u;
kernLeft = u;
kernRight = u;
lastChange = "2020-06-18 18:50:34 +0000";
layers = (
{
anchors = (
{
name = bottom;
pos = (569,0);
},
{
name = ogonek;
pos = (816,0);
},
{
name = top;
pos = (569,1063);
},
{
name = topright;
pos = (1073,902);
}
);
layerId = "B5042207-EFBA-41B6-8DFD-104A953B46A6";
shapes = (
{
closed = 1;
nodes = (
(708,902,o),
(720,790,o),
(720,676,cs),
(720,494,o),
(698,304,o),
(590,304,cs),
(476,304,o),
(457,514,o),
(457,719,cs),
(457,822,o),
(465,923,o),
(472,995,c),
(424,1009,o),
(330,1018,o),
(246,1018,cs),
(188,1018,o),
(109,1014,o),
(65,1010,c),
(59,923,o),
(56,838,o),
(56,757,cs),
(56,287,o),
(157,-64,o),
(577,-64,cs),
(975,-64,o),
(1110,278,o),
(1110,696,cs),
(1110,787,o),
(1103,880,o),
(1090,973,c),
(1042,981,o),
(958,987,o),
(897,987,cs),
(823,987,o),
(735,978,o),
(693,964,c)
);
}
);
width = 1178;
},
{
anchors = (
{
name = bottom;
pos = (589,0);
},
{
name = ogonek;
pos = (746,0);
},
{
name = top;
pos = (589,1063);
},
{
name = topright;
pos = (912,940);
}
);
layerId = "B5195C1E-69AB-4BC6-9855-DF55601A0735";
shapes = (
{
closed = 1;
nodes = (
(882,852,o),
(895,707,o),
(895,584,cs),
(895,196,o),
(767,29,o),
(564,29,cs),
(346,29,o),
(215,211,o),
(215,654,cs),
(215,767,o),
(223,896,o),
(241,1044,c),
(227,1048,o),
(213,1051,o),
(198,1054,cs),
(184,1057,o),
(165,1060,o),
(155,1060,c),
(143,921,o),
(130,770,o),
(130,626,cs),
(130,272,o),
(210,-41,o),
(569,-41,cs),
(889,-41,o),
(983,232,o),
(983,553,cs),
(983,707,o),
(962,871,o),
(935,1023,c),
(927,1024,o),
(908,1024,o),
(893,1024,cs),
(877,1024,o),
(861,1022,o),
(855,1021,c)
);
}
);
width = 1178;
}
);
unicode = 117;
},
{
glyphname = udieresiscaron;
kernLeft = u;
kernRight = u;
lastChange = "2020-07-21 15:47:09 +0000";
layers = (
{
layerId = "B5042207-EFBA-41B6-8DFD-104A953B46A6";
shapes = (
{
closed = 1;
nodes = (
(642,1769,o),
(574,1701,o),
(561,1692,c),
(574,1692,l),
(547,1713,o),
(487,1780,o),
(436,1854,c),
(372,1838,o),
(280,1776,o),
(241,1749,c),
(315,1672,o),
(378,1613,o),
(443,1561,c),
(493,1556,o),
(605,1553,o),
(667,1553,c),
(713,1577,o),
(840,1668,o),
(897,1722,c),
(883,1734,o),
(767,1821,o),
(704,1844,c)
);
},
{
ref = u;
},
{
pos = (82,0);
ref = dieresiscomb;
}
);
width = 1178;
},
{
layerId = "B5195C1E-69AB-4BC6-9855-DF55601A0735";
shapes = (
{
closed = 1;
nodes = (
(786,1730,o),
(641,1580,o),
(583,1519,c),
(595,1519,l),
(571,1538,o),
(421,1711,o),
(341,1818,c),
(317,1806,o),
(296,1794,o),
(275,1780,c),
(369,1668,o),
(457,1573,o),
(543,1482,c),
(565,1481,o),
(599,1480,o),
(625,1480,c),
(659,1509,o),
(757,1594,o),
(943,1764,c),
(926,1777,o),
(893,1797,o),
(869,1809,c)
);
},
{
ref = u;
},
{
pos = (110,0);
ref = dieresiscomb;
}
);
width = 1178;
}
);
unicode = 474;
},
{
glyphname = udieresismacron;
kernLeft = u;
kernRight = u;
lastChange = "2020-07-21 15:11:24 +0000";
layers = (
{
anchors = (
{
name = top;
pos = (568.92,1889);
}
);
layerId = "B5042207-EFBA-41B6-8DFD-104A953B46A6";
shapes = (
{
closed = 1;
nodes = (
(869,1750,o),
(861,1860,o),
(858,1899,c),
(735,1899,o),
(386,1865,o),
(248,1829,c),
(248,1755,o),
(254,1685,o),
(261,1608,c),
(447,1629,o),
(762,1642,o),
(869,1642,c)
);
},
{
ref = u;
},
{
pos = (82,0);
ref = dieresiscomb;
}
);
width = 1178;
},
{
anchors = (
{
name = top;
pos = (589,1601);
}
);
layerId = "B5195C1E-69AB-4BC6-9855-DF55601A0735";
shapes = (
{
closed = 1;
nodes = (
(870,1551,o),
(869,1579,o),
(868,1586,c),
(743,1586,o),
(397,1557,o),
(338,1545,c),
(333,1536,o),
(331,1509,o),
(331,1495,c),
(480,1510,o),
(723,1527,o),
(870,1527,c)
);
},
{
ref = u;
},
{
pos = (110,0);
ref = dieresiscomb;
}
);
width = 1178;
}
);
unicode = 470;
},
{
glyphname = uhorn;
kernLeft = u;
kernRight = u;
lastChange = "2020-06-29 18:02:51 +0000";
layers = (
{
anchors = (
{
name = bottom;
pos = (589,0);
},
{
name = top;
pos = (589,1063);
}
);
layerId = "B5195C1E-69AB-4BC6-9855-DF55601A0735";
shapes = (
{
closed = 1;
nodes = (
(882,852,o),
(895,707,o),
(895,584,cs),
(895,196,o),
(767,29,o),
(564,29,cs),
(346,29,o),
(215,211,o),
(215,654,cs),
(215,767,o),
(223,896,o),
(241,1044,c),
(227,1048,o),
(213,1051,o),
(198,1054,cs),
(184,1057,o),
(165,1060,o),
(155,1060,c),
(143,921,o),
(130,770,o),
(130,626,cs),
(130,272,o),
(210,-41,o),
(569,-41,cs),
(889,-41,o),
(983,232,o),
(983,553,cs),
(983,707,o),
(962,871,o),
(935,1023,c),
(927,1024,o),
(908,1024,o),
(893,1024,cs),
(877,1024,o),
(861,1022,o),
(855,1021,c)
);
},
{
closed = 1;
nodes = (
(1054,962,o),
(1194,1030,o),
(1194,1259,c),
(1177,1268,o),
(1131,1275,o),
(1100,1275,c),
(1100,1152,o),
(1082,1024,o),
(893,1024,c),
(902,962,l)
);
}
);
width = 1269;
},
{
anchors = (
{
name = bottom;
pos = (589,-20);
},
{
name = top;
pos = (607,1063);
}
);
layerId = "B5042207-EFBA-41B6-8DFD-104A953B46A6";
shapes = (
{
closed = 1;
nodes = (
(708,912,o),
(720,790,o),
(720,676,cs),
(720,494,o),
(698,304,o),
(590,304,cs),
(476,304,o),
(457,514,o),
(457,719,cs),
(457,822,o),
(465,923,o),
(472,995,c),
(424,1009,o),
(330,1018,o),
(246,1018,cs),
(188,1018,o),
(109,1014,o),
(65,1010,c),
(59,923,o),
(56,838,o),
(56,757,cs),
(56,287,o),
(157,-64,o),
(577,-64,cs),
(975,-64,o),
(1110,278,o),
(1110,696,cs),
(1110,787,o),
(1103,880,o),
(1090,973,c),
(1042,981,o),
(884,987,o),
(823,987,cs),
(783,987,o),
(731,981,o),
(693,974,c)
);
},
{
closed = 1;
nodes = (
(1091,740,o),
(1332,825,o),
(1332,1186,c),
(1307,1214,o),
(1168,1244,o),
(1049,1244,c),
(1049,1057,o),
(962,987,o),
(823,987,c),
(909,740,l)
);
}
);
width = 1280;
}
);
metricLeft = u;
metricRight = "=u-120";
unicode = 432;
},
{
glyphname = uogonek;
kernLeft = u;
kernRight = u;
lastChange = "2020-07-08 16:45:33 +0000";
layers = (
{
layerId = "B5042207-EFBA-41B6-8DFD-104A953B46A6";
shapes = (
{
closed = 1;
nodes = (
(1003,-207,o),
(958,-216,o),
(915,-216,cs),
(862,-216,o),
(808,-192,o),
(808,-120,cs),
(808,-40,o),
(883,44,o),
(928,75,c),
(792,133,l),
(727,114,o),
(545,-37,o),
(545,-209,cs),
(545,-376,o),
(689,-461,o),
(847,-461,cs),
(951,-461,o),
(1013,-448,o),
(1042,-436,c),
(1042,-179,l)
);
},
{
ref = u;
}
);
width = 1178;
},
{
layerId = "B5195C1E-69AB-4BC6-9855-DF55601A0735";
shapes = (
{
closed = 1;
nodes = (
(876,-358,o),
(827,-378,o),
(733,-378,cs),
(643,-378,o),
(586,-347,o),
(586,-245,cs),
(586,-132,o),
(736,-8,o),
(818,45,c),
(753,90,l),
(634,21,o),
(500,-109,o),
(500,-252,cs),
(500,-381,o),
(580,-458,o),
(717,-458,cs),
(821,-458,o),
(893,-436,o),
(949,-412,c),
(949,-325,l)
);
},
{
ref = u;
}
);
width = 1178;
}
);
unicode = 371;
},
{
glyphname = v;
kernLeft = v;
kernRight = v;
lastChange = "2023-07-07 16:52:49 +0000";
layers = (
{
anchors = (
{
name = bottom;
pos = (504,0);
},
{
name = top;
pos = (504,1063);
}
);
layerId = "B5042207-EFBA-41B6-8DFD-104A953B46A6";
shapes = (
{
closed = 1;
nodes = (
(577,778,o),
(557,651,o),
(515,486,c),
(482,586,o),
(379,915,o),
(333,1092,c),
(250,1067,o),
(39,1017,o),
(-2,1012,c),
(113,627,o),
(223,311,o),
(354,36,c),
(395,31,o),
(457,25,o),
(519,25,cs),
(577,25,o),
(635,29,o),
(677,36,c),
(806,337,o),
(909,709,o),
(979,1005,c),
(957,1012,o),
(802,1061,o),
(627,1091,c)
);
}
);
width = 1007;
},
{
anchors = (
{
name = bottom;
pos = (504,0);
},
{
name = top;
pos = (504,1063);
}
);
layerId = "B5195C1E-69AB-4BC6-9855-DF55601A0735";
shapes = (
{
closed = 1;
nodes = (
(800,888,o),
(595,316,o),
(487,80,c),
(388,301,o),
(177,867,o),
(123,1092,c),
(99,1087,o),
(74,1080,o),
(39,1068,c),
(125,785,o),
(283,305,o),
(446,-31,c),
(456,-33,o),
(470,-34,o),
(485,-34,cs),
(504,-34,o),
(523,-33,o),
(532,-31,c),
(643,217,o),
(896,881,o),
(945,1062,c),
(938,1067,o),
(896,1082,o),
(855,1091,c)
);
}
);
width = 1007;
}
);
unicode = 118;
},
{
glyphname = v.ss02;
kernLeft = v;
kernRight = v;
lastChange = "2023-07-07 16:54:39 +0000";
layers = (
{
anchors = (
{
name = bottom;
pos = (504,0);
},
{
name = top;
pos = (504,1063);
}
);
layerId = "B5042207-EFBA-41B6-8DFD-104A953B46A6";
shapes = (
{
closed = 1;
nodes = (
(577,778,o),
(548,661,o),
(506,496,c),
(473,596,o),
(379,915,o),
(333,1092,c),
(250,1067,o),
(61,996,o),
(-2,972,c),
(101,629,o),
(372,104,o),
(519,-35,c),
(678,190,o),
(879,667,o),
(979,1005,c),
(957,1012,o),
(802,1061,o),
(627,1091,c)
);
}
);
width = 1007;
},
{
anchors = (
{
name = bottom;
pos = (504,0);
},
{
name = top;
pos = (504,1063);
}
);
layerId = "B5195C1E-69AB-4BC6-9855-DF55601A0735";
shapes = (
{
closed = 1;
nodes = (
(800,888,o),
(597,363,o),
(489,129,c),
(390,349,o),
(177,867,o),
(123,1092,c),
(99,1087,o),
(74,1080,o),
(39,1068,c),
(81,930,o),
(368,122,o),
(485,-34,c),
(605,106,o),
(913,944,o),
(945,1062,c),
(938,1067,o),
(896,1082,o),
(855,1091,c)
);
}
);
width = 1007;
}
);
},
{
glyphname = w;
kernLeft = w;
kernRight = w;
lastChange = "2023-07-07 16:53:23 +0000";
layers = (
{
anchors = (
{
name = bottom;
pos = (760,0);
},
{
name = top;
pos = (760,1063);
}
);
layerId = "B5042207-EFBA-41B6-8DFD-104A953B46A6";
shapes = (
{
closed = 1;
nodes = (
(605,7,o),
(699,100,o),
(748,188,c),
(787,104,o),
(867,15,o),
(1027,15,cs),
(1342,15,o),
(1475,243,o),
(1475,685,cs),
(1475,766,o),
(1466,944,o),
(1459,1033,c),
(1420,1036,o),
(1332,1041,o),
(1280,1041,cs),
(1225,1041,o),
(1171,1041,o),
(1116,1041,c),
(1120,923,o),
(1120,812,o),
(1120,715,cs),
(1120,480,o),
(1093,328,o),
(1010,328,cs),
(913,328,o),
(909,529,o),
(909,920,cs),
(909,1036,l),
(829,1039,o),
(653,1041,o),
(583,1041,c),
(587,925,o),
(588,805,o),
(588,700,cs),
(588,515,o),
(555,373,o),
(485,373,cs),
(424,373,o),
(406,464,o),
(406,629,cs),
(406,738,o),
(414,879,o),
(426,1044,c),
(316,1052,o),
(176,1060,o),
(70,1060,c),
(57,927,o),
(45,784,o),
(45,651,cs),
(45,306,o),
(122,7,o),
(444,7,cs)
);
}
);
width = 1520;
},
{
anchors = (
{
name = bottom;
pos = (760,0);
},
{
name = top;
pos = (760,1063);
}
);
layerId = "B5195C1E-69AB-4BC6-9855-DF55601A0735";
shapes = (
{
closed = 1;
nodes = (
(574,7,o),
(686,165,o),
(710,385,c),
(730,165,o),
(789,14,o),
(973,14,cs),
(1248,14,o),
(1319,509,o),
(1319,853,cs),
(1319,915,o),
(1317,978,o),
(1313,1039,c),
(1297,1041,o),
(1281,1042,o),
(1266,1042,cs),
(1255,1042,o),
(1244,1042,o),
(1232,1041,c),
(1234,1003,o),
(1237,906,o),
(1237,866,cs),
(1237,479,o),
(1170,91,o),
(973,91,cs),
(778,91,o),
(762,420,o),
(762,797,cs),
(762,1036,l),
(745,1039,o),
(697,1040,o),
(674,1040,c),
(676,993,o),
(678,904,o),
(678,856,cs),
(678,432,o),
(608,92,o),
(424,92,cs),
(270,92,o),
(222,313,o),
(222,583,cs),
(222,736,o),
(233,904,o),
(253,1056,c),
(233,1058,o),
(183,1058,o),
(164,1058,c),
(149,907,o),
(136,746,o),
(136,597,cs),
(136,275,o),
(195,7,o),
(417,7,cs)
);
}
);
width = 1520;
}
);
unicode = 119;
},
{
glyphname = x;
kernLeft = x;
kernRight = x;
lastChange = "2020-06-17 15:34:53 +0000";
layers = (
{
anchors = (
{
name = bottom;
pos = (571,0);
},
{
name = top;
pos = (571,1063);
}
);
layerId = "B5042207-EFBA-41B6-8DFD-104A953B46A6";
shapes = (
{
closed = 1;
nodes = (
(326,32,o),
(393,93,o),
(545,289,c),
(634,179,o),
(704,91,o),
(786,-21,c),
(885,34,o),
(993,94,o),
(1080,162,c),
(956,333,o),
(884,432,o),
(778,561,c),
(894,684,o),
(1041,884,o),
(1108,995,c),
(1029,1044,o),
(891,1116,o),
(785,1164,c),
(697,1014,o),
(632,909,o),
(561,805,c),
(497,894,o),
(347,1094,o),
(274,1169,c),
(209,1135,o),
(22,990,o),
(0,961,c),
(61,892,o),
(156,785,o),
(353,568,c),
(242,450,o),
(51,261,o),
(0,212,c),
(62,128,o),
(179,21,o),
(251,-36,c)
);
}
);
width = 1142;
},
{
anchors = (
{
name = bottom;
pos = (591,0);
},
{
name = top;
pos = (591,1063);
}
);
layerId = "B5195C1E-69AB-4BC6-9855-DF55601A0735";
shapes = (
{
closed = 1;
nodes = (
(191,48,o),
(467,402,o),
(583,563,c),
(679,455,o),
(882,89,o),
(936,-15,c),
(959,-5,o),
(1003,24,o),
(1010,34,c),
(939,161,o),
(744,505,o),
(638,624,c),
(764,770,o),
(911,998,o),
(974,1120,c),
(959,1130,o),
(914,1147,o),
(895,1152,c),
(827,1021,o),
(713,835,o),
(591,680,c),
(514,789,o),
(213,1056,o),
(112,1142,c),
(87,1125,o),
(65,1105,o),
(49,1085,c),
(170,986,o),
(410,784,o),
(541,619,c),
(420,466,o),
(100,85,o),
(51,34,c),
(56,25,o),
(90,-4,o),
(117,-24,c)
);
}
);
width = 1142;
}
);
unicode = 120;
},
{
glyphname = y;
kernLeft = y;
kernRight = y;
lastChange = "2020-06-17 15:35:22 +0000";
layers = (
{
anchors = (
{
name = bottom;
pos = (540,0);
},
{
name = top;
pos = (540,1063);
}
);
layerId = "B5042207-EFBA-41B6-8DFD-104A953B46A6";
shapes = (
{
closed = 1;
nodes = (
(807,-526,o),
(977,-290,o),
(995,56,cs),
(1006,260,o),
(1011,461,o),
(1011,640,cs),
(1011,749,o),
(1009,849,o),
(1005,937,c),
(926,954,o),
(853,962,o),
(776,962,cs),
(740,962,o),
(703,960,o),
(665,957,c),
(668,933,o),
(672,888,o),
(672,806,cs),
(672,570,o),
(637,391,o),
(508,391,cs),
(422,391,o),
(399,525,o),
(399,663,cs),
(399,789,o),
(418,919,o),
(426,957,c),
(394,964,o),
(290,970,o),
(197,970,cs),
(133,970,o),
(75,967,o),
(48,961,c),
(42,852,o),
(38,752,o),
(38,661,cs),
(38,313,o),
(128,36,o),
(451,36,cs),
(542,36,o),
(644,91,o),
(696,167,c),
(690,16,o),
(635,-179,o),
(473,-179,cs),
(340,-179,o),
(194,-106,o),
(115,-56,c),
(74,-113,o),
(-19,-292,o),
(-48,-373,c),
(70,-450,o),
(246,-526,o),
(461,-526,cs)
);
}
);
width = 1079;
},
{
anchors = (
{
name = bottom;
pos = (540,0);
},
{
name = top;
pos = (540,1063);
}
);
layerId = "B5195C1E-69AB-4BC6-9855-DF55601A0735";
shapes = (
{
closed = 1;
nodes = (
(689,-529,o),
(837,-277,o),
(855,56,cs),
(869,313,o),
(883,615,o),
(883,815,cs),
(883,871,o),
(882,919,o),
(880,956,c),
(872,959,o),
(856,960,o),
(840,960,cs),
(825,960,o),
(810,959,o),
(800,957,c),
(800,937,o),
(791,627,o),
(774,474,cs),
(746,228,o),
(623,123,o),
(461,123,cs),
(229,123,o),
(204,432,o),
(204,690,cs),
(204,832,o),
(215,974,o),
(217,991,c),
(211,993,o),
(199,993,o),
(185,993,cs),
(165,993,o),
(141,992,o),
(130,990,c),
(124,885,o),
(120,785,o),
(120,690,cs),
(120,313,o),
(184,43,o),
(448,43,cs),
(670,43,o),
(754,159,o),
(776,234,c),
(776,-128,o),
(674,-451,o),
(389,-451,cs),
(250,-451,o),
(107,-371,o),
(68,-338,c),
(51,-358,o),
(24,-399,o),
(19,-412,c),
(79,-457,o),
(215,-529,o),
(384,-529,cs)
);
}
);
width = 1079;
}
);
unicode = 121;
},
{
glyphname = z;
kernLeft = z;
kernRight = z;
lastChange = "2020-06-17 15:36:39 +0000";
layers = (
{
anchors = (
{
name = bottom;
pos = (537,0);
},
{
name = center;
pos = (537,532);
},
{
name = top;
pos = (537,1063);
}
);
layerId = "B5042207-EFBA-41B6-8DFD-104A953B46A6";
shapes = (
{
closed = 1;
nodes = (
(981,43,o),
(988,305,o),
(988,334,c),
(908,327,o),
(760,315,o),
(652,315,cs),
(621,315,o),
(542,315,o),
(516,316,c),
(579,398,o),
(814,653,o),
(966,791,c),
(966,833,o),
(962,1023,o),
(957,1045,c),
(856,1045,o),
(683,1045,o),
(538,1045,cs),
(419,1045,o),
(178,1055,o),
(78,1060,c),
(62,764,l),
(69,763,o),
(89,763,o),
(117,763,cs),
(222,763,o),
(446,767,o),
(502,771,c),
(314,595,o),
(128,386,o),
(56,280,c),
(39,12,l),
(154,-5,o),
(337,-11,o),
(516,-11,cs),
(696,-11,o),
(873,-5,o),
(974,2,c)
);
}
);
width = 1074;
},
{
anchors = (
{
name = bottom;
pos = (537,0);
},
{
name = center;
pos = (537,532);
},
{
name = top;
pos = (537,1063);
}
);
layerId = "B5195C1E-69AB-4BC6-9855-DF55601A0735";
shapes = (
{
closed = 1;
nodes = (
(974,22,o),
(978,82,o),
(978,104,c),
(898,94,o),
(709,89,o),
(533,89,cs),
(366,89,o),
(216,93,o),
(175,102,c),
(269,228,o),
(844,846,o),
(966,956,c),
(966,969,o),
(959,1029,o),
(957,1036,c),
(825,1042,o),
(704,1044,o),
(596,1044,cs),
(320,1044,o),
(136,1029,o),
(94,1024,c),
(91,944,l),
(114,950,o),
(397,958,o),
(614,958,cs),
(732,958,o),
(819,955,o),
(844,949,c),
(803,907,o),
(183,253,o),
(72,115,c),
(68,12,l),
(200,1,o),
(376,-3,o),
(551,-3,cs),
(699,-3,o),
(851,2,o),
(968,7,c)
);
}
);
width = 1074;
}
);
unicode = 122;
},
{
glyphname = z.ss02;
kernLeft = z;
kernRight = z;
lastChange = "2023-07-07 16:59:58 +0000";
layers = (
{
anchors = (
{
name = bottom;
pos = (537,0);
},
{
name = center;
pos = (537,532);
},
{
name = top;
pos = (537,1063);
}
);
layerId = "B5042207-EFBA-41B6-8DFD-104A953B46A6";
shapes = (
{
closed = 1;
nodes = (
(981,43,o),
(988,305,o),
(988,334,c),
(908,327,o),
(811,321,o),
(756,321,cs),
(695,321,o),
(583,322,o),
(547,326,c),
(610,408,o),
(901,819,o),
(1007,985,c),
(883,1016,o),
(636,1060,o),
(78,1060,c),
(62,764,l),
(69,763,o),
(89,763,o),
(117,763,cs),
(222,763,o),
(386,767,o),
(442,771,c),
(300,557,o),
(73,167,o),
(15,22,c),
(130,5,o),
(337,-11,o),
(516,-11,cs),
(696,-11,o),
(873,-5,o),
(974,2,c)
);
}
);
width = 1074;
},
{
anchors = (
{
name = bottom;
pos = (537,0);
},
{
name = center;
pos = (537,532);
},
{
name = top;
pos = (537,1063);
}
);
layerId = "B5195C1E-69AB-4BC6-9855-DF55601A0735";
shapes = (
{
closed = 1;
nodes = (
(974,22,o),
(978,82,o),
(978,104,c),
(897,95,o),
(729,89,o),
(553,89,cs),
(386,89,o),
(239,93,o),
(198,102,c),
(348,314,o),
(844,867,o),
(966,977,c),
(934,1001,o),
(586,1054,o),
(114,1054,c),
(111,974,l),
(220,974,o),
(422,970,o),
(554,960,cs),
(672,951,o),
(767,935,o),
(792,929,c),
(662,802,o),
(200,287,o),
(31,32,c),
(128,13,o),
(396,-3,o),
(571,-3,cs),
(719,-3,o),
(851,2,o),
(968,7,c)
);
}
);
width = 1074;
}
);
},
{
glyphname = b_b;
kernLeft = h;
kernRight = o;
lastChange = "2020-07-22 15:09:53 +0000";
layers = (
{
anchors = (
{
name = caret_1;
pos = (1243,0);
}
);
layerId = "B5042207-EFBA-41B6-8DFD-104A953B46A6";
shapes = (
{
closed = 1;
nodes = (
(326,0,o),
(475,1,o),
(598,9,c),
(597,24,o),
(591,71,o),
(584,110,c),
(621,69,o),
(742,3,o),
(855,3,cs),
(1086,3,o),
(1250,182,o),
(1250,472,cs),
(1250,733,o),
(1076,942,o),
(822,942,cs),
(705,942,o),
(580,903,o),
(494,823,c),
(466,1000,o),
(421,1265,o),
(412,1310,c),
(258,1291,o),
(106,1274,o),
(52,1270,c),
(80,1039,o),
(189,161,o),
(217,0,c)
);
},
{
closed = 1;
nodes = (
(613,361,o),
(590,363,o),
(572,367,c),
(568,427,o),
(562,478,o),
(556,504,c),
(603,551,o),
(685,582,o),
(782,582,cs),
(835,582,o),
(882,551,o),
(882,494,cs),
(882,394,o),
(766,361,o),
(637,361,cs)
);
},
{
alignment = -1;
pos = (1263,5);
ref = b;
}
);
width = 2463;
},
{
anchors = (
{
name = caret_1;
pos = (1189,0);
}
);
layerId = "B5195C1E-69AB-4BC6-9855-DF55601A0735";
shapes = (
{
closed = 1;
nodes = (
(365,-43,o),
(435,-33,o),
(445,-32,c),
(445,0,o),
(444,56,o),
(440,89,c),
(474,58,o),
(542,0,o),
(688,0,cs),
(945,0,o),
(1115,192,o),
(1115,473,cs),
(1115,722,o),
(933,891,o),
(700,891,cs),
(564,891,o),
(406,817,o),
(345,692,c),
(320,919,o),
(270,1270,o),
(257,1330,c),
(235,1327,o),
(189,1319,o),
(173,1314,c),
(201,1108,o),
(333,77,o),
(346,-46,c)
);
},
{
closed = 1;
nodes = (
(561,84,o),
(459,155,o),
(428,184,c),
(423,223,o),
(373,549,o),
(366,591,c),
(435,695,o),
(543,812,o),
(679,812,cs),
(869,812,o),
(1028,684,o),
(1028,462,cs),
(1028,261,o),
(908,84,o),
(710,84,cs)
);
},
{
alignment = -1;
pos = (1154,5);
ref = b;
}
);
width = 2354;
}
);
metricLeft = b;
metricRight = b;
},
